G04 #@! TF.GenerationSoftware,KiCad,Pcbnew,5.1.2-f72e74a~84~ubuntu16.04.1*
G04 #@! TF.CreationDate,2019-07-19T18:17:23+01:00*
G04 #@! TF.ProjectId,DigitalPot_OptoIsolator,44696769-7461-46c5-906f-745f4f70746f,rev?*
G04 #@! TF.SameCoordinates,Original*
G04 #@! TF.FileFunction,Soldermask,Top*
G04 #@! TF.FilePolarity,Negative*
%FSLAX46Y46*%
G04 Gerber Fmt 4.6, Leading zero omitted, Abs format (unit mm)*
G04 Created by KiCad (PCBNEW 5.1.2-f72e74a~84~ubuntu16.04.1) date 2019-07-19 18:17:23*
%MOMM*%
%LPD*%
G04 APERTURE LIST*
%ADD10C,0.100000*%
G04 APERTURE END LIST*
D10*
G36*
X112135256Y-54271298D02*
G01*
X112241579Y-54292447D01*
X112542042Y-54416903D01*
X112812451Y-54597585D01*
X113042415Y-54827549D01*
X113223097Y-55097958D01*
X113347553Y-55398421D01*
X113411000Y-55717391D01*
X113411000Y-56042609D01*
X113347553Y-56361579D01*
X113223097Y-56662042D01*
X113042415Y-56932451D01*
X112812451Y-57162415D01*
X112542042Y-57343097D01*
X112241579Y-57467553D01*
X112135256Y-57488702D01*
X111922611Y-57531000D01*
X111597389Y-57531000D01*
X111384744Y-57488702D01*
X111278421Y-57467553D01*
X110977958Y-57343097D01*
X110707549Y-57162415D01*
X110477585Y-56932451D01*
X110296903Y-56662042D01*
X110172447Y-56361579D01*
X110109000Y-56042609D01*
X110109000Y-55717391D01*
X110172447Y-55398421D01*
X110296903Y-55097958D01*
X110477585Y-54827549D01*
X110707549Y-54597585D01*
X110977958Y-54416903D01*
X111278421Y-54292447D01*
X111384744Y-54271298D01*
X111597389Y-54229000D01*
X111922611Y-54229000D01*
X112135256Y-54271298D01*
X112135256Y-54271298D01*
G37*
G36*
X91815256Y-54271298D02*
G01*
X91921579Y-54292447D01*
X92222042Y-54416903D01*
X92492451Y-54597585D01*
X92722415Y-54827549D01*
X92903097Y-55097958D01*
X93027553Y-55398421D01*
X93091000Y-55717391D01*
X93091000Y-56042609D01*
X93027553Y-56361579D01*
X92903097Y-56662042D01*
X92722415Y-56932451D01*
X92492451Y-57162415D01*
X92222042Y-57343097D01*
X91921579Y-57467553D01*
X91815256Y-57488702D01*
X91602611Y-57531000D01*
X91277389Y-57531000D01*
X91064744Y-57488702D01*
X90958421Y-57467553D01*
X90657958Y-57343097D01*
X90387549Y-57162415D01*
X90157585Y-56932451D01*
X89976903Y-56662042D01*
X89852447Y-56361579D01*
X89789000Y-56042609D01*
X89789000Y-55717391D01*
X89852447Y-55398421D01*
X89976903Y-55097958D01*
X90157585Y-54827549D01*
X90387549Y-54597585D01*
X90657958Y-54416903D01*
X90958421Y-54292447D01*
X91064744Y-54271298D01*
X91277389Y-54229000D01*
X91602611Y-54229000D01*
X91815256Y-54271298D01*
X91815256Y-54271298D01*
G37*
G36*
X102013473Y-48836413D02*
G01*
X102109040Y-48845825D01*
X102354280Y-48920218D01*
X102580294Y-49041025D01*
X102631899Y-49083376D01*
X102778397Y-49203603D01*
X102898624Y-49350101D01*
X102940975Y-49401706D01*
X103061782Y-49627720D01*
X103136175Y-49872960D01*
X103161294Y-50128000D01*
X103136175Y-50383040D01*
X103061782Y-50628280D01*
X102940975Y-50854294D01*
X102898624Y-50905899D01*
X102778397Y-51052397D01*
X102631899Y-51172624D01*
X102580294Y-51214975D01*
X102354280Y-51335782D01*
X102109040Y-51410175D01*
X102013473Y-51419587D01*
X101917906Y-51429000D01*
X101790094Y-51429000D01*
X101694527Y-51419587D01*
X101598960Y-51410175D01*
X101353720Y-51335782D01*
X101127706Y-51214975D01*
X101076101Y-51172624D01*
X100929603Y-51052397D01*
X100809376Y-50905899D01*
X100767025Y-50854294D01*
X100646218Y-50628280D01*
X100571825Y-50383040D01*
X100546706Y-50128000D01*
X100571825Y-49872960D01*
X100646218Y-49627720D01*
X100767025Y-49401706D01*
X100809376Y-49350101D01*
X100929603Y-49203603D01*
X101076101Y-49083376D01*
X101127706Y-49041025D01*
X101353720Y-48920218D01*
X101598960Y-48845825D01*
X101694528Y-48836412D01*
X101790094Y-48827000D01*
X101917906Y-48827000D01*
X102013473Y-48836413D01*
X102013473Y-48836413D01*
G37*
G36*
X108013473Y-44936413D02*
G01*
X108109040Y-44945825D01*
X108354280Y-45020218D01*
X108580294Y-45141025D01*
X108631899Y-45183376D01*
X108778397Y-45303603D01*
X108898624Y-45450101D01*
X108940975Y-45501706D01*
X109061782Y-45727720D01*
X109136175Y-45972960D01*
X109161294Y-46228000D01*
X109136175Y-46483040D01*
X109061782Y-46728280D01*
X108940975Y-46954294D01*
X108898624Y-47005899D01*
X108778397Y-47152397D01*
X108631899Y-47272624D01*
X108580294Y-47314975D01*
X108354280Y-47435782D01*
X108109040Y-47510175D01*
X108013472Y-47519588D01*
X107917906Y-47529000D01*
X107790094Y-47529000D01*
X107694528Y-47519588D01*
X107598960Y-47510175D01*
X107353720Y-47435782D01*
X107127706Y-47314975D01*
X107076101Y-47272624D01*
X106929603Y-47152397D01*
X106809376Y-47005899D01*
X106767025Y-46954294D01*
X106646218Y-46728280D01*
X106571825Y-46483040D01*
X106546706Y-46228000D01*
X106571825Y-45972960D01*
X106646218Y-45727720D01*
X106767025Y-45501706D01*
X106809376Y-45450101D01*
X106929603Y-45303603D01*
X107076101Y-45183376D01*
X107127706Y-45141025D01*
X107353720Y-45020218D01*
X107598960Y-44945825D01*
X107694527Y-44936413D01*
X107790094Y-44927000D01*
X107917906Y-44927000D01*
X108013473Y-44936413D01*
X108013473Y-44936413D01*
G37*
G36*
X96013473Y-44936413D02*
G01*
X96109040Y-44945825D01*
X96354280Y-45020218D01*
X96580294Y-45141025D01*
X96631899Y-45183376D01*
X96778397Y-45303603D01*
X96898624Y-45450101D01*
X96940975Y-45501706D01*
X97061782Y-45727720D01*
X97136175Y-45972960D01*
X97161294Y-46228000D01*
X97136175Y-46483040D01*
X97061782Y-46728280D01*
X96940975Y-46954294D01*
X96898624Y-47005899D01*
X96778397Y-47152397D01*
X96631899Y-47272624D01*
X96580294Y-47314975D01*
X96354280Y-47435782D01*
X96109040Y-47510175D01*
X96013472Y-47519588D01*
X95917906Y-47529000D01*
X95790094Y-47529000D01*
X95694528Y-47519588D01*
X95598960Y-47510175D01*
X95353720Y-47435782D01*
X95127706Y-47314975D01*
X95076101Y-47272624D01*
X94929603Y-47152397D01*
X94809376Y-47005899D01*
X94767025Y-46954294D01*
X94646218Y-46728280D01*
X94571825Y-46483040D01*
X94546706Y-46228000D01*
X94571825Y-45972960D01*
X94646218Y-45727720D01*
X94767025Y-45501706D01*
X94809376Y-45450101D01*
X94929603Y-45303603D01*
X95076101Y-45183376D01*
X95127706Y-45141025D01*
X95353720Y-45020218D01*
X95598960Y-44945825D01*
X95694527Y-44936413D01*
X95790094Y-44927000D01*
X95917906Y-44927000D01*
X96013473Y-44936413D01*
X96013473Y-44936413D01*
G37*
G36*
X106256113Y-40693773D02*
G01*
X106351680Y-40703185D01*
X106596920Y-40777578D01*
X106822934Y-40898385D01*
X106874539Y-40940736D01*
X107021037Y-41060963D01*
X107096073Y-41152396D01*
X107183615Y-41259066D01*
X107304422Y-41485080D01*
X107378815Y-41730320D01*
X107403934Y-41985360D01*
X107378815Y-42240400D01*
X107304422Y-42485640D01*
X107183615Y-42711654D01*
X107141264Y-42763259D01*
X107021037Y-42909757D01*
X106874539Y-43029984D01*
X106822934Y-43072335D01*
X106596920Y-43193142D01*
X106351680Y-43267535D01*
X106256112Y-43276948D01*
X106160546Y-43286360D01*
X106032734Y-43286360D01*
X105937168Y-43276948D01*
X105841600Y-43267535D01*
X105596360Y-43193142D01*
X105370346Y-43072335D01*
X105318741Y-43029984D01*
X105172243Y-42909757D01*
X105052016Y-42763259D01*
X105009665Y-42711654D01*
X104888858Y-42485640D01*
X104814465Y-42240400D01*
X104789346Y-41985360D01*
X104814465Y-41730320D01*
X104888858Y-41485080D01*
X105009665Y-41259066D01*
X105097207Y-41152396D01*
X105172243Y-41060963D01*
X105318741Y-40940736D01*
X105370346Y-40898385D01*
X105596360Y-40777578D01*
X105841600Y-40703185D01*
X105937167Y-40693773D01*
X106032734Y-40684360D01*
X106160546Y-40684360D01*
X106256113Y-40693773D01*
X106256113Y-40693773D01*
G37*
G36*
X97770833Y-40693773D02*
G01*
X97866400Y-40703185D01*
X98111640Y-40777578D01*
X98337654Y-40898385D01*
X98389259Y-40940736D01*
X98535757Y-41060963D01*
X98610793Y-41152396D01*
X98698335Y-41259066D01*
X98819142Y-41485080D01*
X98893535Y-41730320D01*
X98918654Y-41985360D01*
X98893535Y-42240400D01*
X98819142Y-42485640D01*
X98698335Y-42711654D01*
X98655984Y-42763259D01*
X98535757Y-42909757D01*
X98389259Y-43029984D01*
X98337654Y-43072335D01*
X98111640Y-43193142D01*
X97866400Y-43267535D01*
X97770832Y-43276948D01*
X97675266Y-43286360D01*
X97547454Y-43286360D01*
X97451888Y-43276948D01*
X97356320Y-43267535D01*
X97111080Y-43193142D01*
X96885066Y-43072335D01*
X96833461Y-43029984D01*
X96686963Y-42909757D01*
X96566736Y-42763259D01*
X96524385Y-42711654D01*
X96403578Y-42485640D01*
X96329185Y-42240400D01*
X96304066Y-41985360D01*
X96329185Y-41730320D01*
X96403578Y-41485080D01*
X96524385Y-41259066D01*
X96611927Y-41152396D01*
X96686963Y-41060963D01*
X96833461Y-40940736D01*
X96885066Y-40898385D01*
X97111080Y-40777578D01*
X97356320Y-40703185D01*
X97451887Y-40693773D01*
X97547454Y-40684360D01*
X97675266Y-40684360D01*
X97770833Y-40693773D01*
X97770833Y-40693773D01*
G37*
G36*
X102013473Y-38936413D02*
G01*
X102109040Y-38945825D01*
X102354280Y-39020218D01*
X102580294Y-39141025D01*
X102631899Y-39183376D01*
X102778397Y-39303603D01*
X102898624Y-39450101D01*
X102940975Y-39501706D01*
X103061782Y-39727720D01*
X103136175Y-39972960D01*
X103161294Y-40228000D01*
X103136175Y-40483040D01*
X103061782Y-40728280D01*
X102940975Y-40954294D01*
X102898624Y-41005899D01*
X102778397Y-41152397D01*
X102648419Y-41259066D01*
X102580294Y-41314975D01*
X102354280Y-41435782D01*
X102109040Y-41510175D01*
X102013472Y-41519588D01*
X101917906Y-41529000D01*
X101790094Y-41529000D01*
X101694528Y-41519588D01*
X101598960Y-41510175D01*
X101353720Y-41435782D01*
X101127706Y-41314975D01*
X101059581Y-41259066D01*
X100929603Y-41152397D01*
X100809376Y-41005899D01*
X100767025Y-40954294D01*
X100646218Y-40728280D01*
X100571825Y-40483040D01*
X100546706Y-40228000D01*
X100571825Y-39972960D01*
X100646218Y-39727720D01*
X100767025Y-39501706D01*
X100809376Y-39450101D01*
X100929603Y-39303603D01*
X101076101Y-39183376D01*
X101127706Y-39141025D01*
X101353720Y-39020218D01*
X101598960Y-38945825D01*
X101694527Y-38936413D01*
X101790094Y-38927000D01*
X101917906Y-38927000D01*
X102013473Y-38936413D01*
X102013473Y-38936413D01*
G37*
G36*
X91815256Y-36491298D02*
G01*
X91921579Y-36512447D01*
X92222042Y-36636903D01*
X92492451Y-36817585D01*
X92722415Y-37047549D01*
X92903097Y-37317958D01*
X93027553Y-37618421D01*
X93091000Y-37937391D01*
X93091000Y-38262609D01*
X93027553Y-38581579D01*
X92903097Y-38882042D01*
X92722415Y-39152451D01*
X92492451Y-39382415D01*
X92222042Y-39563097D01*
X91921579Y-39687553D01*
X91815256Y-39708702D01*
X91602611Y-39751000D01*
X91277389Y-39751000D01*
X91064744Y-39708702D01*
X90958421Y-39687553D01*
X90657958Y-39563097D01*
X90387549Y-39382415D01*
X90157585Y-39152451D01*
X89976903Y-38882042D01*
X89852447Y-38581579D01*
X89789000Y-38262609D01*
X89789000Y-37937391D01*
X89852447Y-37618421D01*
X89976903Y-37317958D01*
X90157585Y-37047549D01*
X90387549Y-36817585D01*
X90657958Y-36636903D01*
X90958421Y-36512447D01*
X91064744Y-36491298D01*
X91277389Y-36449000D01*
X91602611Y-36449000D01*
X91815256Y-36491298D01*
X91815256Y-36491298D01*
G37*
G36*
X112135256Y-36491298D02*
G01*
X112241579Y-36512447D01*
X112542042Y-36636903D01*
X112812451Y-36817585D01*
X113042415Y-37047549D01*
X113223097Y-37317958D01*
X113347553Y-37618421D01*
X113411000Y-37937391D01*
X113411000Y-38262609D01*
X113347553Y-38581579D01*
X113223097Y-38882042D01*
X113042415Y-39152451D01*
X112812451Y-39382415D01*
X112542042Y-39563097D01*
X112241579Y-39687553D01*
X112135256Y-39708702D01*
X111922611Y-39751000D01*
X111597389Y-39751000D01*
X111384744Y-39708702D01*
X111278421Y-39687553D01*
X110977958Y-39563097D01*
X110707549Y-39382415D01*
X110477585Y-39152451D01*
X110296903Y-38882042D01*
X110172447Y-38581579D01*
X110109000Y-38262609D01*
X110109000Y-37937391D01*
X110172447Y-37618421D01*
X110296903Y-37317958D01*
X110477585Y-37047549D01*
X110707549Y-36817585D01*
X110977958Y-36636903D01*
X111278421Y-36512447D01*
X111384744Y-36491298D01*
X111597389Y-36449000D01*
X111922611Y-36449000D01*
X112135256Y-36491298D01*
X112135256Y-36491298D01*
G37*
G36*
X95629591Y-33323085D02*
G01*
X95663569Y-33333393D01*
X95694890Y-33350134D01*
X95722339Y-33372661D01*
X95744866Y-33400110D01*
X95761607Y-33431431D01*
X95771915Y-33465409D01*
X95776000Y-33506890D01*
X95776000Y-34108110D01*
X95771915Y-34149591D01*
X95761607Y-34183569D01*
X95744866Y-34214890D01*
X95722339Y-34242339D01*
X95694890Y-34264866D01*
X95663569Y-34281607D01*
X95629591Y-34291915D01*
X95588110Y-34296000D01*
X94911890Y-34296000D01*
X94870409Y-34291915D01*
X94836431Y-34281607D01*
X94805110Y-34264866D01*
X94777661Y-34242339D01*
X94755134Y-34214890D01*
X94738393Y-34183569D01*
X94728085Y-34149591D01*
X94724000Y-34108110D01*
X94724000Y-33506890D01*
X94728085Y-33465409D01*
X94738393Y-33431431D01*
X94755134Y-33400110D01*
X94777661Y-33372661D01*
X94805110Y-33350134D01*
X94836431Y-33333393D01*
X94870409Y-33323085D01*
X94911890Y-33319000D01*
X95588110Y-33319000D01*
X95629591Y-33323085D01*
X95629591Y-33323085D01*
G37*
G36*
X107313591Y-33323085D02*
G01*
X107347569Y-33333393D01*
X107378890Y-33350134D01*
X107406339Y-33372661D01*
X107428866Y-33400110D01*
X107445607Y-33431431D01*
X107455915Y-33465409D01*
X107460000Y-33506890D01*
X107460000Y-34108110D01*
X107455915Y-34149591D01*
X107445607Y-34183569D01*
X107428866Y-34214890D01*
X107406339Y-34242339D01*
X107378890Y-34264866D01*
X107347569Y-34281607D01*
X107313591Y-34291915D01*
X107272110Y-34296000D01*
X106595890Y-34296000D01*
X106554409Y-34291915D01*
X106520431Y-34281607D01*
X106489110Y-34264866D01*
X106461661Y-34242339D01*
X106439134Y-34214890D01*
X106422393Y-34183569D01*
X106412085Y-34149591D01*
X106408000Y-34108110D01*
X106408000Y-33506890D01*
X106412085Y-33465409D01*
X106422393Y-33431431D01*
X106439134Y-33400110D01*
X106461661Y-33372661D01*
X106489110Y-33350134D01*
X106520431Y-33333393D01*
X106554409Y-33323085D01*
X106595890Y-33319000D01*
X107272110Y-33319000D01*
X107313591Y-33323085D01*
X107313591Y-33323085D01*
G37*
G36*
X101471591Y-33323085D02*
G01*
X101505569Y-33333393D01*
X101536890Y-33350134D01*
X101564339Y-33372661D01*
X101586866Y-33400110D01*
X101603607Y-33431431D01*
X101613915Y-33465409D01*
X101618000Y-33506890D01*
X101618000Y-34108110D01*
X101613915Y-34149591D01*
X101603607Y-34183569D01*
X101586866Y-34214890D01*
X101564339Y-34242339D01*
X101536890Y-34264866D01*
X101505569Y-34281607D01*
X101471591Y-34291915D01*
X101430110Y-34296000D01*
X100753890Y-34296000D01*
X100712409Y-34291915D01*
X100678431Y-34281607D01*
X100647110Y-34264866D01*
X100619661Y-34242339D01*
X100597134Y-34214890D01*
X100580393Y-34183569D01*
X100570085Y-34149591D01*
X100566000Y-34108110D01*
X100566000Y-33506890D01*
X100570085Y-33465409D01*
X100580393Y-33431431D01*
X100597134Y-33400110D01*
X100619661Y-33372661D01*
X100647110Y-33350134D01*
X100678431Y-33333393D01*
X100712409Y-33323085D01*
X100753890Y-33319000D01*
X101430110Y-33319000D01*
X101471591Y-33323085D01*
X101471591Y-33323085D01*
G37*
G36*
X110099000Y-33157000D02*
G01*
X109357000Y-33157000D01*
X109357000Y-31055000D01*
X110099000Y-31055000D01*
X110099000Y-33157000D01*
X110099000Y-33157000D01*
G37*
G36*
X92700000Y-33157000D02*
G01*
X91958000Y-33157000D01*
X91958000Y-31055000D01*
X92700000Y-31055000D01*
X92700000Y-33157000D01*
X92700000Y-33157000D01*
G37*
G36*
X93970000Y-33157000D02*
G01*
X93228000Y-33157000D01*
X93228000Y-31055000D01*
X93970000Y-31055000D01*
X93970000Y-33157000D01*
X93970000Y-33157000D01*
G37*
G36*
X108829000Y-33157000D02*
G01*
X108087000Y-33157000D01*
X108087000Y-31055000D01*
X108829000Y-31055000D01*
X108829000Y-33157000D01*
X108829000Y-33157000D01*
G37*
G36*
X102987000Y-33157000D02*
G01*
X102245000Y-33157000D01*
X102245000Y-31055000D01*
X102987000Y-31055000D01*
X102987000Y-33157000D01*
X102987000Y-33157000D01*
G37*
G36*
X104257000Y-33157000D02*
G01*
X103515000Y-33157000D01*
X103515000Y-31055000D01*
X104257000Y-31055000D01*
X104257000Y-33157000D01*
X104257000Y-33157000D01*
G37*
G36*
X99685000Y-33157000D02*
G01*
X98943000Y-33157000D01*
X98943000Y-31055000D01*
X99685000Y-31055000D01*
X99685000Y-33157000D01*
X99685000Y-33157000D01*
G37*
G36*
X98415000Y-33157000D02*
G01*
X97673000Y-33157000D01*
X97673000Y-31055000D01*
X98415000Y-31055000D01*
X98415000Y-33157000D01*
X98415000Y-33157000D01*
G37*
G36*
X97145000Y-33157000D02*
G01*
X96403000Y-33157000D01*
X96403000Y-31055000D01*
X97145000Y-31055000D01*
X97145000Y-33157000D01*
X97145000Y-33157000D01*
G37*
G36*
X111369000Y-33157000D02*
G01*
X110627000Y-33157000D01*
X110627000Y-31055000D01*
X111369000Y-31055000D01*
X111369000Y-33157000D01*
X111369000Y-33157000D01*
G37*
G36*
X105527000Y-33157000D02*
G01*
X104785000Y-33157000D01*
X104785000Y-31055000D01*
X105527000Y-31055000D01*
X105527000Y-33157000D01*
X105527000Y-33157000D01*
G37*
G36*
X107313591Y-31748085D02*
G01*
X107347569Y-31758393D01*
X107378890Y-31775134D01*
X107406339Y-31797661D01*
X107428866Y-31825110D01*
X107445607Y-31856431D01*
X107455915Y-31890409D01*
X107460000Y-31931890D01*
X107460000Y-32533110D01*
X107455915Y-32574591D01*
X107445607Y-32608569D01*
X107428866Y-32639890D01*
X107406339Y-32667339D01*
X107378890Y-32689866D01*
X107347569Y-32706607D01*
X107313591Y-32716915D01*
X107272110Y-32721000D01*
X106595890Y-32721000D01*
X106554409Y-32716915D01*
X106520431Y-32706607D01*
X106489110Y-32689866D01*
X106461661Y-32667339D01*
X106439134Y-32639890D01*
X106422393Y-32608569D01*
X106412085Y-32574591D01*
X106408000Y-32533110D01*
X106408000Y-31931890D01*
X106412085Y-31890409D01*
X106422393Y-31856431D01*
X106439134Y-31825110D01*
X106461661Y-31797661D01*
X106489110Y-31775134D01*
X106520431Y-31758393D01*
X106554409Y-31748085D01*
X106595890Y-31744000D01*
X107272110Y-31744000D01*
X107313591Y-31748085D01*
X107313591Y-31748085D01*
G37*
G36*
X95629591Y-31748085D02*
G01*
X95663569Y-31758393D01*
X95694890Y-31775134D01*
X95722339Y-31797661D01*
X95744866Y-31825110D01*
X95761607Y-31856431D01*
X95771915Y-31890409D01*
X95776000Y-31931890D01*
X95776000Y-32533110D01*
X95771915Y-32574591D01*
X95761607Y-32608569D01*
X95744866Y-32639890D01*
X95722339Y-32667339D01*
X95694890Y-32689866D01*
X95663569Y-32706607D01*
X95629591Y-32716915D01*
X95588110Y-32721000D01*
X94911890Y-32721000D01*
X94870409Y-32716915D01*
X94836431Y-32706607D01*
X94805110Y-32689866D01*
X94777661Y-32667339D01*
X94755134Y-32639890D01*
X94738393Y-32608569D01*
X94728085Y-32574591D01*
X94724000Y-32533110D01*
X94724000Y-31931890D01*
X94728085Y-31890409D01*
X94738393Y-31856431D01*
X94755134Y-31825110D01*
X94777661Y-31797661D01*
X94805110Y-31775134D01*
X94836431Y-31758393D01*
X94870409Y-31748085D01*
X94911890Y-31744000D01*
X95588110Y-31744000D01*
X95629591Y-31748085D01*
X95629591Y-31748085D01*
G37*
G36*
X101471591Y-31748085D02*
G01*
X101505569Y-31758393D01*
X101536890Y-31775134D01*
X101564339Y-31797661D01*
X101586866Y-31825110D01*
X101603607Y-31856431D01*
X101613915Y-31890409D01*
X101618000Y-31931890D01*
X101618000Y-32533110D01*
X101613915Y-32574591D01*
X101603607Y-32608569D01*
X101586866Y-32639890D01*
X101564339Y-32667339D01*
X101536890Y-32689866D01*
X101505569Y-32706607D01*
X101471591Y-32716915D01*
X101430110Y-32721000D01*
X100753890Y-32721000D01*
X100712409Y-32716915D01*
X100678431Y-32706607D01*
X100647110Y-32689866D01*
X100619661Y-32667339D01*
X100597134Y-32639890D01*
X100580393Y-32608569D01*
X100570085Y-32574591D01*
X100566000Y-32533110D01*
X100566000Y-31931890D01*
X100570085Y-31890409D01*
X100580393Y-31856431D01*
X100597134Y-31825110D01*
X100619661Y-31797661D01*
X100647110Y-31775134D01*
X100678431Y-31758393D01*
X100712409Y-31748085D01*
X100753890Y-31744000D01*
X101430110Y-31744000D01*
X101471591Y-31748085D01*
X101471591Y-31748085D01*
G37*
G36*
X95629591Y-27227085D02*
G01*
X95663569Y-27237393D01*
X95694890Y-27254134D01*
X95722339Y-27276661D01*
X95744866Y-27304110D01*
X95761607Y-27335431D01*
X95771915Y-27369409D01*
X95776000Y-27410890D01*
X95776000Y-28012110D01*
X95771915Y-28053591D01*
X95761607Y-28087569D01*
X95744866Y-28118890D01*
X95722339Y-28146339D01*
X95694890Y-28168866D01*
X95663569Y-28185607D01*
X95629591Y-28195915D01*
X95588110Y-28200000D01*
X94911890Y-28200000D01*
X94870409Y-28195915D01*
X94836431Y-28185607D01*
X94805110Y-28168866D01*
X94777661Y-28146339D01*
X94755134Y-28118890D01*
X94738393Y-28087569D01*
X94728085Y-28053591D01*
X94724000Y-28012110D01*
X94724000Y-27410890D01*
X94728085Y-27369409D01*
X94738393Y-27335431D01*
X94755134Y-27304110D01*
X94777661Y-27276661D01*
X94805110Y-27254134D01*
X94836431Y-27237393D01*
X94870409Y-27227085D01*
X94911890Y-27223000D01*
X95588110Y-27223000D01*
X95629591Y-27227085D01*
X95629591Y-27227085D01*
G37*
G36*
X101471591Y-27227085D02*
G01*
X101505569Y-27237393D01*
X101536890Y-27254134D01*
X101564339Y-27276661D01*
X101586866Y-27304110D01*
X101603607Y-27335431D01*
X101613915Y-27369409D01*
X101618000Y-27410890D01*
X101618000Y-28012110D01*
X101613915Y-28053591D01*
X101603607Y-28087569D01*
X101586866Y-28118890D01*
X101564339Y-28146339D01*
X101536890Y-28168866D01*
X101505569Y-28185607D01*
X101471591Y-28195915D01*
X101430110Y-28200000D01*
X100753890Y-28200000D01*
X100712409Y-28195915D01*
X100678431Y-28185607D01*
X100647110Y-28168866D01*
X100619661Y-28146339D01*
X100597134Y-28118890D01*
X100580393Y-28087569D01*
X100570085Y-28053591D01*
X100566000Y-28012110D01*
X100566000Y-27410890D01*
X100570085Y-27369409D01*
X100580393Y-27335431D01*
X100597134Y-27304110D01*
X100619661Y-27276661D01*
X100647110Y-27254134D01*
X100678431Y-27237393D01*
X100712409Y-27227085D01*
X100753890Y-27223000D01*
X101430110Y-27223000D01*
X101471591Y-27227085D01*
X101471591Y-27227085D01*
G37*
G36*
X107313591Y-27201585D02*
G01*
X107347569Y-27211893D01*
X107378890Y-27228634D01*
X107406339Y-27251161D01*
X107428866Y-27278610D01*
X107445607Y-27309931D01*
X107455915Y-27343909D01*
X107460000Y-27385390D01*
X107460000Y-27986610D01*
X107455915Y-28028091D01*
X107445607Y-28062069D01*
X107428866Y-28093390D01*
X107406339Y-28120839D01*
X107378890Y-28143366D01*
X107347569Y-28160107D01*
X107313591Y-28170415D01*
X107272110Y-28174500D01*
X106595890Y-28174500D01*
X106554409Y-28170415D01*
X106520431Y-28160107D01*
X106489110Y-28143366D01*
X106461661Y-28120839D01*
X106439134Y-28093390D01*
X106422393Y-28062069D01*
X106412085Y-28028091D01*
X106408000Y-27986610D01*
X106408000Y-27385390D01*
X106412085Y-27343909D01*
X106422393Y-27309931D01*
X106439134Y-27278610D01*
X106461661Y-27251161D01*
X106489110Y-27228634D01*
X106520431Y-27211893D01*
X106554409Y-27201585D01*
X106595890Y-27197500D01*
X107272110Y-27197500D01*
X107313591Y-27201585D01*
X107313591Y-27201585D01*
G37*
G36*
X108829000Y-26857000D02*
G01*
X108087000Y-26857000D01*
X108087000Y-24755000D01*
X108829000Y-24755000D01*
X108829000Y-26857000D01*
X108829000Y-26857000D01*
G37*
G36*
X93970000Y-26857000D02*
G01*
X93228000Y-26857000D01*
X93228000Y-24755000D01*
X93970000Y-24755000D01*
X93970000Y-26857000D01*
X93970000Y-26857000D01*
G37*
G36*
X111369000Y-26857000D02*
G01*
X110627000Y-26857000D01*
X110627000Y-24755000D01*
X111369000Y-24755000D01*
X111369000Y-26857000D01*
X111369000Y-26857000D01*
G37*
G36*
X105527000Y-26857000D02*
G01*
X104785000Y-26857000D01*
X104785000Y-24755000D01*
X105527000Y-24755000D01*
X105527000Y-26857000D01*
X105527000Y-26857000D01*
G37*
G36*
X110099000Y-26857000D02*
G01*
X109357000Y-26857000D01*
X109357000Y-24755000D01*
X110099000Y-24755000D01*
X110099000Y-26857000D01*
X110099000Y-26857000D01*
G37*
G36*
X98415000Y-26857000D02*
G01*
X97673000Y-26857000D01*
X97673000Y-24755000D01*
X98415000Y-24755000D01*
X98415000Y-26857000D01*
X98415000Y-26857000D01*
G37*
G36*
X97145000Y-26857000D02*
G01*
X96403000Y-26857000D01*
X96403000Y-24755000D01*
X97145000Y-24755000D01*
X97145000Y-26857000D01*
X97145000Y-26857000D01*
G37*
G36*
X102987000Y-26857000D02*
G01*
X102245000Y-26857000D01*
X102245000Y-24755000D01*
X102987000Y-24755000D01*
X102987000Y-26857000D01*
X102987000Y-26857000D01*
G37*
G36*
X92700000Y-26857000D02*
G01*
X91958000Y-26857000D01*
X91958000Y-24755000D01*
X92700000Y-24755000D01*
X92700000Y-26857000D01*
X92700000Y-26857000D01*
G37*
G36*
X104257000Y-26857000D02*
G01*
X103515000Y-26857000D01*
X103515000Y-24755000D01*
X104257000Y-24755000D01*
X104257000Y-26857000D01*
X104257000Y-26857000D01*
G37*
G36*
X99685000Y-26857000D02*
G01*
X98943000Y-26857000D01*
X98943000Y-24755000D01*
X99685000Y-24755000D01*
X99685000Y-26857000D01*
X99685000Y-26857000D01*
G37*
G36*
X101471591Y-25652085D02*
G01*
X101505569Y-25662393D01*
X101536890Y-25679134D01*
X101564339Y-25701661D01*
X101586866Y-25729110D01*
X101603607Y-25760431D01*
X101613915Y-25794409D01*
X101618000Y-25835890D01*
X101618000Y-26437110D01*
X101613915Y-26478591D01*
X101603607Y-26512569D01*
X101586866Y-26543890D01*
X101564339Y-26571339D01*
X101536890Y-26593866D01*
X101505569Y-26610607D01*
X101471591Y-26620915D01*
X101430110Y-26625000D01*
X100753890Y-26625000D01*
X100712409Y-26620915D01*
X100678431Y-26610607D01*
X100647110Y-26593866D01*
X100619661Y-26571339D01*
X100597134Y-26543890D01*
X100580393Y-26512569D01*
X100570085Y-26478591D01*
X100566000Y-26437110D01*
X100566000Y-25835890D01*
X100570085Y-25794409D01*
X100580393Y-25760431D01*
X100597134Y-25729110D01*
X100619661Y-25701661D01*
X100647110Y-25679134D01*
X100678431Y-25662393D01*
X100712409Y-25652085D01*
X100753890Y-25648000D01*
X101430110Y-25648000D01*
X101471591Y-25652085D01*
X101471591Y-25652085D01*
G37*
G36*
X95629591Y-25652085D02*
G01*
X95663569Y-25662393D01*
X95694890Y-25679134D01*
X95722339Y-25701661D01*
X95744866Y-25729110D01*
X95761607Y-25760431D01*
X95771915Y-25794409D01*
X95776000Y-25835890D01*
X95776000Y-26437110D01*
X95771915Y-26478591D01*
X95761607Y-26512569D01*
X95744866Y-26543890D01*
X95722339Y-26571339D01*
X95694890Y-26593866D01*
X95663569Y-26610607D01*
X95629591Y-26620915D01*
X95588110Y-26625000D01*
X94911890Y-26625000D01*
X94870409Y-26620915D01*
X94836431Y-26610607D01*
X94805110Y-26593866D01*
X94777661Y-26571339D01*
X94755134Y-26543890D01*
X94738393Y-26512569D01*
X94728085Y-26478591D01*
X94724000Y-26437110D01*
X94724000Y-25835890D01*
X94728085Y-25794409D01*
X94738393Y-25760431D01*
X94755134Y-25729110D01*
X94777661Y-25701661D01*
X94805110Y-25679134D01*
X94836431Y-25662393D01*
X94870409Y-25652085D01*
X94911890Y-25648000D01*
X95588110Y-25648000D01*
X95629591Y-25652085D01*
X95629591Y-25652085D01*
G37*
G36*
X107313591Y-25626585D02*
G01*
X107347569Y-25636893D01*
X107378890Y-25653634D01*
X107406339Y-25676161D01*
X107428866Y-25703610D01*
X107445607Y-25734931D01*
X107455915Y-25768909D01*
X107460000Y-25810390D01*
X107460000Y-26411610D01*
X107455915Y-26453091D01*
X107445607Y-26487069D01*
X107428866Y-26518390D01*
X107406339Y-26545839D01*
X107378890Y-26568366D01*
X107347569Y-26585107D01*
X107313591Y-26595415D01*
X107272110Y-26599500D01*
X106595890Y-26599500D01*
X106554409Y-26595415D01*
X106520431Y-26585107D01*
X106489110Y-26568366D01*
X106461661Y-26545839D01*
X106439134Y-26518390D01*
X106422393Y-26487069D01*
X106412085Y-26453091D01*
X106408000Y-26411610D01*
X106408000Y-25810390D01*
X106412085Y-25768909D01*
X106422393Y-25734931D01*
X106439134Y-25703610D01*
X106461661Y-25676161D01*
X106489110Y-25653634D01*
X106520431Y-25636893D01*
X106554409Y-25626585D01*
X106595890Y-25622500D01*
X107272110Y-25622500D01*
X107313591Y-25626585D01*
X107313591Y-25626585D01*
G37*
G36*
X94068091Y-23100085D02*
G01*
X94102069Y-23110393D01*
X94133390Y-23127134D01*
X94160839Y-23149661D01*
X94183366Y-23177110D01*
X94200107Y-23208431D01*
X94210415Y-23242409D01*
X94214500Y-23283890D01*
X94214500Y-23960110D01*
X94210415Y-24001591D01*
X94200107Y-24035569D01*
X94183366Y-24066890D01*
X94160839Y-24094339D01*
X94133390Y-24116866D01*
X94102069Y-24133607D01*
X94068091Y-24143915D01*
X94026610Y-24148000D01*
X93425390Y-24148000D01*
X93383909Y-24143915D01*
X93349931Y-24133607D01*
X93318610Y-24116866D01*
X93291161Y-24094339D01*
X93268634Y-24066890D01*
X93251893Y-24035569D01*
X93241585Y-24001591D01*
X93237500Y-23960110D01*
X93237500Y-23283890D01*
X93241585Y-23242409D01*
X93251893Y-23208431D01*
X93268634Y-23177110D01*
X93291161Y-23149661D01*
X93318610Y-23127134D01*
X93349931Y-23110393D01*
X93383909Y-23100085D01*
X93425390Y-23096000D01*
X94026610Y-23096000D01*
X94068091Y-23100085D01*
X94068091Y-23100085D01*
G37*
G36*
X92493091Y-23100085D02*
G01*
X92527069Y-23110393D01*
X92558390Y-23127134D01*
X92585839Y-23149661D01*
X92608366Y-23177110D01*
X92625107Y-23208431D01*
X92635415Y-23242409D01*
X92639500Y-23283890D01*
X92639500Y-23960110D01*
X92635415Y-24001591D01*
X92625107Y-24035569D01*
X92608366Y-24066890D01*
X92585839Y-24094339D01*
X92558390Y-24116866D01*
X92527069Y-24133607D01*
X92493091Y-24143915D01*
X92451610Y-24148000D01*
X91850390Y-24148000D01*
X91808909Y-24143915D01*
X91774931Y-24133607D01*
X91743610Y-24116866D01*
X91716161Y-24094339D01*
X91693634Y-24066890D01*
X91676893Y-24035569D01*
X91666585Y-24001591D01*
X91662500Y-23960110D01*
X91662500Y-23283890D01*
X91666585Y-23242409D01*
X91676893Y-23208431D01*
X91693634Y-23177110D01*
X91716161Y-23149661D01*
X91743610Y-23127134D01*
X91774931Y-23110393D01*
X91808909Y-23100085D01*
X91850390Y-23096000D01*
X92451610Y-23096000D01*
X92493091Y-23100085D01*
X92493091Y-23100085D01*
G37*
G36*
X104250443Y-19425519D02*
G01*
X104316627Y-19432037D01*
X104486466Y-19483557D01*
X104642991Y-19567222D01*
X104678729Y-19596552D01*
X104780186Y-19679814D01*
X104863448Y-19781271D01*
X104892778Y-19817009D01*
X104976443Y-19973534D01*
X105027963Y-20143373D01*
X105045359Y-20320000D01*
X105027963Y-20496627D01*
X104976443Y-20666466D01*
X104892778Y-20822991D01*
X104877746Y-20841307D01*
X104780186Y-20960186D01*
X104678729Y-21043448D01*
X104642991Y-21072778D01*
X104486466Y-21156443D01*
X104316627Y-21207963D01*
X104250442Y-21214482D01*
X104184260Y-21221000D01*
X104095740Y-21221000D01*
X104029558Y-21214482D01*
X103963373Y-21207963D01*
X103793534Y-21156443D01*
X103637009Y-21072778D01*
X103601271Y-21043448D01*
X103499814Y-20960186D01*
X103402254Y-20841307D01*
X103387222Y-20822991D01*
X103303557Y-20666466D01*
X103252037Y-20496627D01*
X103234641Y-20320000D01*
X103252037Y-20143373D01*
X103303557Y-19973534D01*
X103387222Y-19817009D01*
X103416552Y-19781271D01*
X103499814Y-19679814D01*
X103601271Y-19596552D01*
X103637009Y-19567222D01*
X103793534Y-19483557D01*
X103963373Y-19432037D01*
X104029558Y-19425518D01*
X104095740Y-19419000D01*
X104184260Y-19419000D01*
X104250443Y-19425519D01*
X104250443Y-19425519D01*
G37*
G36*
X106790443Y-19425519D02*
G01*
X106856627Y-19432037D01*
X107026466Y-19483557D01*
X107182991Y-19567222D01*
X107218729Y-19596552D01*
X107320186Y-19679814D01*
X107403448Y-19781271D01*
X107432778Y-19817009D01*
X107516443Y-19973534D01*
X107567963Y-20143373D01*
X107585359Y-20320000D01*
X107567963Y-20496627D01*
X107516443Y-20666466D01*
X107432778Y-20822991D01*
X107417746Y-20841307D01*
X107320186Y-20960186D01*
X107218729Y-21043448D01*
X107182991Y-21072778D01*
X107026466Y-21156443D01*
X106856627Y-21207963D01*
X106790442Y-21214482D01*
X106724260Y-21221000D01*
X106635740Y-21221000D01*
X106569558Y-21214482D01*
X106503373Y-21207963D01*
X106333534Y-21156443D01*
X106177009Y-21072778D01*
X106141271Y-21043448D01*
X106039814Y-20960186D01*
X105942254Y-20841307D01*
X105927222Y-20822991D01*
X105843557Y-20666466D01*
X105792037Y-20496627D01*
X105774641Y-20320000D01*
X105792037Y-20143373D01*
X105843557Y-19973534D01*
X105927222Y-19817009D01*
X105956552Y-19781271D01*
X106039814Y-19679814D01*
X106141271Y-19596552D01*
X106177009Y-19567222D01*
X106333534Y-19483557D01*
X106503373Y-19432037D01*
X106569558Y-19425518D01*
X106635740Y-19419000D01*
X106724260Y-19419000D01*
X106790443Y-19425519D01*
X106790443Y-19425519D01*
G37*
G36*
X101710443Y-19425519D02*
G01*
X101776627Y-19432037D01*
X101946466Y-19483557D01*
X102102991Y-19567222D01*
X102138729Y-19596552D01*
X102240186Y-19679814D01*
X102323448Y-19781271D01*
X102352778Y-19817009D01*
X102436443Y-19973534D01*
X102487963Y-20143373D01*
X102505359Y-20320000D01*
X102487963Y-20496627D01*
X102436443Y-20666466D01*
X102352778Y-20822991D01*
X102337746Y-20841307D01*
X102240186Y-20960186D01*
X102138729Y-21043448D01*
X102102991Y-21072778D01*
X101946466Y-21156443D01*
X101776627Y-21207963D01*
X101710442Y-21214482D01*
X101644260Y-21221000D01*
X101555740Y-21221000D01*
X101489558Y-21214482D01*
X101423373Y-21207963D01*
X101253534Y-21156443D01*
X101097009Y-21072778D01*
X101061271Y-21043448D01*
X100959814Y-20960186D01*
X100862254Y-20841307D01*
X100847222Y-20822991D01*
X100763557Y-20666466D01*
X100712037Y-20496627D01*
X100694641Y-20320000D01*
X100712037Y-20143373D01*
X100763557Y-19973534D01*
X100847222Y-19817009D01*
X100876552Y-19781271D01*
X100959814Y-19679814D01*
X101061271Y-19596552D01*
X101097009Y-19567222D01*
X101253534Y-19483557D01*
X101423373Y-19432037D01*
X101489558Y-19425518D01*
X101555740Y-19419000D01*
X101644260Y-19419000D01*
X101710443Y-19425519D01*
X101710443Y-19425519D01*
G37*
G36*
X99170443Y-19425519D02*
G01*
X99236627Y-19432037D01*
X99406466Y-19483557D01*
X99562991Y-19567222D01*
X99598729Y-19596552D01*
X99700186Y-19679814D01*
X99783448Y-19781271D01*
X99812778Y-19817009D01*
X99896443Y-19973534D01*
X99947963Y-20143373D01*
X99965359Y-20320000D01*
X99947963Y-20496627D01*
X99896443Y-20666466D01*
X99812778Y-20822991D01*
X99797746Y-20841307D01*
X99700186Y-20960186D01*
X99598729Y-21043448D01*
X99562991Y-21072778D01*
X99406466Y-21156443D01*
X99236627Y-21207963D01*
X99170442Y-21214482D01*
X99104260Y-21221000D01*
X99015740Y-21221000D01*
X98949558Y-21214482D01*
X98883373Y-21207963D01*
X98713534Y-21156443D01*
X98557009Y-21072778D01*
X98521271Y-21043448D01*
X98419814Y-20960186D01*
X98322254Y-20841307D01*
X98307222Y-20822991D01*
X98223557Y-20666466D01*
X98172037Y-20496627D01*
X98154641Y-20320000D01*
X98172037Y-20143373D01*
X98223557Y-19973534D01*
X98307222Y-19817009D01*
X98336552Y-19781271D01*
X98419814Y-19679814D01*
X98521271Y-19596552D01*
X98557009Y-19567222D01*
X98713534Y-19483557D01*
X98883373Y-19432037D01*
X98949558Y-19425518D01*
X99015740Y-19419000D01*
X99104260Y-19419000D01*
X99170443Y-19425519D01*
X99170443Y-19425519D01*
G37*
G36*
X97421000Y-21221000D02*
G01*
X95619000Y-21221000D01*
X95619000Y-19419000D01*
X97421000Y-19419000D01*
X97421000Y-21221000D01*
X97421000Y-21221000D01*
G37*
G36*
X94347591Y-19798085D02*
G01*
X94381569Y-19808393D01*
X94412890Y-19825134D01*
X94440339Y-19847661D01*
X94462866Y-19875110D01*
X94479607Y-19906431D01*
X94489915Y-19940409D01*
X94494000Y-19981890D01*
X94494000Y-20658110D01*
X94489915Y-20699591D01*
X94479607Y-20733569D01*
X94462866Y-20764890D01*
X94440339Y-20792339D01*
X94412890Y-20814866D01*
X94381569Y-20831607D01*
X94347591Y-20841915D01*
X94306110Y-20846000D01*
X93704890Y-20846000D01*
X93663409Y-20841915D01*
X93629431Y-20831607D01*
X93598110Y-20814866D01*
X93570661Y-20792339D01*
X93548134Y-20764890D01*
X93531393Y-20733569D01*
X93521085Y-20699591D01*
X93517000Y-20658110D01*
X93517000Y-19981890D01*
X93521085Y-19940409D01*
X93531393Y-19906431D01*
X93548134Y-19875110D01*
X93570661Y-19847661D01*
X93598110Y-19825134D01*
X93629431Y-19808393D01*
X93663409Y-19798085D01*
X93704890Y-19794000D01*
X94306110Y-19794000D01*
X94347591Y-19798085D01*
X94347591Y-19798085D01*
G37*
G36*
X92772591Y-19798085D02*
G01*
X92806569Y-19808393D01*
X92837890Y-19825134D01*
X92865339Y-19847661D01*
X92887866Y-19875110D01*
X92904607Y-19906431D01*
X92914915Y-19940409D01*
X92919000Y-19981890D01*
X92919000Y-20658110D01*
X92914915Y-20699591D01*
X92904607Y-20733569D01*
X92887866Y-20764890D01*
X92865339Y-20792339D01*
X92837890Y-20814866D01*
X92806569Y-20831607D01*
X92772591Y-20841915D01*
X92731110Y-20846000D01*
X92129890Y-20846000D01*
X92088409Y-20841915D01*
X92054431Y-20831607D01*
X92023110Y-20814866D01*
X91995661Y-20792339D01*
X91973134Y-20764890D01*
X91956393Y-20733569D01*
X91946085Y-20699591D01*
X91942000Y-20658110D01*
X91942000Y-19981890D01*
X91946085Y-19940409D01*
X91956393Y-19906431D01*
X91973134Y-19875110D01*
X91995661Y-19847661D01*
X92023110Y-19825134D01*
X92054431Y-19808393D01*
X92088409Y-19798085D01*
X92129890Y-19794000D01*
X92731110Y-19794000D01*
X92772591Y-19798085D01*
X92772591Y-19798085D01*
G37*
M02*
