G04 #@! TF.GenerationSoftware,KiCad,Pcbnew,5.1.2-f72e74a~84~ubuntu16.04.1*
G04 #@! TF.CreationDate,2019-07-19T18:17:23+01:00*
G04 #@! TF.ProjectId,DigitalPot_OptoIsolator,44696769-7461-46c5-906f-745f4f70746f,rev?*
G04 #@! TF.SameCoordinates,Original*
G04 #@! TF.FileFunction,Copper,L1,Top*
G04 #@! TF.FilePolarity,Positive*
%FSLAX46Y46*%
G04 Gerber Fmt 4.6, Leading zero omitted, Abs format (unit mm)*
G04 Created by KiCad (PCBNEW 5.1.2-f72e74a~84~ubuntu16.04.1) date 2019-07-19 18:17:23*
%MOMM*%
%LPD*%
G04 APERTURE LIST*
%ADD10O,2.500000X2.500000*%
%ADD11C,0.100000*%
%ADD12C,0.875000*%
%ADD13R,1.700000X1.700000*%
%ADD14O,1.700000X1.700000*%
%ADD15R,0.640000X2.000000*%
%ADD16C,1.200000*%
%ADD17C,0.508000*%
%ADD18C,0.254000*%
G04 APERTURE END LIST*
D10*
X101854000Y-40228000D03*
X106096640Y-41985360D03*
X107854000Y-46228000D03*
X101854000Y-50128000D03*
X95854000Y-46228000D03*
X97611360Y-41985360D03*
D11*
G36*
X93966191Y-23148053D02*
G01*
X93987426Y-23151203D01*
X94008250Y-23156419D01*
X94028462Y-23163651D01*
X94047868Y-23172830D01*
X94066281Y-23183866D01*
X94083524Y-23196654D01*
X94099430Y-23211070D01*
X94113846Y-23226976D01*
X94126634Y-23244219D01*
X94137670Y-23262632D01*
X94146849Y-23282038D01*
X94154081Y-23302250D01*
X94159297Y-23323074D01*
X94162447Y-23344309D01*
X94163500Y-23365750D01*
X94163500Y-23878250D01*
X94162447Y-23899691D01*
X94159297Y-23920926D01*
X94154081Y-23941750D01*
X94146849Y-23961962D01*
X94137670Y-23981368D01*
X94126634Y-23999781D01*
X94113846Y-24017024D01*
X94099430Y-24032930D01*
X94083524Y-24047346D01*
X94066281Y-24060134D01*
X94047868Y-24071170D01*
X94028462Y-24080349D01*
X94008250Y-24087581D01*
X93987426Y-24092797D01*
X93966191Y-24095947D01*
X93944750Y-24097000D01*
X93507250Y-24097000D01*
X93485809Y-24095947D01*
X93464574Y-24092797D01*
X93443750Y-24087581D01*
X93423538Y-24080349D01*
X93404132Y-24071170D01*
X93385719Y-24060134D01*
X93368476Y-24047346D01*
X93352570Y-24032930D01*
X93338154Y-24017024D01*
X93325366Y-23999781D01*
X93314330Y-23981368D01*
X93305151Y-23961962D01*
X93297919Y-23941750D01*
X93292703Y-23920926D01*
X93289553Y-23899691D01*
X93288500Y-23878250D01*
X93288500Y-23365750D01*
X93289553Y-23344309D01*
X93292703Y-23323074D01*
X93297919Y-23302250D01*
X93305151Y-23282038D01*
X93314330Y-23262632D01*
X93325366Y-23244219D01*
X93338154Y-23226976D01*
X93352570Y-23211070D01*
X93368476Y-23196654D01*
X93385719Y-23183866D01*
X93404132Y-23172830D01*
X93423538Y-23163651D01*
X93443750Y-23156419D01*
X93464574Y-23151203D01*
X93485809Y-23148053D01*
X93507250Y-23147000D01*
X93944750Y-23147000D01*
X93966191Y-23148053D01*
X93966191Y-23148053D01*
G37*
D12*
X93726000Y-23622000D03*
D11*
G36*
X92391191Y-23148053D02*
G01*
X92412426Y-23151203D01*
X92433250Y-23156419D01*
X92453462Y-23163651D01*
X92472868Y-23172830D01*
X92491281Y-23183866D01*
X92508524Y-23196654D01*
X92524430Y-23211070D01*
X92538846Y-23226976D01*
X92551634Y-23244219D01*
X92562670Y-23262632D01*
X92571849Y-23282038D01*
X92579081Y-23302250D01*
X92584297Y-23323074D01*
X92587447Y-23344309D01*
X92588500Y-23365750D01*
X92588500Y-23878250D01*
X92587447Y-23899691D01*
X92584297Y-23920926D01*
X92579081Y-23941750D01*
X92571849Y-23961962D01*
X92562670Y-23981368D01*
X92551634Y-23999781D01*
X92538846Y-24017024D01*
X92524430Y-24032930D01*
X92508524Y-24047346D01*
X92491281Y-24060134D01*
X92472868Y-24071170D01*
X92453462Y-24080349D01*
X92433250Y-24087581D01*
X92412426Y-24092797D01*
X92391191Y-24095947D01*
X92369750Y-24097000D01*
X91932250Y-24097000D01*
X91910809Y-24095947D01*
X91889574Y-24092797D01*
X91868750Y-24087581D01*
X91848538Y-24080349D01*
X91829132Y-24071170D01*
X91810719Y-24060134D01*
X91793476Y-24047346D01*
X91777570Y-24032930D01*
X91763154Y-24017024D01*
X91750366Y-23999781D01*
X91739330Y-23981368D01*
X91730151Y-23961962D01*
X91722919Y-23941750D01*
X91717703Y-23920926D01*
X91714553Y-23899691D01*
X91713500Y-23878250D01*
X91713500Y-23365750D01*
X91714553Y-23344309D01*
X91717703Y-23323074D01*
X91722919Y-23302250D01*
X91730151Y-23282038D01*
X91739330Y-23262632D01*
X91750366Y-23244219D01*
X91763154Y-23226976D01*
X91777570Y-23211070D01*
X91793476Y-23196654D01*
X91810719Y-23183866D01*
X91829132Y-23172830D01*
X91848538Y-23163651D01*
X91868750Y-23156419D01*
X91889574Y-23151203D01*
X91910809Y-23148053D01*
X91932250Y-23147000D01*
X92369750Y-23147000D01*
X92391191Y-23148053D01*
X92391191Y-23148053D01*
G37*
D12*
X92151000Y-23622000D03*
D11*
G36*
X107211691Y-31796053D02*
G01*
X107232926Y-31799203D01*
X107253750Y-31804419D01*
X107273962Y-31811651D01*
X107293368Y-31820830D01*
X107311781Y-31831866D01*
X107329024Y-31844654D01*
X107344930Y-31859070D01*
X107359346Y-31874976D01*
X107372134Y-31892219D01*
X107383170Y-31910632D01*
X107392349Y-31930038D01*
X107399581Y-31950250D01*
X107404797Y-31971074D01*
X107407947Y-31992309D01*
X107409000Y-32013750D01*
X107409000Y-32451250D01*
X107407947Y-32472691D01*
X107404797Y-32493926D01*
X107399581Y-32514750D01*
X107392349Y-32534962D01*
X107383170Y-32554368D01*
X107372134Y-32572781D01*
X107359346Y-32590024D01*
X107344930Y-32605930D01*
X107329024Y-32620346D01*
X107311781Y-32633134D01*
X107293368Y-32644170D01*
X107273962Y-32653349D01*
X107253750Y-32660581D01*
X107232926Y-32665797D01*
X107211691Y-32668947D01*
X107190250Y-32670000D01*
X106677750Y-32670000D01*
X106656309Y-32668947D01*
X106635074Y-32665797D01*
X106614250Y-32660581D01*
X106594038Y-32653349D01*
X106574632Y-32644170D01*
X106556219Y-32633134D01*
X106538976Y-32620346D01*
X106523070Y-32605930D01*
X106508654Y-32590024D01*
X106495866Y-32572781D01*
X106484830Y-32554368D01*
X106475651Y-32534962D01*
X106468419Y-32514750D01*
X106463203Y-32493926D01*
X106460053Y-32472691D01*
X106459000Y-32451250D01*
X106459000Y-32013750D01*
X106460053Y-31992309D01*
X106463203Y-31971074D01*
X106468419Y-31950250D01*
X106475651Y-31930038D01*
X106484830Y-31910632D01*
X106495866Y-31892219D01*
X106508654Y-31874976D01*
X106523070Y-31859070D01*
X106538976Y-31844654D01*
X106556219Y-31831866D01*
X106574632Y-31820830D01*
X106594038Y-31811651D01*
X106614250Y-31804419D01*
X106635074Y-31799203D01*
X106656309Y-31796053D01*
X106677750Y-31795000D01*
X107190250Y-31795000D01*
X107211691Y-31796053D01*
X107211691Y-31796053D01*
G37*
D12*
X106934000Y-32232500D03*
D11*
G36*
X107211691Y-33371053D02*
G01*
X107232926Y-33374203D01*
X107253750Y-33379419D01*
X107273962Y-33386651D01*
X107293368Y-33395830D01*
X107311781Y-33406866D01*
X107329024Y-33419654D01*
X107344930Y-33434070D01*
X107359346Y-33449976D01*
X107372134Y-33467219D01*
X107383170Y-33485632D01*
X107392349Y-33505038D01*
X107399581Y-33525250D01*
X107404797Y-33546074D01*
X107407947Y-33567309D01*
X107409000Y-33588750D01*
X107409000Y-34026250D01*
X107407947Y-34047691D01*
X107404797Y-34068926D01*
X107399581Y-34089750D01*
X107392349Y-34109962D01*
X107383170Y-34129368D01*
X107372134Y-34147781D01*
X107359346Y-34165024D01*
X107344930Y-34180930D01*
X107329024Y-34195346D01*
X107311781Y-34208134D01*
X107293368Y-34219170D01*
X107273962Y-34228349D01*
X107253750Y-34235581D01*
X107232926Y-34240797D01*
X107211691Y-34243947D01*
X107190250Y-34245000D01*
X106677750Y-34245000D01*
X106656309Y-34243947D01*
X106635074Y-34240797D01*
X106614250Y-34235581D01*
X106594038Y-34228349D01*
X106574632Y-34219170D01*
X106556219Y-34208134D01*
X106538976Y-34195346D01*
X106523070Y-34180930D01*
X106508654Y-34165024D01*
X106495866Y-34147781D01*
X106484830Y-34129368D01*
X106475651Y-34109962D01*
X106468419Y-34089750D01*
X106463203Y-34068926D01*
X106460053Y-34047691D01*
X106459000Y-34026250D01*
X106459000Y-33588750D01*
X106460053Y-33567309D01*
X106463203Y-33546074D01*
X106468419Y-33525250D01*
X106475651Y-33505038D01*
X106484830Y-33485632D01*
X106495866Y-33467219D01*
X106508654Y-33449976D01*
X106523070Y-33434070D01*
X106538976Y-33419654D01*
X106556219Y-33406866D01*
X106574632Y-33395830D01*
X106594038Y-33386651D01*
X106614250Y-33379419D01*
X106635074Y-33374203D01*
X106656309Y-33371053D01*
X106677750Y-33370000D01*
X107190250Y-33370000D01*
X107211691Y-33371053D01*
X107211691Y-33371053D01*
G37*
D12*
X106934000Y-33807500D03*
D11*
G36*
X101369691Y-31796053D02*
G01*
X101390926Y-31799203D01*
X101411750Y-31804419D01*
X101431962Y-31811651D01*
X101451368Y-31820830D01*
X101469781Y-31831866D01*
X101487024Y-31844654D01*
X101502930Y-31859070D01*
X101517346Y-31874976D01*
X101530134Y-31892219D01*
X101541170Y-31910632D01*
X101550349Y-31930038D01*
X101557581Y-31950250D01*
X101562797Y-31971074D01*
X101565947Y-31992309D01*
X101567000Y-32013750D01*
X101567000Y-32451250D01*
X101565947Y-32472691D01*
X101562797Y-32493926D01*
X101557581Y-32514750D01*
X101550349Y-32534962D01*
X101541170Y-32554368D01*
X101530134Y-32572781D01*
X101517346Y-32590024D01*
X101502930Y-32605930D01*
X101487024Y-32620346D01*
X101469781Y-32633134D01*
X101451368Y-32644170D01*
X101431962Y-32653349D01*
X101411750Y-32660581D01*
X101390926Y-32665797D01*
X101369691Y-32668947D01*
X101348250Y-32670000D01*
X100835750Y-32670000D01*
X100814309Y-32668947D01*
X100793074Y-32665797D01*
X100772250Y-32660581D01*
X100752038Y-32653349D01*
X100732632Y-32644170D01*
X100714219Y-32633134D01*
X100696976Y-32620346D01*
X100681070Y-32605930D01*
X100666654Y-32590024D01*
X100653866Y-32572781D01*
X100642830Y-32554368D01*
X100633651Y-32534962D01*
X100626419Y-32514750D01*
X100621203Y-32493926D01*
X100618053Y-32472691D01*
X100617000Y-32451250D01*
X100617000Y-32013750D01*
X100618053Y-31992309D01*
X100621203Y-31971074D01*
X100626419Y-31950250D01*
X100633651Y-31930038D01*
X100642830Y-31910632D01*
X100653866Y-31892219D01*
X100666654Y-31874976D01*
X100681070Y-31859070D01*
X100696976Y-31844654D01*
X100714219Y-31831866D01*
X100732632Y-31820830D01*
X100752038Y-31811651D01*
X100772250Y-31804419D01*
X100793074Y-31799203D01*
X100814309Y-31796053D01*
X100835750Y-31795000D01*
X101348250Y-31795000D01*
X101369691Y-31796053D01*
X101369691Y-31796053D01*
G37*
D12*
X101092000Y-32232500D03*
D11*
G36*
X101369691Y-33371053D02*
G01*
X101390926Y-33374203D01*
X101411750Y-33379419D01*
X101431962Y-33386651D01*
X101451368Y-33395830D01*
X101469781Y-33406866D01*
X101487024Y-33419654D01*
X101502930Y-33434070D01*
X101517346Y-33449976D01*
X101530134Y-33467219D01*
X101541170Y-33485632D01*
X101550349Y-33505038D01*
X101557581Y-33525250D01*
X101562797Y-33546074D01*
X101565947Y-33567309D01*
X101567000Y-33588750D01*
X101567000Y-34026250D01*
X101565947Y-34047691D01*
X101562797Y-34068926D01*
X101557581Y-34089750D01*
X101550349Y-34109962D01*
X101541170Y-34129368D01*
X101530134Y-34147781D01*
X101517346Y-34165024D01*
X101502930Y-34180930D01*
X101487024Y-34195346D01*
X101469781Y-34208134D01*
X101451368Y-34219170D01*
X101431962Y-34228349D01*
X101411750Y-34235581D01*
X101390926Y-34240797D01*
X101369691Y-34243947D01*
X101348250Y-34245000D01*
X100835750Y-34245000D01*
X100814309Y-34243947D01*
X100793074Y-34240797D01*
X100772250Y-34235581D01*
X100752038Y-34228349D01*
X100732632Y-34219170D01*
X100714219Y-34208134D01*
X100696976Y-34195346D01*
X100681070Y-34180930D01*
X100666654Y-34165024D01*
X100653866Y-34147781D01*
X100642830Y-34129368D01*
X100633651Y-34109962D01*
X100626419Y-34089750D01*
X100621203Y-34068926D01*
X100618053Y-34047691D01*
X100617000Y-34026250D01*
X100617000Y-33588750D01*
X100618053Y-33567309D01*
X100621203Y-33546074D01*
X100626419Y-33525250D01*
X100633651Y-33505038D01*
X100642830Y-33485632D01*
X100653866Y-33467219D01*
X100666654Y-33449976D01*
X100681070Y-33434070D01*
X100696976Y-33419654D01*
X100714219Y-33406866D01*
X100732632Y-33395830D01*
X100752038Y-33386651D01*
X100772250Y-33379419D01*
X100793074Y-33374203D01*
X100814309Y-33371053D01*
X100835750Y-33370000D01*
X101348250Y-33370000D01*
X101369691Y-33371053D01*
X101369691Y-33371053D01*
G37*
D12*
X101092000Y-33807500D03*
D11*
G36*
X95527691Y-31796053D02*
G01*
X95548926Y-31799203D01*
X95569750Y-31804419D01*
X95589962Y-31811651D01*
X95609368Y-31820830D01*
X95627781Y-31831866D01*
X95645024Y-31844654D01*
X95660930Y-31859070D01*
X95675346Y-31874976D01*
X95688134Y-31892219D01*
X95699170Y-31910632D01*
X95708349Y-31930038D01*
X95715581Y-31950250D01*
X95720797Y-31971074D01*
X95723947Y-31992309D01*
X95725000Y-32013750D01*
X95725000Y-32451250D01*
X95723947Y-32472691D01*
X95720797Y-32493926D01*
X95715581Y-32514750D01*
X95708349Y-32534962D01*
X95699170Y-32554368D01*
X95688134Y-32572781D01*
X95675346Y-32590024D01*
X95660930Y-32605930D01*
X95645024Y-32620346D01*
X95627781Y-32633134D01*
X95609368Y-32644170D01*
X95589962Y-32653349D01*
X95569750Y-32660581D01*
X95548926Y-32665797D01*
X95527691Y-32668947D01*
X95506250Y-32670000D01*
X94993750Y-32670000D01*
X94972309Y-32668947D01*
X94951074Y-32665797D01*
X94930250Y-32660581D01*
X94910038Y-32653349D01*
X94890632Y-32644170D01*
X94872219Y-32633134D01*
X94854976Y-32620346D01*
X94839070Y-32605930D01*
X94824654Y-32590024D01*
X94811866Y-32572781D01*
X94800830Y-32554368D01*
X94791651Y-32534962D01*
X94784419Y-32514750D01*
X94779203Y-32493926D01*
X94776053Y-32472691D01*
X94775000Y-32451250D01*
X94775000Y-32013750D01*
X94776053Y-31992309D01*
X94779203Y-31971074D01*
X94784419Y-31950250D01*
X94791651Y-31930038D01*
X94800830Y-31910632D01*
X94811866Y-31892219D01*
X94824654Y-31874976D01*
X94839070Y-31859070D01*
X94854976Y-31844654D01*
X94872219Y-31831866D01*
X94890632Y-31820830D01*
X94910038Y-31811651D01*
X94930250Y-31804419D01*
X94951074Y-31799203D01*
X94972309Y-31796053D01*
X94993750Y-31795000D01*
X95506250Y-31795000D01*
X95527691Y-31796053D01*
X95527691Y-31796053D01*
G37*
D12*
X95250000Y-32232500D03*
D11*
G36*
X95527691Y-33371053D02*
G01*
X95548926Y-33374203D01*
X95569750Y-33379419D01*
X95589962Y-33386651D01*
X95609368Y-33395830D01*
X95627781Y-33406866D01*
X95645024Y-33419654D01*
X95660930Y-33434070D01*
X95675346Y-33449976D01*
X95688134Y-33467219D01*
X95699170Y-33485632D01*
X95708349Y-33505038D01*
X95715581Y-33525250D01*
X95720797Y-33546074D01*
X95723947Y-33567309D01*
X95725000Y-33588750D01*
X95725000Y-34026250D01*
X95723947Y-34047691D01*
X95720797Y-34068926D01*
X95715581Y-34089750D01*
X95708349Y-34109962D01*
X95699170Y-34129368D01*
X95688134Y-34147781D01*
X95675346Y-34165024D01*
X95660930Y-34180930D01*
X95645024Y-34195346D01*
X95627781Y-34208134D01*
X95609368Y-34219170D01*
X95589962Y-34228349D01*
X95569750Y-34235581D01*
X95548926Y-34240797D01*
X95527691Y-34243947D01*
X95506250Y-34245000D01*
X94993750Y-34245000D01*
X94972309Y-34243947D01*
X94951074Y-34240797D01*
X94930250Y-34235581D01*
X94910038Y-34228349D01*
X94890632Y-34219170D01*
X94872219Y-34208134D01*
X94854976Y-34195346D01*
X94839070Y-34180930D01*
X94824654Y-34165024D01*
X94811866Y-34147781D01*
X94800830Y-34129368D01*
X94791651Y-34109962D01*
X94784419Y-34089750D01*
X94779203Y-34068926D01*
X94776053Y-34047691D01*
X94775000Y-34026250D01*
X94775000Y-33588750D01*
X94776053Y-33567309D01*
X94779203Y-33546074D01*
X94784419Y-33525250D01*
X94791651Y-33505038D01*
X94800830Y-33485632D01*
X94811866Y-33467219D01*
X94824654Y-33449976D01*
X94839070Y-33434070D01*
X94854976Y-33419654D01*
X94872219Y-33406866D01*
X94890632Y-33395830D01*
X94910038Y-33386651D01*
X94930250Y-33379419D01*
X94951074Y-33374203D01*
X94972309Y-33371053D01*
X94993750Y-33370000D01*
X95506250Y-33370000D01*
X95527691Y-33371053D01*
X95527691Y-33371053D01*
G37*
D12*
X95250000Y-33807500D03*
D11*
G36*
X95527691Y-25700053D02*
G01*
X95548926Y-25703203D01*
X95569750Y-25708419D01*
X95589962Y-25715651D01*
X95609368Y-25724830D01*
X95627781Y-25735866D01*
X95645024Y-25748654D01*
X95660930Y-25763070D01*
X95675346Y-25778976D01*
X95688134Y-25796219D01*
X95699170Y-25814632D01*
X95708349Y-25834038D01*
X95715581Y-25854250D01*
X95720797Y-25875074D01*
X95723947Y-25896309D01*
X95725000Y-25917750D01*
X95725000Y-26355250D01*
X95723947Y-26376691D01*
X95720797Y-26397926D01*
X95715581Y-26418750D01*
X95708349Y-26438962D01*
X95699170Y-26458368D01*
X95688134Y-26476781D01*
X95675346Y-26494024D01*
X95660930Y-26509930D01*
X95645024Y-26524346D01*
X95627781Y-26537134D01*
X95609368Y-26548170D01*
X95589962Y-26557349D01*
X95569750Y-26564581D01*
X95548926Y-26569797D01*
X95527691Y-26572947D01*
X95506250Y-26574000D01*
X94993750Y-26574000D01*
X94972309Y-26572947D01*
X94951074Y-26569797D01*
X94930250Y-26564581D01*
X94910038Y-26557349D01*
X94890632Y-26548170D01*
X94872219Y-26537134D01*
X94854976Y-26524346D01*
X94839070Y-26509930D01*
X94824654Y-26494024D01*
X94811866Y-26476781D01*
X94800830Y-26458368D01*
X94791651Y-26438962D01*
X94784419Y-26418750D01*
X94779203Y-26397926D01*
X94776053Y-26376691D01*
X94775000Y-26355250D01*
X94775000Y-25917750D01*
X94776053Y-25896309D01*
X94779203Y-25875074D01*
X94784419Y-25854250D01*
X94791651Y-25834038D01*
X94800830Y-25814632D01*
X94811866Y-25796219D01*
X94824654Y-25778976D01*
X94839070Y-25763070D01*
X94854976Y-25748654D01*
X94872219Y-25735866D01*
X94890632Y-25724830D01*
X94910038Y-25715651D01*
X94930250Y-25708419D01*
X94951074Y-25703203D01*
X94972309Y-25700053D01*
X94993750Y-25699000D01*
X95506250Y-25699000D01*
X95527691Y-25700053D01*
X95527691Y-25700053D01*
G37*
D12*
X95250000Y-26136500D03*
D11*
G36*
X95527691Y-27275053D02*
G01*
X95548926Y-27278203D01*
X95569750Y-27283419D01*
X95589962Y-27290651D01*
X95609368Y-27299830D01*
X95627781Y-27310866D01*
X95645024Y-27323654D01*
X95660930Y-27338070D01*
X95675346Y-27353976D01*
X95688134Y-27371219D01*
X95699170Y-27389632D01*
X95708349Y-27409038D01*
X95715581Y-27429250D01*
X95720797Y-27450074D01*
X95723947Y-27471309D01*
X95725000Y-27492750D01*
X95725000Y-27930250D01*
X95723947Y-27951691D01*
X95720797Y-27972926D01*
X95715581Y-27993750D01*
X95708349Y-28013962D01*
X95699170Y-28033368D01*
X95688134Y-28051781D01*
X95675346Y-28069024D01*
X95660930Y-28084930D01*
X95645024Y-28099346D01*
X95627781Y-28112134D01*
X95609368Y-28123170D01*
X95589962Y-28132349D01*
X95569750Y-28139581D01*
X95548926Y-28144797D01*
X95527691Y-28147947D01*
X95506250Y-28149000D01*
X94993750Y-28149000D01*
X94972309Y-28147947D01*
X94951074Y-28144797D01*
X94930250Y-28139581D01*
X94910038Y-28132349D01*
X94890632Y-28123170D01*
X94872219Y-28112134D01*
X94854976Y-28099346D01*
X94839070Y-28084930D01*
X94824654Y-28069024D01*
X94811866Y-28051781D01*
X94800830Y-28033368D01*
X94791651Y-28013962D01*
X94784419Y-27993750D01*
X94779203Y-27972926D01*
X94776053Y-27951691D01*
X94775000Y-27930250D01*
X94775000Y-27492750D01*
X94776053Y-27471309D01*
X94779203Y-27450074D01*
X94784419Y-27429250D01*
X94791651Y-27409038D01*
X94800830Y-27389632D01*
X94811866Y-27371219D01*
X94824654Y-27353976D01*
X94839070Y-27338070D01*
X94854976Y-27323654D01*
X94872219Y-27310866D01*
X94890632Y-27299830D01*
X94910038Y-27290651D01*
X94930250Y-27283419D01*
X94951074Y-27278203D01*
X94972309Y-27275053D01*
X94993750Y-27274000D01*
X95506250Y-27274000D01*
X95527691Y-27275053D01*
X95527691Y-27275053D01*
G37*
D12*
X95250000Y-27711500D03*
D11*
G36*
X101369691Y-25700053D02*
G01*
X101390926Y-25703203D01*
X101411750Y-25708419D01*
X101431962Y-25715651D01*
X101451368Y-25724830D01*
X101469781Y-25735866D01*
X101487024Y-25748654D01*
X101502930Y-25763070D01*
X101517346Y-25778976D01*
X101530134Y-25796219D01*
X101541170Y-25814632D01*
X101550349Y-25834038D01*
X101557581Y-25854250D01*
X101562797Y-25875074D01*
X101565947Y-25896309D01*
X101567000Y-25917750D01*
X101567000Y-26355250D01*
X101565947Y-26376691D01*
X101562797Y-26397926D01*
X101557581Y-26418750D01*
X101550349Y-26438962D01*
X101541170Y-26458368D01*
X101530134Y-26476781D01*
X101517346Y-26494024D01*
X101502930Y-26509930D01*
X101487024Y-26524346D01*
X101469781Y-26537134D01*
X101451368Y-26548170D01*
X101431962Y-26557349D01*
X101411750Y-26564581D01*
X101390926Y-26569797D01*
X101369691Y-26572947D01*
X101348250Y-26574000D01*
X100835750Y-26574000D01*
X100814309Y-26572947D01*
X100793074Y-26569797D01*
X100772250Y-26564581D01*
X100752038Y-26557349D01*
X100732632Y-26548170D01*
X100714219Y-26537134D01*
X100696976Y-26524346D01*
X100681070Y-26509930D01*
X100666654Y-26494024D01*
X100653866Y-26476781D01*
X100642830Y-26458368D01*
X100633651Y-26438962D01*
X100626419Y-26418750D01*
X100621203Y-26397926D01*
X100618053Y-26376691D01*
X100617000Y-26355250D01*
X100617000Y-25917750D01*
X100618053Y-25896309D01*
X100621203Y-25875074D01*
X100626419Y-25854250D01*
X100633651Y-25834038D01*
X100642830Y-25814632D01*
X100653866Y-25796219D01*
X100666654Y-25778976D01*
X100681070Y-25763070D01*
X100696976Y-25748654D01*
X100714219Y-25735866D01*
X100732632Y-25724830D01*
X100752038Y-25715651D01*
X100772250Y-25708419D01*
X100793074Y-25703203D01*
X100814309Y-25700053D01*
X100835750Y-25699000D01*
X101348250Y-25699000D01*
X101369691Y-25700053D01*
X101369691Y-25700053D01*
G37*
D12*
X101092000Y-26136500D03*
D11*
G36*
X101369691Y-27275053D02*
G01*
X101390926Y-27278203D01*
X101411750Y-27283419D01*
X101431962Y-27290651D01*
X101451368Y-27299830D01*
X101469781Y-27310866D01*
X101487024Y-27323654D01*
X101502930Y-27338070D01*
X101517346Y-27353976D01*
X101530134Y-27371219D01*
X101541170Y-27389632D01*
X101550349Y-27409038D01*
X101557581Y-27429250D01*
X101562797Y-27450074D01*
X101565947Y-27471309D01*
X101567000Y-27492750D01*
X101567000Y-27930250D01*
X101565947Y-27951691D01*
X101562797Y-27972926D01*
X101557581Y-27993750D01*
X101550349Y-28013962D01*
X101541170Y-28033368D01*
X101530134Y-28051781D01*
X101517346Y-28069024D01*
X101502930Y-28084930D01*
X101487024Y-28099346D01*
X101469781Y-28112134D01*
X101451368Y-28123170D01*
X101431962Y-28132349D01*
X101411750Y-28139581D01*
X101390926Y-28144797D01*
X101369691Y-28147947D01*
X101348250Y-28149000D01*
X100835750Y-28149000D01*
X100814309Y-28147947D01*
X100793074Y-28144797D01*
X100772250Y-28139581D01*
X100752038Y-28132349D01*
X100732632Y-28123170D01*
X100714219Y-28112134D01*
X100696976Y-28099346D01*
X100681070Y-28084930D01*
X100666654Y-28069024D01*
X100653866Y-28051781D01*
X100642830Y-28033368D01*
X100633651Y-28013962D01*
X100626419Y-27993750D01*
X100621203Y-27972926D01*
X100618053Y-27951691D01*
X100617000Y-27930250D01*
X100617000Y-27492750D01*
X100618053Y-27471309D01*
X100621203Y-27450074D01*
X100626419Y-27429250D01*
X100633651Y-27409038D01*
X100642830Y-27389632D01*
X100653866Y-27371219D01*
X100666654Y-27353976D01*
X100681070Y-27338070D01*
X100696976Y-27323654D01*
X100714219Y-27310866D01*
X100732632Y-27299830D01*
X100752038Y-27290651D01*
X100772250Y-27283419D01*
X100793074Y-27278203D01*
X100814309Y-27275053D01*
X100835750Y-27274000D01*
X101348250Y-27274000D01*
X101369691Y-27275053D01*
X101369691Y-27275053D01*
G37*
D12*
X101092000Y-27711500D03*
D11*
G36*
X107211691Y-27249553D02*
G01*
X107232926Y-27252703D01*
X107253750Y-27257919D01*
X107273962Y-27265151D01*
X107293368Y-27274330D01*
X107311781Y-27285366D01*
X107329024Y-27298154D01*
X107344930Y-27312570D01*
X107359346Y-27328476D01*
X107372134Y-27345719D01*
X107383170Y-27364132D01*
X107392349Y-27383538D01*
X107399581Y-27403750D01*
X107404797Y-27424574D01*
X107407947Y-27445809D01*
X107409000Y-27467250D01*
X107409000Y-27904750D01*
X107407947Y-27926191D01*
X107404797Y-27947426D01*
X107399581Y-27968250D01*
X107392349Y-27988462D01*
X107383170Y-28007868D01*
X107372134Y-28026281D01*
X107359346Y-28043524D01*
X107344930Y-28059430D01*
X107329024Y-28073846D01*
X107311781Y-28086634D01*
X107293368Y-28097670D01*
X107273962Y-28106849D01*
X107253750Y-28114081D01*
X107232926Y-28119297D01*
X107211691Y-28122447D01*
X107190250Y-28123500D01*
X106677750Y-28123500D01*
X106656309Y-28122447D01*
X106635074Y-28119297D01*
X106614250Y-28114081D01*
X106594038Y-28106849D01*
X106574632Y-28097670D01*
X106556219Y-28086634D01*
X106538976Y-28073846D01*
X106523070Y-28059430D01*
X106508654Y-28043524D01*
X106495866Y-28026281D01*
X106484830Y-28007868D01*
X106475651Y-27988462D01*
X106468419Y-27968250D01*
X106463203Y-27947426D01*
X106460053Y-27926191D01*
X106459000Y-27904750D01*
X106459000Y-27467250D01*
X106460053Y-27445809D01*
X106463203Y-27424574D01*
X106468419Y-27403750D01*
X106475651Y-27383538D01*
X106484830Y-27364132D01*
X106495866Y-27345719D01*
X106508654Y-27328476D01*
X106523070Y-27312570D01*
X106538976Y-27298154D01*
X106556219Y-27285366D01*
X106574632Y-27274330D01*
X106594038Y-27265151D01*
X106614250Y-27257919D01*
X106635074Y-27252703D01*
X106656309Y-27249553D01*
X106677750Y-27248500D01*
X107190250Y-27248500D01*
X107211691Y-27249553D01*
X107211691Y-27249553D01*
G37*
D12*
X106934000Y-27686000D03*
D11*
G36*
X107211691Y-25674553D02*
G01*
X107232926Y-25677703D01*
X107253750Y-25682919D01*
X107273962Y-25690151D01*
X107293368Y-25699330D01*
X107311781Y-25710366D01*
X107329024Y-25723154D01*
X107344930Y-25737570D01*
X107359346Y-25753476D01*
X107372134Y-25770719D01*
X107383170Y-25789132D01*
X107392349Y-25808538D01*
X107399581Y-25828750D01*
X107404797Y-25849574D01*
X107407947Y-25870809D01*
X107409000Y-25892250D01*
X107409000Y-26329750D01*
X107407947Y-26351191D01*
X107404797Y-26372426D01*
X107399581Y-26393250D01*
X107392349Y-26413462D01*
X107383170Y-26432868D01*
X107372134Y-26451281D01*
X107359346Y-26468524D01*
X107344930Y-26484430D01*
X107329024Y-26498846D01*
X107311781Y-26511634D01*
X107293368Y-26522670D01*
X107273962Y-26531849D01*
X107253750Y-26539081D01*
X107232926Y-26544297D01*
X107211691Y-26547447D01*
X107190250Y-26548500D01*
X106677750Y-26548500D01*
X106656309Y-26547447D01*
X106635074Y-26544297D01*
X106614250Y-26539081D01*
X106594038Y-26531849D01*
X106574632Y-26522670D01*
X106556219Y-26511634D01*
X106538976Y-26498846D01*
X106523070Y-26484430D01*
X106508654Y-26468524D01*
X106495866Y-26451281D01*
X106484830Y-26432868D01*
X106475651Y-26413462D01*
X106468419Y-26393250D01*
X106463203Y-26372426D01*
X106460053Y-26351191D01*
X106459000Y-26329750D01*
X106459000Y-25892250D01*
X106460053Y-25870809D01*
X106463203Y-25849574D01*
X106468419Y-25828750D01*
X106475651Y-25808538D01*
X106484830Y-25789132D01*
X106495866Y-25770719D01*
X106508654Y-25753476D01*
X106523070Y-25737570D01*
X106538976Y-25723154D01*
X106556219Y-25710366D01*
X106574632Y-25699330D01*
X106594038Y-25690151D01*
X106614250Y-25682919D01*
X106635074Y-25677703D01*
X106656309Y-25674553D01*
X106677750Y-25673500D01*
X107190250Y-25673500D01*
X107211691Y-25674553D01*
X107211691Y-25674553D01*
G37*
D12*
X106934000Y-26111000D03*
D11*
G36*
X92670691Y-19846053D02*
G01*
X92691926Y-19849203D01*
X92712750Y-19854419D01*
X92732962Y-19861651D01*
X92752368Y-19870830D01*
X92770781Y-19881866D01*
X92788024Y-19894654D01*
X92803930Y-19909070D01*
X92818346Y-19924976D01*
X92831134Y-19942219D01*
X92842170Y-19960632D01*
X92851349Y-19980038D01*
X92858581Y-20000250D01*
X92863797Y-20021074D01*
X92866947Y-20042309D01*
X92868000Y-20063750D01*
X92868000Y-20576250D01*
X92866947Y-20597691D01*
X92863797Y-20618926D01*
X92858581Y-20639750D01*
X92851349Y-20659962D01*
X92842170Y-20679368D01*
X92831134Y-20697781D01*
X92818346Y-20715024D01*
X92803930Y-20730930D01*
X92788024Y-20745346D01*
X92770781Y-20758134D01*
X92752368Y-20769170D01*
X92732962Y-20778349D01*
X92712750Y-20785581D01*
X92691926Y-20790797D01*
X92670691Y-20793947D01*
X92649250Y-20795000D01*
X92211750Y-20795000D01*
X92190309Y-20793947D01*
X92169074Y-20790797D01*
X92148250Y-20785581D01*
X92128038Y-20778349D01*
X92108632Y-20769170D01*
X92090219Y-20758134D01*
X92072976Y-20745346D01*
X92057070Y-20730930D01*
X92042654Y-20715024D01*
X92029866Y-20697781D01*
X92018830Y-20679368D01*
X92009651Y-20659962D01*
X92002419Y-20639750D01*
X91997203Y-20618926D01*
X91994053Y-20597691D01*
X91993000Y-20576250D01*
X91993000Y-20063750D01*
X91994053Y-20042309D01*
X91997203Y-20021074D01*
X92002419Y-20000250D01*
X92009651Y-19980038D01*
X92018830Y-19960632D01*
X92029866Y-19942219D01*
X92042654Y-19924976D01*
X92057070Y-19909070D01*
X92072976Y-19894654D01*
X92090219Y-19881866D01*
X92108632Y-19870830D01*
X92128038Y-19861651D01*
X92148250Y-19854419D01*
X92169074Y-19849203D01*
X92190309Y-19846053D01*
X92211750Y-19845000D01*
X92649250Y-19845000D01*
X92670691Y-19846053D01*
X92670691Y-19846053D01*
G37*
D12*
X92430500Y-20320000D03*
D11*
G36*
X94245691Y-19846053D02*
G01*
X94266926Y-19849203D01*
X94287750Y-19854419D01*
X94307962Y-19861651D01*
X94327368Y-19870830D01*
X94345781Y-19881866D01*
X94363024Y-19894654D01*
X94378930Y-19909070D01*
X94393346Y-19924976D01*
X94406134Y-19942219D01*
X94417170Y-19960632D01*
X94426349Y-19980038D01*
X94433581Y-20000250D01*
X94438797Y-20021074D01*
X94441947Y-20042309D01*
X94443000Y-20063750D01*
X94443000Y-20576250D01*
X94441947Y-20597691D01*
X94438797Y-20618926D01*
X94433581Y-20639750D01*
X94426349Y-20659962D01*
X94417170Y-20679368D01*
X94406134Y-20697781D01*
X94393346Y-20715024D01*
X94378930Y-20730930D01*
X94363024Y-20745346D01*
X94345781Y-20758134D01*
X94327368Y-20769170D01*
X94307962Y-20778349D01*
X94287750Y-20785581D01*
X94266926Y-20790797D01*
X94245691Y-20793947D01*
X94224250Y-20795000D01*
X93786750Y-20795000D01*
X93765309Y-20793947D01*
X93744074Y-20790797D01*
X93723250Y-20785581D01*
X93703038Y-20778349D01*
X93683632Y-20769170D01*
X93665219Y-20758134D01*
X93647976Y-20745346D01*
X93632070Y-20730930D01*
X93617654Y-20715024D01*
X93604866Y-20697781D01*
X93593830Y-20679368D01*
X93584651Y-20659962D01*
X93577419Y-20639750D01*
X93572203Y-20618926D01*
X93569053Y-20597691D01*
X93568000Y-20576250D01*
X93568000Y-20063750D01*
X93569053Y-20042309D01*
X93572203Y-20021074D01*
X93577419Y-20000250D01*
X93584651Y-19980038D01*
X93593830Y-19960632D01*
X93604866Y-19942219D01*
X93617654Y-19924976D01*
X93632070Y-19909070D01*
X93647976Y-19894654D01*
X93665219Y-19881866D01*
X93683632Y-19870830D01*
X93703038Y-19861651D01*
X93723250Y-19854419D01*
X93744074Y-19849203D01*
X93765309Y-19846053D01*
X93786750Y-19845000D01*
X94224250Y-19845000D01*
X94245691Y-19846053D01*
X94245691Y-19846053D01*
G37*
D12*
X94005500Y-20320000D03*
D13*
X96520000Y-20320000D03*
D14*
X99060000Y-20320000D03*
X101600000Y-20320000D03*
X104140000Y-20320000D03*
X106680000Y-20320000D03*
D15*
X96774000Y-32106000D03*
X98044000Y-32106000D03*
X99314000Y-32106000D03*
X99314000Y-25806000D03*
X98044000Y-25806000D03*
X96774000Y-25806000D03*
X102616000Y-25806000D03*
X103886000Y-25806000D03*
X105156000Y-25806000D03*
X105156000Y-32106000D03*
X103886000Y-32106000D03*
X102616000Y-32106000D03*
X108458000Y-32106000D03*
X109728000Y-32106000D03*
X110998000Y-32106000D03*
X110998000Y-25806000D03*
X109728000Y-25806000D03*
X108458000Y-25806000D03*
X93599000Y-32106000D03*
X92329000Y-32106000D03*
X92329000Y-25806000D03*
X93599000Y-25806000D03*
D16*
X95250000Y-25400000D03*
X101092000Y-25400000D03*
X106934000Y-25400000D03*
X94488000Y-23622000D03*
X105097000Y-27373000D03*
X99255000Y-27373000D03*
X91694000Y-20320000D03*
X101854000Y-46228000D03*
X101092000Y-34544000D03*
X106934000Y-34544000D03*
X96012000Y-34544000D03*
D17*
X94919500Y-25806000D02*
X95250000Y-26136500D01*
X93599000Y-25806000D02*
X94919500Y-25806000D01*
X95580500Y-25806000D02*
X95250000Y-26136500D01*
X96774000Y-25806000D02*
X95580500Y-25806000D01*
X101422500Y-25806000D02*
X101092000Y-26136500D01*
X102616000Y-25806000D02*
X101422500Y-25806000D01*
X107239000Y-25806000D02*
X106934000Y-26111000D01*
X108458000Y-25806000D02*
X107239000Y-25806000D01*
X95250000Y-26136500D02*
X95250000Y-25400000D01*
X101092000Y-26136500D02*
X101092000Y-25400000D01*
X106934000Y-26111000D02*
X106934000Y-25400000D01*
X94005500Y-20320000D02*
X96520000Y-20320000D01*
X99314000Y-27314000D02*
X99314000Y-25806000D01*
X98916500Y-27711500D02*
X99255000Y-27373000D01*
X95250000Y-27711500D02*
X98916500Y-27711500D01*
X99711500Y-27711500D02*
X101092000Y-27711500D01*
X99314000Y-27314000D02*
X99711500Y-27711500D01*
X105156000Y-27314000D02*
X105156000Y-25806000D01*
X104758500Y-27711500D02*
X105097000Y-27373000D01*
X101092000Y-27711500D02*
X104758500Y-27711500D01*
X105528000Y-27686000D02*
X106934000Y-27686000D01*
X105156000Y-27314000D02*
X105528000Y-27686000D01*
X110626000Y-27686000D02*
X110998000Y-27314000D01*
X110998000Y-27314000D02*
X110998000Y-25806000D01*
X106934000Y-27686000D02*
X110626000Y-27686000D01*
X107020000Y-20320000D02*
X106680000Y-20320000D01*
X110998000Y-24298000D02*
X107020000Y-20320000D01*
X110998000Y-25806000D02*
X110998000Y-24298000D01*
X93726000Y-23622000D02*
X94488000Y-23622000D01*
X105097000Y-27373000D02*
X105156000Y-27314000D01*
X99255000Y-27373000D02*
X99314000Y-27314000D01*
X92430500Y-20320000D02*
X91694000Y-20320000D01*
X105156000Y-33614000D02*
X105156000Y-32106000D01*
X105156000Y-35666234D02*
X105156000Y-33614000D01*
X101600000Y-39222234D02*
X105156000Y-35666234D01*
X101600000Y-40990000D02*
X101600000Y-39222234D01*
X105842640Y-42747360D02*
X105842640Y-37413360D01*
X105842640Y-37413360D02*
X109474000Y-33782000D01*
X110189202Y-33782000D02*
X109474000Y-33782000D01*
X110998000Y-32973202D02*
X110189202Y-33782000D01*
X110998000Y-32106000D02*
X110998000Y-32973202D01*
X93599000Y-32156500D02*
X95250000Y-33807500D01*
X93599000Y-32106000D02*
X93599000Y-32156500D01*
X101092000Y-33807500D02*
X101092000Y-34544000D01*
X106934000Y-33807500D02*
X106934000Y-34544000D01*
X95250000Y-33807500D02*
X96012000Y-34544000D01*
X95600000Y-45222234D02*
X95600000Y-46990000D01*
X92329000Y-32973202D02*
X93137798Y-33782000D01*
X92329000Y-32106000D02*
X92329000Y-32973202D01*
X93690078Y-33782000D02*
X96266000Y-36357922D01*
X93137798Y-33782000D02*
X93690078Y-33782000D01*
X96266000Y-40640000D02*
X95600000Y-41306000D01*
X96266000Y-36357922D02*
X96266000Y-40640000D01*
X95600000Y-41306000D02*
X95600000Y-45222234D01*
X99314000Y-40790720D02*
X97357360Y-42747360D01*
X99314000Y-32106000D02*
X99314000Y-40790720D01*
X98044000Y-21336000D02*
X99060000Y-20320000D01*
X98044000Y-25806000D02*
X98044000Y-21336000D01*
X103886000Y-22606000D02*
X101600000Y-20320000D01*
X103886000Y-25806000D02*
X103886000Y-22606000D01*
X105444001Y-21624001D02*
X104989999Y-21169999D01*
X106413203Y-21624001D02*
X105444001Y-21624001D01*
X104989999Y-21169999D02*
X104140000Y-20320000D01*
X109728000Y-24938798D02*
X106413203Y-21624001D01*
X109728000Y-25806000D02*
X109728000Y-24938798D01*
X96647500Y-32232500D02*
X96774000Y-32106000D01*
X95250000Y-32232500D02*
X96647500Y-32232500D01*
X102489500Y-32232500D02*
X102616000Y-32106000D01*
X101092000Y-32232500D02*
X102489500Y-32232500D01*
X108331500Y-32232500D02*
X108458000Y-32106000D01*
X106934000Y-32232500D02*
X108331500Y-32232500D01*
X92329000Y-23800000D02*
X92151000Y-23622000D01*
X92329000Y-25806000D02*
X92329000Y-23800000D01*
D18*
G36*
X114910001Y-27813000D02*
G01*
X88290000Y-27813000D01*
X88290000Y-23365750D01*
X91075428Y-23365750D01*
X91075428Y-23878250D01*
X91091892Y-24045408D01*
X91140650Y-24206142D01*
X91219829Y-24354275D01*
X91326385Y-24484115D01*
X91419977Y-24560923D01*
X91419498Y-24561820D01*
X91383188Y-24681518D01*
X91370928Y-24806000D01*
X91370928Y-26806000D01*
X91383188Y-26930482D01*
X91419498Y-27050180D01*
X91478463Y-27160494D01*
X91557815Y-27257185D01*
X91654506Y-27336537D01*
X91764820Y-27395502D01*
X91884518Y-27431812D01*
X92009000Y-27444072D01*
X92649000Y-27444072D01*
X92773482Y-27431812D01*
X92893180Y-27395502D01*
X92964000Y-27357647D01*
X93034820Y-27395502D01*
X93154518Y-27431812D01*
X93279000Y-27444072D01*
X93919000Y-27444072D01*
X94043482Y-27431812D01*
X94139533Y-27402675D01*
X94140000Y-27425750D01*
X94298750Y-27584500D01*
X95123000Y-27584500D01*
X95123000Y-27564500D01*
X95377000Y-27564500D01*
X95377000Y-27584500D01*
X96201250Y-27584500D01*
X96351749Y-27434001D01*
X96454000Y-27444072D01*
X97094000Y-27444072D01*
X97218482Y-27431812D01*
X97338180Y-27395502D01*
X97409000Y-27357647D01*
X97479820Y-27395502D01*
X97599518Y-27431812D01*
X97724000Y-27444072D01*
X98364000Y-27444072D01*
X98488482Y-27431812D01*
X98608180Y-27395502D01*
X98679000Y-27357647D01*
X98749820Y-27395502D01*
X98869518Y-27431812D01*
X98994000Y-27444072D01*
X99028250Y-27441000D01*
X99187000Y-27282250D01*
X99187000Y-25933000D01*
X99167000Y-25933000D01*
X99167000Y-25679000D01*
X99187000Y-25679000D01*
X99187000Y-24329750D01*
X99028250Y-24171000D01*
X98994000Y-24167928D01*
X98933000Y-24173936D01*
X98933000Y-21799677D01*
X98987050Y-21805000D01*
X99132950Y-21805000D01*
X99351111Y-21783513D01*
X99631034Y-21698599D01*
X99889014Y-21560706D01*
X100115134Y-21375134D01*
X100300706Y-21149014D01*
X100330000Y-21094209D01*
X100359294Y-21149014D01*
X100544866Y-21375134D01*
X100770986Y-21560706D01*
X101028966Y-21698599D01*
X101308889Y-21783513D01*
X101527050Y-21805000D01*
X101672950Y-21805000D01*
X101813884Y-21791119D01*
X102997001Y-22974237D01*
X102997001Y-24173936D01*
X102936000Y-24167928D01*
X102296000Y-24167928D01*
X102171518Y-24180188D01*
X102051820Y-24216498D01*
X101941506Y-24275463D01*
X101844815Y-24354815D01*
X101811488Y-24395424D01*
X101676992Y-24305557D01*
X101452236Y-24212460D01*
X101213637Y-24165000D01*
X100970363Y-24165000D01*
X100731764Y-24212460D01*
X100507008Y-24305557D01*
X100304733Y-24440713D01*
X100209612Y-24535834D01*
X100164537Y-24451506D01*
X100085185Y-24354815D01*
X99988494Y-24275463D01*
X99878180Y-24216498D01*
X99758482Y-24180188D01*
X99634000Y-24167928D01*
X99599750Y-24171000D01*
X99441000Y-24329750D01*
X99441000Y-25679000D01*
X99461000Y-25679000D01*
X99461000Y-25933000D01*
X99441000Y-25933000D01*
X99441000Y-27282250D01*
X99599750Y-27441000D01*
X99634000Y-27444072D01*
X99758482Y-27431812D01*
X99878180Y-27395502D01*
X99980283Y-27340926D01*
X99982000Y-27425750D01*
X100140750Y-27584500D01*
X100965000Y-27584500D01*
X100965000Y-27564500D01*
X101219000Y-27564500D01*
X101219000Y-27584500D01*
X102043250Y-27584500D01*
X102193749Y-27434001D01*
X102296000Y-27444072D01*
X102936000Y-27444072D01*
X103060482Y-27431812D01*
X103180180Y-27395502D01*
X103251000Y-27357647D01*
X103321820Y-27395502D01*
X103441518Y-27431812D01*
X103566000Y-27444072D01*
X104206000Y-27444072D01*
X104330482Y-27431812D01*
X104450180Y-27395502D01*
X104521000Y-27357647D01*
X104591820Y-27395502D01*
X104711518Y-27431812D01*
X104836000Y-27444072D01*
X104870250Y-27441000D01*
X105029000Y-27282250D01*
X105029000Y-25933000D01*
X105009000Y-25933000D01*
X105009000Y-25679000D01*
X105029000Y-25679000D01*
X105029000Y-24329750D01*
X104870250Y-24171000D01*
X104836000Y-24167928D01*
X104775000Y-24173936D01*
X104775000Y-22649659D01*
X104779300Y-22605999D01*
X104775000Y-22562339D01*
X104775000Y-22562333D01*
X104762136Y-22431726D01*
X104762136Y-22431724D01*
X104731296Y-22330058D01*
X104711303Y-22264149D01*
X104628753Y-22109709D01*
X104517659Y-21974341D01*
X104483742Y-21946506D01*
X104330644Y-21793408D01*
X104353883Y-21791119D01*
X104392258Y-21829494D01*
X104392264Y-21829499D01*
X104784502Y-22221737D01*
X104812342Y-22255660D01*
X104947710Y-22366754D01*
X105102150Y-22449304D01*
X105196759Y-22478003D01*
X105269726Y-22500137D01*
X105286326Y-22501772D01*
X105400334Y-22513001D01*
X105400341Y-22513001D01*
X105444001Y-22517301D01*
X105487661Y-22513001D01*
X106044968Y-22513001D01*
X107799096Y-24267130D01*
X107783506Y-24275463D01*
X107686815Y-24354815D01*
X107653488Y-24395424D01*
X107518992Y-24305557D01*
X107294236Y-24212460D01*
X107055637Y-24165000D01*
X106812363Y-24165000D01*
X106573764Y-24212460D01*
X106349008Y-24305557D01*
X106146733Y-24440713D01*
X106051612Y-24535834D01*
X106006537Y-24451506D01*
X105927185Y-24354815D01*
X105830494Y-24275463D01*
X105720180Y-24216498D01*
X105600482Y-24180188D01*
X105476000Y-24167928D01*
X105441750Y-24171000D01*
X105283000Y-24329750D01*
X105283000Y-25679000D01*
X105303000Y-25679000D01*
X105303000Y-25933000D01*
X105283000Y-25933000D01*
X105283000Y-27282250D01*
X105441750Y-27441000D01*
X105476000Y-27444072D01*
X105600482Y-27431812D01*
X105720180Y-27395502D01*
X105822794Y-27340653D01*
X105824000Y-27400250D01*
X105982750Y-27559000D01*
X106807000Y-27559000D01*
X106807000Y-27539000D01*
X107061000Y-27539000D01*
X107061000Y-27559000D01*
X107885250Y-27559000D01*
X108012689Y-27431561D01*
X108013518Y-27431812D01*
X108138000Y-27444072D01*
X108778000Y-27444072D01*
X108902482Y-27431812D01*
X109022180Y-27395502D01*
X109093000Y-27357647D01*
X109163820Y-27395502D01*
X109283518Y-27431812D01*
X109408000Y-27444072D01*
X110048000Y-27444072D01*
X110172482Y-27431812D01*
X110292180Y-27395502D01*
X110363000Y-27357647D01*
X110433820Y-27395502D01*
X110553518Y-27431812D01*
X110678000Y-27444072D01*
X110712250Y-27441000D01*
X110871000Y-27282250D01*
X110871000Y-25933000D01*
X111125000Y-25933000D01*
X111125000Y-27282250D01*
X111283750Y-27441000D01*
X111318000Y-27444072D01*
X111442482Y-27431812D01*
X111562180Y-27395502D01*
X111672494Y-27336537D01*
X111769185Y-27257185D01*
X111848537Y-27160494D01*
X111907502Y-27050180D01*
X111943812Y-26930482D01*
X111956072Y-26806000D01*
X111953000Y-26091750D01*
X111794250Y-25933000D01*
X111125000Y-25933000D01*
X110871000Y-25933000D01*
X110851000Y-25933000D01*
X110851000Y-25679000D01*
X110871000Y-25679000D01*
X110871000Y-24329750D01*
X111125000Y-24329750D01*
X111125000Y-25679000D01*
X111794250Y-25679000D01*
X111953000Y-25520250D01*
X111956072Y-24806000D01*
X111943812Y-24681518D01*
X111907502Y-24561820D01*
X111848537Y-24451506D01*
X111769185Y-24354815D01*
X111672494Y-24275463D01*
X111562180Y-24216498D01*
X111442482Y-24180188D01*
X111318000Y-24167928D01*
X111283750Y-24171000D01*
X111125000Y-24329750D01*
X110871000Y-24329750D01*
X110712250Y-24171000D01*
X110678000Y-24167928D01*
X110553518Y-24180188D01*
X110433820Y-24216498D01*
X110363000Y-24254353D01*
X110292180Y-24216498D01*
X110250202Y-24203764D01*
X107556410Y-21509973D01*
X107680269Y-21417588D01*
X107875178Y-21201355D01*
X108024157Y-20951252D01*
X108121481Y-20676891D01*
X108000814Y-20447000D01*
X106807000Y-20447000D01*
X106807000Y-20467000D01*
X106553000Y-20467000D01*
X106553000Y-20447000D01*
X106533000Y-20447000D01*
X106533000Y-20193000D01*
X106553000Y-20193000D01*
X106553000Y-18999845D01*
X106807000Y-18999845D01*
X106807000Y-20193000D01*
X108000814Y-20193000D01*
X108121481Y-19963109D01*
X108024157Y-19688748D01*
X107875178Y-19438645D01*
X107680269Y-19222412D01*
X107446920Y-19048359D01*
X107184099Y-18923175D01*
X107036890Y-18878524D01*
X106807000Y-18999845D01*
X106553000Y-18999845D01*
X106323110Y-18878524D01*
X106175901Y-18923175D01*
X105913080Y-19048359D01*
X105679731Y-19222412D01*
X105484822Y-19438645D01*
X105415201Y-19555523D01*
X105380706Y-19490986D01*
X105195134Y-19264866D01*
X104969014Y-19079294D01*
X104711034Y-18941401D01*
X104431111Y-18856487D01*
X104212950Y-18835000D01*
X104067050Y-18835000D01*
X103848889Y-18856487D01*
X103568966Y-18941401D01*
X103310986Y-19079294D01*
X103084866Y-19264866D01*
X102899294Y-19490986D01*
X102870000Y-19545791D01*
X102840706Y-19490986D01*
X102655134Y-19264866D01*
X102429014Y-19079294D01*
X102171034Y-18941401D01*
X101891111Y-18856487D01*
X101672950Y-18835000D01*
X101527050Y-18835000D01*
X101308889Y-18856487D01*
X101028966Y-18941401D01*
X100770986Y-19079294D01*
X100544866Y-19264866D01*
X100359294Y-19490986D01*
X100330000Y-19545791D01*
X100300706Y-19490986D01*
X100115134Y-19264866D01*
X99889014Y-19079294D01*
X99631034Y-18941401D01*
X99351111Y-18856487D01*
X99132950Y-18835000D01*
X98987050Y-18835000D01*
X98768889Y-18856487D01*
X98488966Y-18941401D01*
X98230986Y-19079294D01*
X98004866Y-19264866D01*
X97980393Y-19294687D01*
X97959502Y-19225820D01*
X97900537Y-19115506D01*
X97821185Y-19018815D01*
X97724494Y-18939463D01*
X97614180Y-18880498D01*
X97494482Y-18844188D01*
X97370000Y-18831928D01*
X95670000Y-18831928D01*
X95545518Y-18844188D01*
X95425820Y-18880498D01*
X95315506Y-18939463D01*
X95218815Y-19018815D01*
X95139463Y-19115506D01*
X95080498Y-19225820D01*
X95044188Y-19345518D01*
X95035769Y-19431000D01*
X94797355Y-19431000D01*
X94700275Y-19351329D01*
X94552142Y-19272150D01*
X94391408Y-19223392D01*
X94224250Y-19206928D01*
X93786750Y-19206928D01*
X93619592Y-19223392D01*
X93458858Y-19272150D01*
X93310725Y-19351329D01*
X93289070Y-19369100D01*
X93222494Y-19314463D01*
X93112180Y-19255498D01*
X92992482Y-19219188D01*
X92868000Y-19206928D01*
X92716250Y-19210000D01*
X92557500Y-19368750D01*
X92557500Y-20193000D01*
X92577500Y-20193000D01*
X92577500Y-20447000D01*
X92557500Y-20447000D01*
X92557500Y-21271250D01*
X92716250Y-21430000D01*
X92868000Y-21433072D01*
X92992482Y-21420812D01*
X93112180Y-21384502D01*
X93222494Y-21325537D01*
X93289070Y-21270900D01*
X93310725Y-21288671D01*
X93458858Y-21367850D01*
X93619592Y-21416608D01*
X93786750Y-21433072D01*
X94224250Y-21433072D01*
X94391408Y-21416608D01*
X94552142Y-21367850D01*
X94700275Y-21288671D01*
X94797355Y-21209000D01*
X95035769Y-21209000D01*
X95044188Y-21294482D01*
X95080498Y-21414180D01*
X95139463Y-21524494D01*
X95218815Y-21621185D01*
X95315506Y-21700537D01*
X95425820Y-21759502D01*
X95545518Y-21795812D01*
X95670000Y-21808072D01*
X97155001Y-21808072D01*
X97155000Y-24173936D01*
X97094000Y-24167928D01*
X96454000Y-24167928D01*
X96329518Y-24180188D01*
X96209820Y-24216498D01*
X96099506Y-24275463D01*
X96002815Y-24354815D01*
X95969488Y-24395424D01*
X95834992Y-24305557D01*
X95610236Y-24212460D01*
X95371637Y-24165000D01*
X95128363Y-24165000D01*
X94889764Y-24212460D01*
X94778006Y-24258752D01*
X94789312Y-24221482D01*
X94801572Y-24097000D01*
X94798500Y-23907750D01*
X94639750Y-23749000D01*
X93853000Y-23749000D01*
X93853000Y-23769000D01*
X93599000Y-23769000D01*
X93599000Y-23749000D01*
X93579000Y-23749000D01*
X93579000Y-23495000D01*
X93599000Y-23495000D01*
X93599000Y-22670750D01*
X93853000Y-22670750D01*
X93853000Y-23495000D01*
X94639750Y-23495000D01*
X94798500Y-23336250D01*
X94801572Y-23147000D01*
X94789312Y-23022518D01*
X94753002Y-22902820D01*
X94694037Y-22792506D01*
X94614685Y-22695815D01*
X94517994Y-22616463D01*
X94407680Y-22557498D01*
X94287982Y-22521188D01*
X94163500Y-22508928D01*
X94011750Y-22512000D01*
X93853000Y-22670750D01*
X93599000Y-22670750D01*
X93440250Y-22512000D01*
X93288500Y-22508928D01*
X93164018Y-22521188D01*
X93044320Y-22557498D01*
X92934006Y-22616463D01*
X92867430Y-22671100D01*
X92845775Y-22653329D01*
X92697642Y-22574150D01*
X92536908Y-22525392D01*
X92369750Y-22508928D01*
X91932250Y-22508928D01*
X91765092Y-22525392D01*
X91604358Y-22574150D01*
X91456225Y-22653329D01*
X91326385Y-22759885D01*
X91219829Y-22889725D01*
X91140650Y-23037858D01*
X91091892Y-23198592D01*
X91075428Y-23365750D01*
X88290000Y-23365750D01*
X88290000Y-20795000D01*
X91354928Y-20795000D01*
X91367188Y-20919482D01*
X91403498Y-21039180D01*
X91462463Y-21149494D01*
X91541815Y-21246185D01*
X91638506Y-21325537D01*
X91748820Y-21384502D01*
X91868518Y-21420812D01*
X91993000Y-21433072D01*
X92144750Y-21430000D01*
X92303500Y-21271250D01*
X92303500Y-20447000D01*
X91516750Y-20447000D01*
X91358000Y-20605750D01*
X91354928Y-20795000D01*
X88290000Y-20795000D01*
X88290000Y-19845000D01*
X91354928Y-19845000D01*
X91358000Y-20034250D01*
X91516750Y-20193000D01*
X92303500Y-20193000D01*
X92303500Y-19368750D01*
X92144750Y-19210000D01*
X91993000Y-19206928D01*
X91868518Y-19219188D01*
X91748820Y-19255498D01*
X91638506Y-19314463D01*
X91541815Y-19393815D01*
X91462463Y-19490506D01*
X91403498Y-19600820D01*
X91367188Y-19720518D01*
X91354928Y-19845000D01*
X88290000Y-19845000D01*
X88290000Y-18440000D01*
X114910001Y-18440000D01*
X114910001Y-27813000D01*
X114910001Y-27813000D01*
G37*
X114910001Y-27813000D02*
X88290000Y-27813000D01*
X88290000Y-23365750D01*
X91075428Y-23365750D01*
X91075428Y-23878250D01*
X91091892Y-24045408D01*
X91140650Y-24206142D01*
X91219829Y-24354275D01*
X91326385Y-24484115D01*
X91419977Y-24560923D01*
X91419498Y-24561820D01*
X91383188Y-24681518D01*
X91370928Y-24806000D01*
X91370928Y-26806000D01*
X91383188Y-26930482D01*
X91419498Y-27050180D01*
X91478463Y-27160494D01*
X91557815Y-27257185D01*
X91654506Y-27336537D01*
X91764820Y-27395502D01*
X91884518Y-27431812D01*
X92009000Y-27444072D01*
X92649000Y-27444072D01*
X92773482Y-27431812D01*
X92893180Y-27395502D01*
X92964000Y-27357647D01*
X93034820Y-27395502D01*
X93154518Y-27431812D01*
X93279000Y-27444072D01*
X93919000Y-27444072D01*
X94043482Y-27431812D01*
X94139533Y-27402675D01*
X94140000Y-27425750D01*
X94298750Y-27584500D01*
X95123000Y-27584500D01*
X95123000Y-27564500D01*
X95377000Y-27564500D01*
X95377000Y-27584500D01*
X96201250Y-27584500D01*
X96351749Y-27434001D01*
X96454000Y-27444072D01*
X97094000Y-27444072D01*
X97218482Y-27431812D01*
X97338180Y-27395502D01*
X97409000Y-27357647D01*
X97479820Y-27395502D01*
X97599518Y-27431812D01*
X97724000Y-27444072D01*
X98364000Y-27444072D01*
X98488482Y-27431812D01*
X98608180Y-27395502D01*
X98679000Y-27357647D01*
X98749820Y-27395502D01*
X98869518Y-27431812D01*
X98994000Y-27444072D01*
X99028250Y-27441000D01*
X99187000Y-27282250D01*
X99187000Y-25933000D01*
X99167000Y-25933000D01*
X99167000Y-25679000D01*
X99187000Y-25679000D01*
X99187000Y-24329750D01*
X99028250Y-24171000D01*
X98994000Y-24167928D01*
X98933000Y-24173936D01*
X98933000Y-21799677D01*
X98987050Y-21805000D01*
X99132950Y-21805000D01*
X99351111Y-21783513D01*
X99631034Y-21698599D01*
X99889014Y-21560706D01*
X100115134Y-21375134D01*
X100300706Y-21149014D01*
X100330000Y-21094209D01*
X100359294Y-21149014D01*
X100544866Y-21375134D01*
X100770986Y-21560706D01*
X101028966Y-21698599D01*
X101308889Y-21783513D01*
X101527050Y-21805000D01*
X101672950Y-21805000D01*
X101813884Y-21791119D01*
X102997001Y-22974237D01*
X102997001Y-24173936D01*
X102936000Y-24167928D01*
X102296000Y-24167928D01*
X102171518Y-24180188D01*
X102051820Y-24216498D01*
X101941506Y-24275463D01*
X101844815Y-24354815D01*
X101811488Y-24395424D01*
X101676992Y-24305557D01*
X101452236Y-24212460D01*
X101213637Y-24165000D01*
X100970363Y-24165000D01*
X100731764Y-24212460D01*
X100507008Y-24305557D01*
X100304733Y-24440713D01*
X100209612Y-24535834D01*
X100164537Y-24451506D01*
X100085185Y-24354815D01*
X99988494Y-24275463D01*
X99878180Y-24216498D01*
X99758482Y-24180188D01*
X99634000Y-24167928D01*
X99599750Y-24171000D01*
X99441000Y-24329750D01*
X99441000Y-25679000D01*
X99461000Y-25679000D01*
X99461000Y-25933000D01*
X99441000Y-25933000D01*
X99441000Y-27282250D01*
X99599750Y-27441000D01*
X99634000Y-27444072D01*
X99758482Y-27431812D01*
X99878180Y-27395502D01*
X99980283Y-27340926D01*
X99982000Y-27425750D01*
X100140750Y-27584500D01*
X100965000Y-27584500D01*
X100965000Y-27564500D01*
X101219000Y-27564500D01*
X101219000Y-27584500D01*
X102043250Y-27584500D01*
X102193749Y-27434001D01*
X102296000Y-27444072D01*
X102936000Y-27444072D01*
X103060482Y-27431812D01*
X103180180Y-27395502D01*
X103251000Y-27357647D01*
X103321820Y-27395502D01*
X103441518Y-27431812D01*
X103566000Y-27444072D01*
X104206000Y-27444072D01*
X104330482Y-27431812D01*
X104450180Y-27395502D01*
X104521000Y-27357647D01*
X104591820Y-27395502D01*
X104711518Y-27431812D01*
X104836000Y-27444072D01*
X104870250Y-27441000D01*
X105029000Y-27282250D01*
X105029000Y-25933000D01*
X105009000Y-25933000D01*
X105009000Y-25679000D01*
X105029000Y-25679000D01*
X105029000Y-24329750D01*
X104870250Y-24171000D01*
X104836000Y-24167928D01*
X104775000Y-24173936D01*
X104775000Y-22649659D01*
X104779300Y-22605999D01*
X104775000Y-22562339D01*
X104775000Y-22562333D01*
X104762136Y-22431726D01*
X104762136Y-22431724D01*
X104731296Y-22330058D01*
X104711303Y-22264149D01*
X104628753Y-22109709D01*
X104517659Y-21974341D01*
X104483742Y-21946506D01*
X104330644Y-21793408D01*
X104353883Y-21791119D01*
X104392258Y-21829494D01*
X104392264Y-21829499D01*
X104784502Y-22221737D01*
X104812342Y-22255660D01*
X104947710Y-22366754D01*
X105102150Y-22449304D01*
X105196759Y-22478003D01*
X105269726Y-22500137D01*
X105286326Y-22501772D01*
X105400334Y-22513001D01*
X105400341Y-22513001D01*
X105444001Y-22517301D01*
X105487661Y-22513001D01*
X106044968Y-22513001D01*
X107799096Y-24267130D01*
X107783506Y-24275463D01*
X107686815Y-24354815D01*
X107653488Y-24395424D01*
X107518992Y-24305557D01*
X107294236Y-24212460D01*
X107055637Y-24165000D01*
X106812363Y-24165000D01*
X106573764Y-24212460D01*
X106349008Y-24305557D01*
X106146733Y-24440713D01*
X106051612Y-24535834D01*
X106006537Y-24451506D01*
X105927185Y-24354815D01*
X105830494Y-24275463D01*
X105720180Y-24216498D01*
X105600482Y-24180188D01*
X105476000Y-24167928D01*
X105441750Y-24171000D01*
X105283000Y-24329750D01*
X105283000Y-25679000D01*
X105303000Y-25679000D01*
X105303000Y-25933000D01*
X105283000Y-25933000D01*
X105283000Y-27282250D01*
X105441750Y-27441000D01*
X105476000Y-27444072D01*
X105600482Y-27431812D01*
X105720180Y-27395502D01*
X105822794Y-27340653D01*
X105824000Y-27400250D01*
X105982750Y-27559000D01*
X106807000Y-27559000D01*
X106807000Y-27539000D01*
X107061000Y-27539000D01*
X107061000Y-27559000D01*
X107885250Y-27559000D01*
X108012689Y-27431561D01*
X108013518Y-27431812D01*
X108138000Y-27444072D01*
X108778000Y-27444072D01*
X108902482Y-27431812D01*
X109022180Y-27395502D01*
X109093000Y-27357647D01*
X109163820Y-27395502D01*
X109283518Y-27431812D01*
X109408000Y-27444072D01*
X110048000Y-27444072D01*
X110172482Y-27431812D01*
X110292180Y-27395502D01*
X110363000Y-27357647D01*
X110433820Y-27395502D01*
X110553518Y-27431812D01*
X110678000Y-27444072D01*
X110712250Y-27441000D01*
X110871000Y-27282250D01*
X110871000Y-25933000D01*
X111125000Y-25933000D01*
X111125000Y-27282250D01*
X111283750Y-27441000D01*
X111318000Y-27444072D01*
X111442482Y-27431812D01*
X111562180Y-27395502D01*
X111672494Y-27336537D01*
X111769185Y-27257185D01*
X111848537Y-27160494D01*
X111907502Y-27050180D01*
X111943812Y-26930482D01*
X111956072Y-26806000D01*
X111953000Y-26091750D01*
X111794250Y-25933000D01*
X111125000Y-25933000D01*
X110871000Y-25933000D01*
X110851000Y-25933000D01*
X110851000Y-25679000D01*
X110871000Y-25679000D01*
X110871000Y-24329750D01*
X111125000Y-24329750D01*
X111125000Y-25679000D01*
X111794250Y-25679000D01*
X111953000Y-25520250D01*
X111956072Y-24806000D01*
X111943812Y-24681518D01*
X111907502Y-24561820D01*
X111848537Y-24451506D01*
X111769185Y-24354815D01*
X111672494Y-24275463D01*
X111562180Y-24216498D01*
X111442482Y-24180188D01*
X111318000Y-24167928D01*
X111283750Y-24171000D01*
X111125000Y-24329750D01*
X110871000Y-24329750D01*
X110712250Y-24171000D01*
X110678000Y-24167928D01*
X110553518Y-24180188D01*
X110433820Y-24216498D01*
X110363000Y-24254353D01*
X110292180Y-24216498D01*
X110250202Y-24203764D01*
X107556410Y-21509973D01*
X107680269Y-21417588D01*
X107875178Y-21201355D01*
X108024157Y-20951252D01*
X108121481Y-20676891D01*
X108000814Y-20447000D01*
X106807000Y-20447000D01*
X106807000Y-20467000D01*
X106553000Y-20467000D01*
X106553000Y-20447000D01*
X106533000Y-20447000D01*
X106533000Y-20193000D01*
X106553000Y-20193000D01*
X106553000Y-18999845D01*
X106807000Y-18999845D01*
X106807000Y-20193000D01*
X108000814Y-20193000D01*
X108121481Y-19963109D01*
X108024157Y-19688748D01*
X107875178Y-19438645D01*
X107680269Y-19222412D01*
X107446920Y-19048359D01*
X107184099Y-18923175D01*
X107036890Y-18878524D01*
X106807000Y-18999845D01*
X106553000Y-18999845D01*
X106323110Y-18878524D01*
X106175901Y-18923175D01*
X105913080Y-19048359D01*
X105679731Y-19222412D01*
X105484822Y-19438645D01*
X105415201Y-19555523D01*
X105380706Y-19490986D01*
X105195134Y-19264866D01*
X104969014Y-19079294D01*
X104711034Y-18941401D01*
X104431111Y-18856487D01*
X104212950Y-18835000D01*
X104067050Y-18835000D01*
X103848889Y-18856487D01*
X103568966Y-18941401D01*
X103310986Y-19079294D01*
X103084866Y-19264866D01*
X102899294Y-19490986D01*
X102870000Y-19545791D01*
X102840706Y-19490986D01*
X102655134Y-19264866D01*
X102429014Y-19079294D01*
X102171034Y-18941401D01*
X101891111Y-18856487D01*
X101672950Y-18835000D01*
X101527050Y-18835000D01*
X101308889Y-18856487D01*
X101028966Y-18941401D01*
X100770986Y-19079294D01*
X100544866Y-19264866D01*
X100359294Y-19490986D01*
X100330000Y-19545791D01*
X100300706Y-19490986D01*
X100115134Y-19264866D01*
X99889014Y-19079294D01*
X99631034Y-18941401D01*
X99351111Y-18856487D01*
X99132950Y-18835000D01*
X98987050Y-18835000D01*
X98768889Y-18856487D01*
X98488966Y-18941401D01*
X98230986Y-19079294D01*
X98004866Y-19264866D01*
X97980393Y-19294687D01*
X97959502Y-19225820D01*
X97900537Y-19115506D01*
X97821185Y-19018815D01*
X97724494Y-18939463D01*
X97614180Y-18880498D01*
X97494482Y-18844188D01*
X97370000Y-18831928D01*
X95670000Y-18831928D01*
X95545518Y-18844188D01*
X95425820Y-18880498D01*
X95315506Y-18939463D01*
X95218815Y-19018815D01*
X95139463Y-19115506D01*
X95080498Y-19225820D01*
X95044188Y-19345518D01*
X95035769Y-19431000D01*
X94797355Y-19431000D01*
X94700275Y-19351329D01*
X94552142Y-19272150D01*
X94391408Y-19223392D01*
X94224250Y-19206928D01*
X93786750Y-19206928D01*
X93619592Y-19223392D01*
X93458858Y-19272150D01*
X93310725Y-19351329D01*
X93289070Y-19369100D01*
X93222494Y-19314463D01*
X93112180Y-19255498D01*
X92992482Y-19219188D01*
X92868000Y-19206928D01*
X92716250Y-19210000D01*
X92557500Y-19368750D01*
X92557500Y-20193000D01*
X92577500Y-20193000D01*
X92577500Y-20447000D01*
X92557500Y-20447000D01*
X92557500Y-21271250D01*
X92716250Y-21430000D01*
X92868000Y-21433072D01*
X92992482Y-21420812D01*
X93112180Y-21384502D01*
X93222494Y-21325537D01*
X93289070Y-21270900D01*
X93310725Y-21288671D01*
X93458858Y-21367850D01*
X93619592Y-21416608D01*
X93786750Y-21433072D01*
X94224250Y-21433072D01*
X94391408Y-21416608D01*
X94552142Y-21367850D01*
X94700275Y-21288671D01*
X94797355Y-21209000D01*
X95035769Y-21209000D01*
X95044188Y-21294482D01*
X95080498Y-21414180D01*
X95139463Y-21524494D01*
X95218815Y-21621185D01*
X95315506Y-21700537D01*
X95425820Y-21759502D01*
X95545518Y-21795812D01*
X95670000Y-21808072D01*
X97155001Y-21808072D01*
X97155000Y-24173936D01*
X97094000Y-24167928D01*
X96454000Y-24167928D01*
X96329518Y-24180188D01*
X96209820Y-24216498D01*
X96099506Y-24275463D01*
X96002815Y-24354815D01*
X95969488Y-24395424D01*
X95834992Y-24305557D01*
X95610236Y-24212460D01*
X95371637Y-24165000D01*
X95128363Y-24165000D01*
X94889764Y-24212460D01*
X94778006Y-24258752D01*
X94789312Y-24221482D01*
X94801572Y-24097000D01*
X94798500Y-23907750D01*
X94639750Y-23749000D01*
X93853000Y-23749000D01*
X93853000Y-23769000D01*
X93599000Y-23769000D01*
X93599000Y-23749000D01*
X93579000Y-23749000D01*
X93579000Y-23495000D01*
X93599000Y-23495000D01*
X93599000Y-22670750D01*
X93853000Y-22670750D01*
X93853000Y-23495000D01*
X94639750Y-23495000D01*
X94798500Y-23336250D01*
X94801572Y-23147000D01*
X94789312Y-23022518D01*
X94753002Y-22902820D01*
X94694037Y-22792506D01*
X94614685Y-22695815D01*
X94517994Y-22616463D01*
X94407680Y-22557498D01*
X94287982Y-22521188D01*
X94163500Y-22508928D01*
X94011750Y-22512000D01*
X93853000Y-22670750D01*
X93599000Y-22670750D01*
X93440250Y-22512000D01*
X93288500Y-22508928D01*
X93164018Y-22521188D01*
X93044320Y-22557498D01*
X92934006Y-22616463D01*
X92867430Y-22671100D01*
X92845775Y-22653329D01*
X92697642Y-22574150D01*
X92536908Y-22525392D01*
X92369750Y-22508928D01*
X91932250Y-22508928D01*
X91765092Y-22525392D01*
X91604358Y-22574150D01*
X91456225Y-22653329D01*
X91326385Y-22759885D01*
X91219829Y-22889725D01*
X91140650Y-23037858D01*
X91091892Y-23198592D01*
X91075428Y-23365750D01*
X88290000Y-23365750D01*
X88290000Y-20795000D01*
X91354928Y-20795000D01*
X91367188Y-20919482D01*
X91403498Y-21039180D01*
X91462463Y-21149494D01*
X91541815Y-21246185D01*
X91638506Y-21325537D01*
X91748820Y-21384502D01*
X91868518Y-21420812D01*
X91993000Y-21433072D01*
X92144750Y-21430000D01*
X92303500Y-21271250D01*
X92303500Y-20447000D01*
X91516750Y-20447000D01*
X91358000Y-20605750D01*
X91354928Y-20795000D01*
X88290000Y-20795000D01*
X88290000Y-19845000D01*
X91354928Y-19845000D01*
X91358000Y-20034250D01*
X91516750Y-20193000D01*
X92303500Y-20193000D01*
X92303500Y-19368750D01*
X92144750Y-19210000D01*
X91993000Y-19206928D01*
X91868518Y-19219188D01*
X91748820Y-19255498D01*
X91638506Y-19314463D01*
X91541815Y-19393815D01*
X91462463Y-19490506D01*
X91403498Y-19600820D01*
X91367188Y-19720518D01*
X91354928Y-19845000D01*
X88290000Y-19845000D01*
X88290000Y-18440000D01*
X114910001Y-18440000D01*
X114910001Y-27813000D01*
G36*
X107569000Y-39878000D02*
G01*
X107571440Y-39902776D01*
X107578667Y-39926601D01*
X107590403Y-39948557D01*
X107606197Y-39967803D01*
X109892197Y-42253803D01*
X109911443Y-42269597D01*
X109933399Y-42281333D01*
X109957224Y-42288560D01*
X109982000Y-42291000D01*
X114910000Y-42291000D01*
X114910000Y-51689000D01*
X109982000Y-51689000D01*
X109957224Y-51691440D01*
X109933399Y-51698667D01*
X109911443Y-51710403D01*
X109892197Y-51726197D01*
X107606197Y-54012197D01*
X107590403Y-54031443D01*
X107578667Y-54053399D01*
X107571440Y-54077224D01*
X107569000Y-54102000D01*
X107569000Y-59030000D01*
X95631000Y-59030000D01*
X95631000Y-54102000D01*
X95628560Y-54077224D01*
X95621333Y-54053399D01*
X95609597Y-54031443D01*
X95593803Y-54012197D01*
X93307803Y-51726197D01*
X93288557Y-51710403D01*
X93266601Y-51698667D01*
X93242776Y-51691440D01*
X93218000Y-51689000D01*
X88290000Y-51689000D01*
X88290000Y-49022000D01*
X99187000Y-49022000D01*
X99187000Y-51054000D01*
X99189440Y-51078776D01*
X99196667Y-51102601D01*
X99208403Y-51124557D01*
X99224197Y-51143803D01*
X100748197Y-52667803D01*
X100767443Y-52683597D01*
X100789399Y-52695333D01*
X100813224Y-52702560D01*
X100838000Y-52705000D01*
X102870000Y-52705000D01*
X102894776Y-52702560D01*
X102918601Y-52695333D01*
X102940557Y-52683597D01*
X102959803Y-52667803D01*
X104483803Y-51143803D01*
X104499597Y-51124557D01*
X104511333Y-51102601D01*
X104518560Y-51078776D01*
X104521000Y-51054000D01*
X104521000Y-49022000D01*
X104518560Y-48997224D01*
X104511333Y-48973399D01*
X104499597Y-48951443D01*
X104483803Y-48932197D01*
X102959803Y-47408197D01*
X102940557Y-47392403D01*
X102918601Y-47380667D01*
X102894776Y-47373440D01*
X102870000Y-47371000D01*
X100838000Y-47371000D01*
X100813224Y-47373440D01*
X100789399Y-47380667D01*
X100767443Y-47392403D01*
X100748197Y-47408197D01*
X99224197Y-48932197D01*
X99208403Y-48951443D01*
X99196667Y-48973399D01*
X99189440Y-48997224D01*
X99187000Y-49022000D01*
X88290000Y-49022000D01*
X88290000Y-42291000D01*
X93218000Y-42291000D01*
X93242776Y-42288560D01*
X93266601Y-42281333D01*
X93288557Y-42269597D01*
X93307803Y-42253803D01*
X95377001Y-40184605D01*
X95377001Y-40271764D01*
X95002264Y-40646501D01*
X94968341Y-40674341D01*
X94857247Y-40809710D01*
X94774697Y-40964150D01*
X94723864Y-41131727D01*
X94711000Y-41262334D01*
X94711000Y-41262340D01*
X94706700Y-41306000D01*
X94711000Y-41349660D01*
X94711001Y-44727518D01*
X94514655Y-44888655D01*
X94279097Y-45175683D01*
X94104061Y-45503152D01*
X93996275Y-45858476D01*
X93959880Y-46228000D01*
X93996275Y-46597524D01*
X94104061Y-46952848D01*
X94279097Y-47280317D01*
X94514655Y-47567345D01*
X94801683Y-47802903D01*
X95129152Y-47977939D01*
X95484476Y-48085725D01*
X95761403Y-48113000D01*
X95946597Y-48113000D01*
X96223524Y-48085725D01*
X96578848Y-47977939D01*
X96906317Y-47802903D01*
X97193345Y-47567345D01*
X97428903Y-47280317D01*
X97603939Y-46952848D01*
X97696521Y-46647645D01*
X106016305Y-46647645D01*
X106092867Y-46900048D01*
X106257817Y-47230715D01*
X106484107Y-47522848D01*
X106763041Y-47765221D01*
X107083900Y-47948519D01*
X107434354Y-48065699D01*
X107727000Y-47949971D01*
X107727000Y-46355000D01*
X107981000Y-46355000D01*
X107981000Y-47949971D01*
X108273646Y-48065699D01*
X108624100Y-47948519D01*
X108944959Y-47765221D01*
X109223893Y-47522848D01*
X109450183Y-47230715D01*
X109615133Y-46900048D01*
X109691695Y-46647645D01*
X109575572Y-46355000D01*
X107981000Y-46355000D01*
X107727000Y-46355000D01*
X106132428Y-46355000D01*
X106016305Y-46647645D01*
X97696521Y-46647645D01*
X97711725Y-46597524D01*
X97748120Y-46228000D01*
X97711725Y-45858476D01*
X97696522Y-45808355D01*
X106016305Y-45808355D01*
X106132428Y-46101000D01*
X107727000Y-46101000D01*
X107727000Y-44506029D01*
X107981000Y-44506029D01*
X107981000Y-46101000D01*
X109575572Y-46101000D01*
X109691695Y-45808355D01*
X109615133Y-45555952D01*
X109450183Y-45225285D01*
X109223893Y-44933152D01*
X108944959Y-44690779D01*
X108624100Y-44507481D01*
X108273646Y-44390301D01*
X107981000Y-44506029D01*
X107727000Y-44506029D01*
X107434354Y-44390301D01*
X107083900Y-44507481D01*
X106763041Y-44690779D01*
X106484107Y-44933152D01*
X106257817Y-45225285D01*
X106092867Y-45555952D01*
X106016305Y-45808355D01*
X97696522Y-45808355D01*
X97603939Y-45503152D01*
X97428903Y-45175683D01*
X97193345Y-44888655D01*
X96906317Y-44653097D01*
X96578848Y-44478061D01*
X96489000Y-44450806D01*
X96489000Y-43502780D01*
X96559043Y-43560263D01*
X96886512Y-43735299D01*
X97241836Y-43843085D01*
X97518763Y-43870360D01*
X97703957Y-43870360D01*
X97980884Y-43843085D01*
X98336208Y-43735299D01*
X98663677Y-43560263D01*
X98950705Y-43324705D01*
X99186263Y-43037677D01*
X99361299Y-42710208D01*
X99469085Y-42354884D01*
X99505480Y-41985360D01*
X99493924Y-41868032D01*
X99911742Y-41450214D01*
X99945659Y-41422379D01*
X100056753Y-41287011D01*
X100139303Y-41132571D01*
X100161323Y-41059978D01*
X100279097Y-41280317D01*
X100514655Y-41567345D01*
X100801683Y-41802903D01*
X101129152Y-41977939D01*
X101484476Y-42085725D01*
X101761403Y-42113000D01*
X101946597Y-42113000D01*
X102223524Y-42085725D01*
X102578848Y-41977939D01*
X102906317Y-41802903D01*
X103193345Y-41567345D01*
X103428903Y-41280317D01*
X103603939Y-40952848D01*
X103711725Y-40597524D01*
X103748120Y-40228000D01*
X103711725Y-39858476D01*
X103603939Y-39503152D01*
X103428903Y-39175683D01*
X103193345Y-38888655D01*
X103191955Y-38887514D01*
X105028106Y-37051363D01*
X105017338Y-37071508D01*
X104966504Y-37239086D01*
X104949340Y-37413360D01*
X104953641Y-37457030D01*
X104953640Y-40484878D01*
X104757295Y-40646015D01*
X104521737Y-40933043D01*
X104346701Y-41260512D01*
X104238915Y-41615836D01*
X104202520Y-41985360D01*
X104238915Y-42354884D01*
X104346701Y-42710208D01*
X104521737Y-43037677D01*
X104757295Y-43324705D01*
X105044323Y-43560263D01*
X105371792Y-43735299D01*
X105727116Y-43843085D01*
X106004043Y-43870360D01*
X106189237Y-43870360D01*
X106466164Y-43843085D01*
X106821488Y-43735299D01*
X107148957Y-43560263D01*
X107435985Y-43324705D01*
X107671543Y-43037677D01*
X107846579Y-42710208D01*
X107954365Y-42354884D01*
X107990760Y-41985360D01*
X107954365Y-41615836D01*
X107846579Y-41260512D01*
X107671543Y-40933043D01*
X107435985Y-40646015D01*
X107148957Y-40410457D01*
X106821488Y-40235421D01*
X106731640Y-40208166D01*
X106731640Y-37781595D01*
X107569000Y-36944235D01*
X107569000Y-39878000D01*
X107569000Y-39878000D01*
G37*
X107569000Y-39878000D02*
X107571440Y-39902776D01*
X107578667Y-39926601D01*
X107590403Y-39948557D01*
X107606197Y-39967803D01*
X109892197Y-42253803D01*
X109911443Y-42269597D01*
X109933399Y-42281333D01*
X109957224Y-42288560D01*
X109982000Y-42291000D01*
X114910000Y-42291000D01*
X114910000Y-51689000D01*
X109982000Y-51689000D01*
X109957224Y-51691440D01*
X109933399Y-51698667D01*
X109911443Y-51710403D01*
X109892197Y-51726197D01*
X107606197Y-54012197D01*
X107590403Y-54031443D01*
X107578667Y-54053399D01*
X107571440Y-54077224D01*
X107569000Y-54102000D01*
X107569000Y-59030000D01*
X95631000Y-59030000D01*
X95631000Y-54102000D01*
X95628560Y-54077224D01*
X95621333Y-54053399D01*
X95609597Y-54031443D01*
X95593803Y-54012197D01*
X93307803Y-51726197D01*
X93288557Y-51710403D01*
X93266601Y-51698667D01*
X93242776Y-51691440D01*
X93218000Y-51689000D01*
X88290000Y-51689000D01*
X88290000Y-49022000D01*
X99187000Y-49022000D01*
X99187000Y-51054000D01*
X99189440Y-51078776D01*
X99196667Y-51102601D01*
X99208403Y-51124557D01*
X99224197Y-51143803D01*
X100748197Y-52667803D01*
X100767443Y-52683597D01*
X100789399Y-52695333D01*
X100813224Y-52702560D01*
X100838000Y-52705000D01*
X102870000Y-52705000D01*
X102894776Y-52702560D01*
X102918601Y-52695333D01*
X102940557Y-52683597D01*
X102959803Y-52667803D01*
X104483803Y-51143803D01*
X104499597Y-51124557D01*
X104511333Y-51102601D01*
X104518560Y-51078776D01*
X104521000Y-51054000D01*
X104521000Y-49022000D01*
X104518560Y-48997224D01*
X104511333Y-48973399D01*
X104499597Y-48951443D01*
X104483803Y-48932197D01*
X102959803Y-47408197D01*
X102940557Y-47392403D01*
X102918601Y-47380667D01*
X102894776Y-47373440D01*
X102870000Y-47371000D01*
X100838000Y-47371000D01*
X100813224Y-47373440D01*
X100789399Y-47380667D01*
X100767443Y-47392403D01*
X100748197Y-47408197D01*
X99224197Y-48932197D01*
X99208403Y-48951443D01*
X99196667Y-48973399D01*
X99189440Y-48997224D01*
X99187000Y-49022000D01*
X88290000Y-49022000D01*
X88290000Y-42291000D01*
X93218000Y-42291000D01*
X93242776Y-42288560D01*
X93266601Y-42281333D01*
X93288557Y-42269597D01*
X93307803Y-42253803D01*
X95377001Y-40184605D01*
X95377001Y-40271764D01*
X95002264Y-40646501D01*
X94968341Y-40674341D01*
X94857247Y-40809710D01*
X94774697Y-40964150D01*
X94723864Y-41131727D01*
X94711000Y-41262334D01*
X94711000Y-41262340D01*
X94706700Y-41306000D01*
X94711000Y-41349660D01*
X94711001Y-44727518D01*
X94514655Y-44888655D01*
X94279097Y-45175683D01*
X94104061Y-45503152D01*
X93996275Y-45858476D01*
X93959880Y-46228000D01*
X93996275Y-46597524D01*
X94104061Y-46952848D01*
X94279097Y-47280317D01*
X94514655Y-47567345D01*
X94801683Y-47802903D01*
X95129152Y-47977939D01*
X95484476Y-48085725D01*
X95761403Y-48113000D01*
X95946597Y-48113000D01*
X96223524Y-48085725D01*
X96578848Y-47977939D01*
X96906317Y-47802903D01*
X97193345Y-47567345D01*
X97428903Y-47280317D01*
X97603939Y-46952848D01*
X97696521Y-46647645D01*
X106016305Y-46647645D01*
X106092867Y-46900048D01*
X106257817Y-47230715D01*
X106484107Y-47522848D01*
X106763041Y-47765221D01*
X107083900Y-47948519D01*
X107434354Y-48065699D01*
X107727000Y-47949971D01*
X107727000Y-46355000D01*
X107981000Y-46355000D01*
X107981000Y-47949971D01*
X108273646Y-48065699D01*
X108624100Y-47948519D01*
X108944959Y-47765221D01*
X109223893Y-47522848D01*
X109450183Y-47230715D01*
X109615133Y-46900048D01*
X109691695Y-46647645D01*
X109575572Y-46355000D01*
X107981000Y-46355000D01*
X107727000Y-46355000D01*
X106132428Y-46355000D01*
X106016305Y-46647645D01*
X97696521Y-46647645D01*
X97711725Y-46597524D01*
X97748120Y-46228000D01*
X97711725Y-45858476D01*
X97696522Y-45808355D01*
X106016305Y-45808355D01*
X106132428Y-46101000D01*
X107727000Y-46101000D01*
X107727000Y-44506029D01*
X107981000Y-44506029D01*
X107981000Y-46101000D01*
X109575572Y-46101000D01*
X109691695Y-45808355D01*
X109615133Y-45555952D01*
X109450183Y-45225285D01*
X109223893Y-44933152D01*
X108944959Y-44690779D01*
X108624100Y-44507481D01*
X108273646Y-44390301D01*
X107981000Y-44506029D01*
X107727000Y-44506029D01*
X107434354Y-44390301D01*
X107083900Y-44507481D01*
X106763041Y-44690779D01*
X106484107Y-44933152D01*
X106257817Y-45225285D01*
X106092867Y-45555952D01*
X106016305Y-45808355D01*
X97696522Y-45808355D01*
X97603939Y-45503152D01*
X97428903Y-45175683D01*
X97193345Y-44888655D01*
X96906317Y-44653097D01*
X96578848Y-44478061D01*
X96489000Y-44450806D01*
X96489000Y-43502780D01*
X96559043Y-43560263D01*
X96886512Y-43735299D01*
X97241836Y-43843085D01*
X97518763Y-43870360D01*
X97703957Y-43870360D01*
X97980884Y-43843085D01*
X98336208Y-43735299D01*
X98663677Y-43560263D01*
X98950705Y-43324705D01*
X99186263Y-43037677D01*
X99361299Y-42710208D01*
X99469085Y-42354884D01*
X99505480Y-41985360D01*
X99493924Y-41868032D01*
X99911742Y-41450214D01*
X99945659Y-41422379D01*
X100056753Y-41287011D01*
X100139303Y-41132571D01*
X100161323Y-41059978D01*
X100279097Y-41280317D01*
X100514655Y-41567345D01*
X100801683Y-41802903D01*
X101129152Y-41977939D01*
X101484476Y-42085725D01*
X101761403Y-42113000D01*
X101946597Y-42113000D01*
X102223524Y-42085725D01*
X102578848Y-41977939D01*
X102906317Y-41802903D01*
X103193345Y-41567345D01*
X103428903Y-41280317D01*
X103603939Y-40952848D01*
X103711725Y-40597524D01*
X103748120Y-40228000D01*
X103711725Y-39858476D01*
X103603939Y-39503152D01*
X103428903Y-39175683D01*
X103193345Y-38888655D01*
X103191955Y-38887514D01*
X105028106Y-37051363D01*
X105017338Y-37071508D01*
X104966504Y-37239086D01*
X104949340Y-37413360D01*
X104953641Y-37457030D01*
X104953640Y-40484878D01*
X104757295Y-40646015D01*
X104521737Y-40933043D01*
X104346701Y-41260512D01*
X104238915Y-41615836D01*
X104202520Y-41985360D01*
X104238915Y-42354884D01*
X104346701Y-42710208D01*
X104521737Y-43037677D01*
X104757295Y-43324705D01*
X105044323Y-43560263D01*
X105371792Y-43735299D01*
X105727116Y-43843085D01*
X106004043Y-43870360D01*
X106189237Y-43870360D01*
X106466164Y-43843085D01*
X106821488Y-43735299D01*
X107148957Y-43560263D01*
X107435985Y-43324705D01*
X107671543Y-43037677D01*
X107846579Y-42710208D01*
X107954365Y-42354884D01*
X107990760Y-41985360D01*
X107954365Y-41615836D01*
X107846579Y-41260512D01*
X107671543Y-40933043D01*
X107435985Y-40646015D01*
X107148957Y-40410457D01*
X106821488Y-40235421D01*
X106731640Y-40208166D01*
X106731640Y-37781595D01*
X107569000Y-36944235D01*
X107569000Y-39878000D01*
G36*
X97479820Y-33695502D02*
G01*
X97599518Y-33731812D01*
X97724000Y-33744072D01*
X98364000Y-33744072D01*
X98425000Y-33738064D01*
X98425001Y-40282882D01*
X98336208Y-40235421D01*
X97980884Y-40127635D01*
X97703957Y-40100360D01*
X97518763Y-40100360D01*
X97241836Y-40127635D01*
X97155000Y-40153976D01*
X97155000Y-36401582D01*
X97159300Y-36357922D01*
X97155000Y-36314262D01*
X97155000Y-36314255D01*
X97142136Y-36183648D01*
X97091303Y-36016071D01*
X97008753Y-35861631D01*
X96897659Y-35726263D01*
X96863743Y-35698429D01*
X95989144Y-34823831D01*
X96079494Y-34775537D01*
X96176185Y-34696185D01*
X96255537Y-34599494D01*
X96314502Y-34489180D01*
X96350812Y-34369482D01*
X96363072Y-34245000D01*
X96360000Y-34093250D01*
X96201250Y-33934500D01*
X95377000Y-33934500D01*
X95377000Y-33954500D01*
X95123000Y-33954500D01*
X95123000Y-33934500D01*
X95103000Y-33934500D01*
X95103000Y-33680500D01*
X95123000Y-33680500D01*
X95123000Y-33660500D01*
X95377000Y-33660500D01*
X95377000Y-33680500D01*
X96181754Y-33680500D01*
X96209820Y-33695502D01*
X96329518Y-33731812D01*
X96454000Y-33744072D01*
X97094000Y-33744072D01*
X97218482Y-33731812D01*
X97338180Y-33695502D01*
X97409000Y-33657647D01*
X97479820Y-33695502D01*
X97479820Y-33695502D01*
G37*
X97479820Y-33695502D02*
X97599518Y-33731812D01*
X97724000Y-33744072D01*
X98364000Y-33744072D01*
X98425000Y-33738064D01*
X98425001Y-40282882D01*
X98336208Y-40235421D01*
X97980884Y-40127635D01*
X97703957Y-40100360D01*
X97518763Y-40100360D01*
X97241836Y-40127635D01*
X97155000Y-40153976D01*
X97155000Y-36401582D01*
X97159300Y-36357922D01*
X97155000Y-36314262D01*
X97155000Y-36314255D01*
X97142136Y-36183648D01*
X97091303Y-36016071D01*
X97008753Y-35861631D01*
X96897659Y-35726263D01*
X96863743Y-35698429D01*
X95989144Y-34823831D01*
X96079494Y-34775537D01*
X96176185Y-34696185D01*
X96255537Y-34599494D01*
X96314502Y-34489180D01*
X96350812Y-34369482D01*
X96363072Y-34245000D01*
X96360000Y-34093250D01*
X96201250Y-33934500D01*
X95377000Y-33934500D01*
X95377000Y-33954500D01*
X95123000Y-33954500D01*
X95123000Y-33934500D01*
X95103000Y-33934500D01*
X95103000Y-33680500D01*
X95123000Y-33680500D01*
X95123000Y-33660500D01*
X95377000Y-33660500D01*
X95377000Y-33680500D01*
X96181754Y-33680500D01*
X96209820Y-33695502D01*
X96329518Y-33731812D01*
X96454000Y-33744072D01*
X97094000Y-33744072D01*
X97218482Y-33731812D01*
X97338180Y-33695502D01*
X97409000Y-33657647D01*
X97479820Y-33695502D01*
G36*
X103321820Y-33695502D02*
G01*
X103441518Y-33731812D01*
X103566000Y-33744072D01*
X104206000Y-33744072D01*
X104267001Y-33738064D01*
X104267000Y-35297999D01*
X101038464Y-38526535D01*
X100801683Y-38653097D01*
X100514655Y-38888655D01*
X100279097Y-39175683D01*
X100203000Y-39318050D01*
X100203000Y-34726702D01*
X100262506Y-34775537D01*
X100372820Y-34834502D01*
X100492518Y-34870812D01*
X100617000Y-34883072D01*
X100806250Y-34880000D01*
X100965000Y-34721250D01*
X100965000Y-33934500D01*
X101219000Y-33934500D01*
X101219000Y-34721250D01*
X101377750Y-34880000D01*
X101567000Y-34883072D01*
X101691482Y-34870812D01*
X101811180Y-34834502D01*
X101921494Y-34775537D01*
X102018185Y-34696185D01*
X102097537Y-34599494D01*
X102156502Y-34489180D01*
X102192812Y-34369482D01*
X102205072Y-34245000D01*
X102202000Y-34093250D01*
X102043250Y-33934500D01*
X101219000Y-33934500D01*
X100965000Y-33934500D01*
X100945000Y-33934500D01*
X100945000Y-33680500D01*
X100965000Y-33680500D01*
X100965000Y-33660500D01*
X101219000Y-33660500D01*
X101219000Y-33680500D01*
X102023754Y-33680500D01*
X102051820Y-33695502D01*
X102171518Y-33731812D01*
X102296000Y-33744072D01*
X102936000Y-33744072D01*
X103060482Y-33731812D01*
X103180180Y-33695502D01*
X103251000Y-33657647D01*
X103321820Y-33695502D01*
X103321820Y-33695502D01*
G37*
X103321820Y-33695502D02*
X103441518Y-33731812D01*
X103566000Y-33744072D01*
X104206000Y-33744072D01*
X104267001Y-33738064D01*
X104267000Y-35297999D01*
X101038464Y-38526535D01*
X100801683Y-38653097D01*
X100514655Y-38888655D01*
X100279097Y-39175683D01*
X100203000Y-39318050D01*
X100203000Y-34726702D01*
X100262506Y-34775537D01*
X100372820Y-34834502D01*
X100492518Y-34870812D01*
X100617000Y-34883072D01*
X100806250Y-34880000D01*
X100965000Y-34721250D01*
X100965000Y-33934500D01*
X101219000Y-33934500D01*
X101219000Y-34721250D01*
X101377750Y-34880000D01*
X101567000Y-34883072D01*
X101691482Y-34870812D01*
X101811180Y-34834502D01*
X101921494Y-34775537D01*
X102018185Y-34696185D01*
X102097537Y-34599494D01*
X102156502Y-34489180D01*
X102192812Y-34369482D01*
X102205072Y-34245000D01*
X102202000Y-34093250D01*
X102043250Y-33934500D01*
X101219000Y-33934500D01*
X100965000Y-33934500D01*
X100945000Y-33934500D01*
X100945000Y-33680500D01*
X100965000Y-33680500D01*
X100965000Y-33660500D01*
X101219000Y-33660500D01*
X101219000Y-33680500D01*
X102023754Y-33680500D01*
X102051820Y-33695502D01*
X102171518Y-33731812D01*
X102296000Y-33744072D01*
X102936000Y-33744072D01*
X103060482Y-33731812D01*
X103180180Y-33695502D01*
X103251000Y-33657647D01*
X103321820Y-33695502D01*
G36*
X107061000Y-33680500D02*
G01*
X107865754Y-33680500D01*
X107893820Y-33695502D01*
X108013518Y-33731812D01*
X108138000Y-33744072D01*
X108254692Y-33744072D01*
X107974757Y-34024007D01*
X107885250Y-33934500D01*
X107061000Y-33934500D01*
X107061000Y-34721250D01*
X107169257Y-34829507D01*
X105970536Y-36028229D01*
X105981303Y-36008085D01*
X106024707Y-35865000D01*
X106032136Y-35840510D01*
X106035406Y-35807310D01*
X106045000Y-35709901D01*
X106045000Y-35709895D01*
X106049300Y-35666235D01*
X106045000Y-35622575D01*
X106045000Y-34726702D01*
X106104506Y-34775537D01*
X106214820Y-34834502D01*
X106334518Y-34870812D01*
X106459000Y-34883072D01*
X106648250Y-34880000D01*
X106807000Y-34721250D01*
X106807000Y-33934500D01*
X106787000Y-33934500D01*
X106787000Y-33680500D01*
X106807000Y-33680500D01*
X106807000Y-33660500D01*
X107061000Y-33660500D01*
X107061000Y-33680500D01*
X107061000Y-33680500D01*
G37*
X107061000Y-33680500D02*
X107865754Y-33680500D01*
X107893820Y-33695502D01*
X108013518Y-33731812D01*
X108138000Y-33744072D01*
X108254692Y-33744072D01*
X107974757Y-34024007D01*
X107885250Y-33934500D01*
X107061000Y-33934500D01*
X107061000Y-34721250D01*
X107169257Y-34829507D01*
X105970536Y-36028229D01*
X105981303Y-36008085D01*
X106024707Y-35865000D01*
X106032136Y-35840510D01*
X106035406Y-35807310D01*
X106045000Y-35709901D01*
X106045000Y-35709895D01*
X106049300Y-35666235D01*
X106045000Y-35622575D01*
X106045000Y-34726702D01*
X106104506Y-34775537D01*
X106214820Y-34834502D01*
X106334518Y-34870812D01*
X106459000Y-34883072D01*
X106648250Y-34880000D01*
X106807000Y-34721250D01*
X106807000Y-33934500D01*
X106787000Y-33934500D01*
X106787000Y-33680500D01*
X106807000Y-33680500D01*
X106807000Y-33660500D01*
X107061000Y-33660500D01*
X107061000Y-33680500D01*
G36*
X93726000Y-31979000D02*
G01*
X93746000Y-31979000D01*
X93746000Y-32233000D01*
X93726000Y-32233000D01*
X93726000Y-32253000D01*
X93472000Y-32253000D01*
X93472000Y-32233000D01*
X93452000Y-32233000D01*
X93452000Y-31979000D01*
X93472000Y-31979000D01*
X93472000Y-31959000D01*
X93726000Y-31959000D01*
X93726000Y-31979000D01*
X93726000Y-31979000D01*
G37*
X93726000Y-31979000D02*
X93746000Y-31979000D01*
X93746000Y-32233000D01*
X93726000Y-32233000D01*
X93726000Y-32253000D01*
X93472000Y-32253000D01*
X93472000Y-32233000D01*
X93452000Y-32233000D01*
X93452000Y-31979000D01*
X93472000Y-31979000D01*
X93472000Y-31959000D01*
X93726000Y-31959000D01*
X93726000Y-31979000D01*
M02*
