M48
METRIC,TZ
T1C0.600
T2C1.000
T3C1.300
T4C3.200
%
G90
G05
T1
X91694Y-20320
X94488Y-23622
X95250Y-25400
X96012Y-34544
X99255Y-27373
X101092Y-25400
X101092Y-34544
X101854Y-46228
X105097Y-27373
X106934Y-25400
X106934Y-34544
T2
X96520Y-20320
X99060Y-20320
X101600Y-20320
X104140Y-20320
X106680Y-20320
T3
X95854Y-46228
X97611Y-41985
X101854Y-40228
X101854Y-50128
X106097Y-41985
X107854Y-46228
T4
X111760Y-38100
X111760Y-55880
X91440Y-55880
X91440Y-38100
T0
M30
