G04 #@! TF.GenerationSoftware,KiCad,Pcbnew,5.1.2-f72e74a~84~ubuntu16.04.1*
G04 #@! TF.CreationDate,2019-07-19T18:17:23+01:00*
G04 #@! TF.ProjectId,DigitalPot_OptoIsolator,44696769-7461-46c5-906f-745f4f70746f,rev?*
G04 #@! TF.SameCoordinates,Original*
G04 #@! TF.FileFunction,Legend,Top*
G04 #@! TF.FilePolarity,Positive*
%FSLAX46Y46*%
G04 Gerber Fmt 4.6, Leading zero omitted, Abs format (unit mm)*
G04 Created by KiCad (PCBNEW 5.1.2-f72e74a~84~ubuntu16.04.1) date 2019-07-19 18:17:23*
%MOMM*%
%LPD*%
G04 APERTURE LIST*
%ADD10C,0.120000*%
%ADD11C,0.110000*%
G04 APERTURE END LIST*
D10*
X109974000Y-46228000D02*
G75*
G03X109974000Y-46228000I-8120000J0D01*
G01*
X92775721Y-24132000D02*
X93101279Y-24132000D01*
X92775721Y-23112000D02*
X93101279Y-23112000D01*
X107444000Y-33182779D02*
X107444000Y-32857221D01*
X106424000Y-33182779D02*
X106424000Y-32857221D01*
X101602000Y-33182779D02*
X101602000Y-32857221D01*
X100582000Y-33182779D02*
X100582000Y-32857221D01*
X95760000Y-33182779D02*
X95760000Y-32857221D01*
X94740000Y-33182779D02*
X94740000Y-32857221D01*
X95760000Y-26761221D02*
X95760000Y-27086779D01*
X94740000Y-26761221D02*
X94740000Y-27086779D01*
X101602000Y-26761221D02*
X101602000Y-27086779D01*
X100582000Y-26761221D02*
X100582000Y-27086779D01*
X106424000Y-26735721D02*
X106424000Y-27061279D01*
X107444000Y-26735721D02*
X107444000Y-27061279D01*
X93380779Y-19810000D02*
X93055221Y-19810000D01*
X93380779Y-20830000D02*
X93055221Y-20830000D01*
X96344000Y-31356000D02*
X96344000Y-33056000D01*
X99744000Y-26556000D02*
X100044000Y-26556000D01*
X100044000Y-26556000D02*
X100044000Y-31356000D01*
X100044000Y-31356000D02*
X99744000Y-31356000D01*
X96344000Y-31356000D02*
X96044000Y-31356000D01*
X96044000Y-31356000D02*
X96044000Y-26556000D01*
X96044000Y-26556000D02*
X96344000Y-26556000D01*
X101886000Y-26556000D02*
X102186000Y-26556000D01*
X101886000Y-31356000D02*
X101886000Y-26556000D01*
X102186000Y-31356000D02*
X101886000Y-31356000D01*
X105886000Y-31356000D02*
X105586000Y-31356000D01*
X105886000Y-26556000D02*
X105886000Y-31356000D01*
X105586000Y-26556000D02*
X105886000Y-26556000D01*
X102186000Y-31356000D02*
X102186000Y-33056000D01*
X108028000Y-31356000D02*
X108028000Y-33056000D01*
X111428000Y-26556000D02*
X111728000Y-26556000D01*
X111728000Y-26556000D02*
X111728000Y-31356000D01*
X111728000Y-31356000D02*
X111428000Y-31356000D01*
X108028000Y-31356000D02*
X107728000Y-31356000D01*
X107728000Y-31356000D02*
X107728000Y-26556000D01*
X107728000Y-26556000D02*
X108028000Y-26556000D01*
X94364000Y-31356000D02*
X94214000Y-31356000D01*
X94364000Y-26556000D02*
X94364000Y-31356000D01*
X94214000Y-26556000D02*
X94364000Y-26556000D01*
X91564000Y-26556000D02*
X91714000Y-26556000D01*
X91564000Y-31356000D02*
X91564000Y-26556000D01*
X91714000Y-31356000D02*
X91564000Y-31356000D01*
X94214000Y-26556000D02*
X94214000Y-24856000D01*
D11*
X101620666Y-54734666D02*
X101620666Y-55234666D01*
X101587333Y-55334666D01*
X101520666Y-55401333D01*
X101420666Y-55434666D01*
X101354000Y-55434666D01*
X102320666Y-55434666D02*
X101920666Y-55434666D01*
X102120666Y-55434666D02*
X102120666Y-54734666D01*
X102054000Y-54834666D01*
X101987333Y-54901333D01*
X101920666Y-54934666D01*
X100370666Y-56450666D02*
X100370666Y-55750666D01*
X100537333Y-55750666D01*
X100637333Y-55784000D01*
X100704000Y-55850666D01*
X100737333Y-55917333D01*
X100770666Y-56050666D01*
X100770666Y-56150666D01*
X100737333Y-56284000D01*
X100704000Y-56350666D01*
X100637333Y-56417333D01*
X100537333Y-56450666D01*
X100370666Y-56450666D01*
X101070666Y-56450666D02*
X101070666Y-55750666D01*
X101404000Y-56450666D02*
X101404000Y-55750666D01*
X101804000Y-56450666D01*
X101804000Y-55750666D01*
X102137333Y-56184000D02*
X102670666Y-56184000D01*
X103337333Y-55750666D02*
X103004000Y-55750666D01*
X102970666Y-56084000D01*
X103004000Y-56050666D01*
X103070666Y-56017333D01*
X103237333Y-56017333D01*
X103304000Y-56050666D01*
X103337333Y-56084000D01*
X103370666Y-56150666D01*
X103370666Y-56317333D01*
X103337333Y-56384000D01*
X103304000Y-56417333D01*
X103237333Y-56450666D01*
X103070666Y-56450666D01*
X103004000Y-56417333D01*
X102970666Y-56384000D01*
X87858666Y-35368666D02*
X87858666Y-34668666D01*
X87858666Y-35002000D02*
X88258666Y-35002000D01*
X88258666Y-35368666D02*
X88258666Y-34668666D01*
X88892000Y-34902000D02*
X88892000Y-35368666D01*
X88725333Y-34635333D02*
X88558666Y-35135333D01*
X88992000Y-35135333D01*
X114274666Y-35368666D02*
X114274666Y-34668666D01*
X114274666Y-35002000D02*
X114674666Y-35002000D01*
X114674666Y-35368666D02*
X114674666Y-34668666D01*
X114941333Y-34668666D02*
X115374666Y-34668666D01*
X115141333Y-34935333D01*
X115241333Y-34935333D01*
X115308000Y-34968666D01*
X115341333Y-35002000D01*
X115374666Y-35068666D01*
X115374666Y-35235333D01*
X115341333Y-35302000D01*
X115308000Y-35335333D01*
X115241333Y-35368666D01*
X115041333Y-35368666D01*
X114974666Y-35335333D01*
X114941333Y-35302000D01*
X114274666Y-53148666D02*
X114274666Y-52448666D01*
X114274666Y-52782000D02*
X114674666Y-52782000D01*
X114674666Y-53148666D02*
X114674666Y-52448666D01*
X114974666Y-52515333D02*
X115008000Y-52482000D01*
X115074666Y-52448666D01*
X115241333Y-52448666D01*
X115308000Y-52482000D01*
X115341333Y-52515333D01*
X115374666Y-52582000D01*
X115374666Y-52648666D01*
X115341333Y-52748666D01*
X114941333Y-53148666D01*
X115374666Y-53148666D01*
X87858666Y-53148666D02*
X87858666Y-52448666D01*
X87858666Y-52782000D02*
X88258666Y-52782000D01*
X88258666Y-53148666D02*
X88258666Y-52448666D01*
X88958666Y-53148666D02*
X88558666Y-53148666D01*
X88758666Y-53148666D02*
X88758666Y-52448666D01*
X88692000Y-52548666D01*
X88625333Y-52615333D01*
X88558666Y-52648666D01*
X90314500Y-23430666D02*
X90081166Y-23097333D01*
X89914500Y-23430666D02*
X89914500Y-22730666D01*
X90181166Y-22730666D01*
X90247833Y-22764000D01*
X90281166Y-22797333D01*
X90314500Y-22864000D01*
X90314500Y-22964000D01*
X90281166Y-23030666D01*
X90247833Y-23064000D01*
X90181166Y-23097333D01*
X89914500Y-23097333D01*
X90914500Y-22964000D02*
X90914500Y-23430666D01*
X90747833Y-22697333D02*
X90581166Y-23197333D01*
X91014500Y-23197333D01*
X89747833Y-24446666D02*
X89347833Y-24446666D01*
X89547833Y-24446666D02*
X89547833Y-23746666D01*
X89481166Y-23846666D01*
X89414500Y-23913333D01*
X89347833Y-23946666D01*
X90047833Y-24446666D02*
X90047833Y-23746666D01*
X90114500Y-24180000D02*
X90314500Y-24446666D01*
X90314500Y-23980000D02*
X90047833Y-24246666D01*
X90947833Y-23746666D02*
X90614500Y-23746666D01*
X90581166Y-24080000D01*
X90614500Y-24046666D01*
X90681166Y-24013333D01*
X90847833Y-24013333D01*
X90914500Y-24046666D01*
X90947833Y-24080000D01*
X90981166Y-24146666D01*
X90981166Y-24313333D01*
X90947833Y-24380000D01*
X90914500Y-24413333D01*
X90847833Y-24446666D01*
X90681166Y-24446666D01*
X90614500Y-24413333D01*
X90581166Y-24380000D01*
X105300500Y-34098666D02*
X105067166Y-33765333D01*
X104900500Y-34098666D02*
X104900500Y-33398666D01*
X105167166Y-33398666D01*
X105233833Y-33432000D01*
X105267166Y-33465333D01*
X105300500Y-33532000D01*
X105300500Y-33632000D01*
X105267166Y-33698666D01*
X105233833Y-33732000D01*
X105167166Y-33765333D01*
X104900500Y-33765333D01*
X105533833Y-33398666D02*
X105967166Y-33398666D01*
X105733833Y-33665333D01*
X105833833Y-33665333D01*
X105900500Y-33698666D01*
X105933833Y-33732000D01*
X105967166Y-33798666D01*
X105967166Y-33965333D01*
X105933833Y-34032000D01*
X105900500Y-34065333D01*
X105833833Y-34098666D01*
X105633833Y-34098666D01*
X105567166Y-34065333D01*
X105533833Y-34032000D01*
X106050666Y-35176666D02*
X105917333Y-35176666D01*
X105850666Y-35210000D01*
X105817333Y-35243333D01*
X105750666Y-35343333D01*
X105717333Y-35476666D01*
X105717333Y-35743333D01*
X105750666Y-35810000D01*
X105784000Y-35843333D01*
X105850666Y-35876666D01*
X105984000Y-35876666D01*
X106050666Y-35843333D01*
X106084000Y-35810000D01*
X106117333Y-35743333D01*
X106117333Y-35576666D01*
X106084000Y-35510000D01*
X106050666Y-35476666D01*
X105984000Y-35443333D01*
X105850666Y-35443333D01*
X105784000Y-35476666D01*
X105750666Y-35510000D01*
X105717333Y-35576666D01*
X106517333Y-35476666D02*
X106450666Y-35443333D01*
X106417333Y-35410000D01*
X106384000Y-35343333D01*
X106384000Y-35310000D01*
X106417333Y-35243333D01*
X106450666Y-35210000D01*
X106517333Y-35176666D01*
X106650666Y-35176666D01*
X106717333Y-35210000D01*
X106750666Y-35243333D01*
X106784000Y-35310000D01*
X106784000Y-35343333D01*
X106750666Y-35410000D01*
X106717333Y-35443333D01*
X106650666Y-35476666D01*
X106517333Y-35476666D01*
X106450666Y-35510000D01*
X106417333Y-35543333D01*
X106384000Y-35610000D01*
X106384000Y-35743333D01*
X106417333Y-35810000D01*
X106450666Y-35843333D01*
X106517333Y-35876666D01*
X106650666Y-35876666D01*
X106717333Y-35843333D01*
X106750666Y-35810000D01*
X106784000Y-35743333D01*
X106784000Y-35610000D01*
X106750666Y-35543333D01*
X106717333Y-35510000D01*
X106650666Y-35476666D01*
X107217333Y-35176666D02*
X107284000Y-35176666D01*
X107350666Y-35210000D01*
X107384000Y-35243333D01*
X107417333Y-35310000D01*
X107450666Y-35443333D01*
X107450666Y-35610000D01*
X107417333Y-35743333D01*
X107384000Y-35810000D01*
X107350666Y-35843333D01*
X107284000Y-35876666D01*
X107217333Y-35876666D01*
X107150666Y-35843333D01*
X107117333Y-35810000D01*
X107084000Y-35743333D01*
X107050666Y-35610000D01*
X107050666Y-35443333D01*
X107084000Y-35310000D01*
X107117333Y-35243333D01*
X107150666Y-35210000D01*
X107217333Y-35176666D01*
X108150666Y-35876666D02*
X107917333Y-35543333D01*
X107750666Y-35876666D02*
X107750666Y-35176666D01*
X108017333Y-35176666D01*
X108084000Y-35210000D01*
X108117333Y-35243333D01*
X108150666Y-35310000D01*
X108150666Y-35410000D01*
X108117333Y-35476666D01*
X108084000Y-35510000D01*
X108017333Y-35543333D01*
X107750666Y-35543333D01*
X99458500Y-34098666D02*
X99225166Y-33765333D01*
X99058500Y-34098666D02*
X99058500Y-33398666D01*
X99325166Y-33398666D01*
X99391833Y-33432000D01*
X99425166Y-33465333D01*
X99458500Y-33532000D01*
X99458500Y-33632000D01*
X99425166Y-33698666D01*
X99391833Y-33732000D01*
X99325166Y-33765333D01*
X99058500Y-33765333D01*
X99725166Y-33465333D02*
X99758500Y-33432000D01*
X99825166Y-33398666D01*
X99991833Y-33398666D01*
X100058500Y-33432000D01*
X100091833Y-33465333D01*
X100125166Y-33532000D01*
X100125166Y-33598666D01*
X100091833Y-33698666D01*
X99691833Y-34098666D01*
X100125166Y-34098666D01*
X100208666Y-35176666D02*
X100075333Y-35176666D01*
X100008666Y-35210000D01*
X99975333Y-35243333D01*
X99908666Y-35343333D01*
X99875333Y-35476666D01*
X99875333Y-35743333D01*
X99908666Y-35810000D01*
X99942000Y-35843333D01*
X100008666Y-35876666D01*
X100142000Y-35876666D01*
X100208666Y-35843333D01*
X100242000Y-35810000D01*
X100275333Y-35743333D01*
X100275333Y-35576666D01*
X100242000Y-35510000D01*
X100208666Y-35476666D01*
X100142000Y-35443333D01*
X100008666Y-35443333D01*
X99942000Y-35476666D01*
X99908666Y-35510000D01*
X99875333Y-35576666D01*
X100675333Y-35476666D02*
X100608666Y-35443333D01*
X100575333Y-35410000D01*
X100542000Y-35343333D01*
X100542000Y-35310000D01*
X100575333Y-35243333D01*
X100608666Y-35210000D01*
X100675333Y-35176666D01*
X100808666Y-35176666D01*
X100875333Y-35210000D01*
X100908666Y-35243333D01*
X100942000Y-35310000D01*
X100942000Y-35343333D01*
X100908666Y-35410000D01*
X100875333Y-35443333D01*
X100808666Y-35476666D01*
X100675333Y-35476666D01*
X100608666Y-35510000D01*
X100575333Y-35543333D01*
X100542000Y-35610000D01*
X100542000Y-35743333D01*
X100575333Y-35810000D01*
X100608666Y-35843333D01*
X100675333Y-35876666D01*
X100808666Y-35876666D01*
X100875333Y-35843333D01*
X100908666Y-35810000D01*
X100942000Y-35743333D01*
X100942000Y-35610000D01*
X100908666Y-35543333D01*
X100875333Y-35510000D01*
X100808666Y-35476666D01*
X101375333Y-35176666D02*
X101442000Y-35176666D01*
X101508666Y-35210000D01*
X101542000Y-35243333D01*
X101575333Y-35310000D01*
X101608666Y-35443333D01*
X101608666Y-35610000D01*
X101575333Y-35743333D01*
X101542000Y-35810000D01*
X101508666Y-35843333D01*
X101442000Y-35876666D01*
X101375333Y-35876666D01*
X101308666Y-35843333D01*
X101275333Y-35810000D01*
X101242000Y-35743333D01*
X101208666Y-35610000D01*
X101208666Y-35443333D01*
X101242000Y-35310000D01*
X101275333Y-35243333D01*
X101308666Y-35210000D01*
X101375333Y-35176666D01*
X102308666Y-35876666D02*
X102075333Y-35543333D01*
X101908666Y-35876666D02*
X101908666Y-35176666D01*
X102175333Y-35176666D01*
X102242000Y-35210000D01*
X102275333Y-35243333D01*
X102308666Y-35310000D01*
X102308666Y-35410000D01*
X102275333Y-35476666D01*
X102242000Y-35510000D01*
X102175333Y-35543333D01*
X101908666Y-35543333D01*
X93616500Y-34098666D02*
X93383166Y-33765333D01*
X93216500Y-34098666D02*
X93216500Y-33398666D01*
X93483166Y-33398666D01*
X93549833Y-33432000D01*
X93583166Y-33465333D01*
X93616500Y-33532000D01*
X93616500Y-33632000D01*
X93583166Y-33698666D01*
X93549833Y-33732000D01*
X93483166Y-33765333D01*
X93216500Y-33765333D01*
X94283166Y-34098666D02*
X93883166Y-34098666D01*
X94083166Y-34098666D02*
X94083166Y-33398666D01*
X94016500Y-33498666D01*
X93949833Y-33565333D01*
X93883166Y-33598666D01*
X94366666Y-35176666D02*
X94233333Y-35176666D01*
X94166666Y-35210000D01*
X94133333Y-35243333D01*
X94066666Y-35343333D01*
X94033333Y-35476666D01*
X94033333Y-35743333D01*
X94066666Y-35810000D01*
X94100000Y-35843333D01*
X94166666Y-35876666D01*
X94300000Y-35876666D01*
X94366666Y-35843333D01*
X94400000Y-35810000D01*
X94433333Y-35743333D01*
X94433333Y-35576666D01*
X94400000Y-35510000D01*
X94366666Y-35476666D01*
X94300000Y-35443333D01*
X94166666Y-35443333D01*
X94100000Y-35476666D01*
X94066666Y-35510000D01*
X94033333Y-35576666D01*
X94833333Y-35476666D02*
X94766666Y-35443333D01*
X94733333Y-35410000D01*
X94700000Y-35343333D01*
X94700000Y-35310000D01*
X94733333Y-35243333D01*
X94766666Y-35210000D01*
X94833333Y-35176666D01*
X94966666Y-35176666D01*
X95033333Y-35210000D01*
X95066666Y-35243333D01*
X95100000Y-35310000D01*
X95100000Y-35343333D01*
X95066666Y-35410000D01*
X95033333Y-35443333D01*
X94966666Y-35476666D01*
X94833333Y-35476666D01*
X94766666Y-35510000D01*
X94733333Y-35543333D01*
X94700000Y-35610000D01*
X94700000Y-35743333D01*
X94733333Y-35810000D01*
X94766666Y-35843333D01*
X94833333Y-35876666D01*
X94966666Y-35876666D01*
X95033333Y-35843333D01*
X95066666Y-35810000D01*
X95100000Y-35743333D01*
X95100000Y-35610000D01*
X95066666Y-35543333D01*
X95033333Y-35510000D01*
X94966666Y-35476666D01*
X95533333Y-35176666D02*
X95600000Y-35176666D01*
X95666666Y-35210000D01*
X95700000Y-35243333D01*
X95733333Y-35310000D01*
X95766666Y-35443333D01*
X95766666Y-35610000D01*
X95733333Y-35743333D01*
X95700000Y-35810000D01*
X95666666Y-35843333D01*
X95600000Y-35876666D01*
X95533333Y-35876666D01*
X95466666Y-35843333D01*
X95433333Y-35810000D01*
X95400000Y-35743333D01*
X95366666Y-35610000D01*
X95366666Y-35443333D01*
X95400000Y-35310000D01*
X95433333Y-35243333D01*
X95466666Y-35210000D01*
X95533333Y-35176666D01*
X96466666Y-35876666D02*
X96233333Y-35543333D01*
X96066666Y-35876666D02*
X96066666Y-35176666D01*
X96333333Y-35176666D01*
X96400000Y-35210000D01*
X96433333Y-35243333D01*
X96466666Y-35310000D01*
X96466666Y-35410000D01*
X96433333Y-35476666D01*
X96400000Y-35510000D01*
X96333333Y-35543333D01*
X96066666Y-35543333D01*
X95500000Y-29319500D02*
X95533333Y-29352833D01*
X95566666Y-29452833D01*
X95566666Y-29519500D01*
X95533333Y-29619500D01*
X95466666Y-29686166D01*
X95400000Y-29719500D01*
X95266666Y-29752833D01*
X95166666Y-29752833D01*
X95033333Y-29719500D01*
X94966666Y-29686166D01*
X94900000Y-29619500D01*
X94866666Y-29519500D01*
X94866666Y-29452833D01*
X94900000Y-29352833D01*
X94933333Y-29319500D01*
X95566666Y-28652833D02*
X95566666Y-29052833D01*
X95566666Y-28852833D02*
X94866666Y-28852833D01*
X94966666Y-28919500D01*
X95033333Y-28986166D01*
X95066666Y-29052833D01*
X95820666Y-24287166D02*
X95820666Y-24687166D01*
X95820666Y-24487166D02*
X95120666Y-24487166D01*
X95220666Y-24553833D01*
X95287333Y-24620500D01*
X95320666Y-24687166D01*
X95120666Y-23853833D02*
X95120666Y-23787166D01*
X95154000Y-23720500D01*
X95187333Y-23687166D01*
X95254000Y-23653833D01*
X95387333Y-23620500D01*
X95554000Y-23620500D01*
X95687333Y-23653833D01*
X95754000Y-23687166D01*
X95787333Y-23720500D01*
X95820666Y-23787166D01*
X95820666Y-23853833D01*
X95787333Y-23920500D01*
X95754000Y-23953833D01*
X95687333Y-23987166D01*
X95554000Y-24020500D01*
X95387333Y-24020500D01*
X95254000Y-23987166D01*
X95187333Y-23953833D01*
X95154000Y-23920500D01*
X95120666Y-23853833D01*
X95120666Y-23187166D02*
X95120666Y-23120500D01*
X95154000Y-23053833D01*
X95187333Y-23020500D01*
X95254000Y-22987166D01*
X95387333Y-22953833D01*
X95554000Y-22953833D01*
X95687333Y-22987166D01*
X95754000Y-23020500D01*
X95787333Y-23053833D01*
X95820666Y-23120500D01*
X95820666Y-23187166D01*
X95787333Y-23253833D01*
X95754000Y-23287166D01*
X95687333Y-23320500D01*
X95554000Y-23353833D01*
X95387333Y-23353833D01*
X95254000Y-23320500D01*
X95187333Y-23287166D01*
X95154000Y-23253833D01*
X95120666Y-23187166D01*
X95354000Y-22653833D02*
X95820666Y-22653833D01*
X95420666Y-22653833D02*
X95387333Y-22620500D01*
X95354000Y-22553833D01*
X95354000Y-22453833D01*
X95387333Y-22387166D01*
X95454000Y-22353833D01*
X95820666Y-22353833D01*
X101342000Y-29319500D02*
X101375333Y-29352833D01*
X101408666Y-29452833D01*
X101408666Y-29519500D01*
X101375333Y-29619500D01*
X101308666Y-29686166D01*
X101242000Y-29719500D01*
X101108666Y-29752833D01*
X101008666Y-29752833D01*
X100875333Y-29719500D01*
X100808666Y-29686166D01*
X100742000Y-29619500D01*
X100708666Y-29519500D01*
X100708666Y-29452833D01*
X100742000Y-29352833D01*
X100775333Y-29319500D01*
X100775333Y-29052833D02*
X100742000Y-29019500D01*
X100708666Y-28952833D01*
X100708666Y-28786166D01*
X100742000Y-28719500D01*
X100775333Y-28686166D01*
X100842000Y-28652833D01*
X100908666Y-28652833D01*
X101008666Y-28686166D01*
X101408666Y-29086166D01*
X101408666Y-28652833D01*
X101408666Y-24287166D02*
X101408666Y-24687166D01*
X101408666Y-24487166D02*
X100708666Y-24487166D01*
X100808666Y-24553833D01*
X100875333Y-24620500D01*
X100908666Y-24687166D01*
X100708666Y-23853833D02*
X100708666Y-23787166D01*
X100742000Y-23720500D01*
X100775333Y-23687166D01*
X100842000Y-23653833D01*
X100975333Y-23620500D01*
X101142000Y-23620500D01*
X101275333Y-23653833D01*
X101342000Y-23687166D01*
X101375333Y-23720500D01*
X101408666Y-23787166D01*
X101408666Y-23853833D01*
X101375333Y-23920500D01*
X101342000Y-23953833D01*
X101275333Y-23987166D01*
X101142000Y-24020500D01*
X100975333Y-24020500D01*
X100842000Y-23987166D01*
X100775333Y-23953833D01*
X100742000Y-23920500D01*
X100708666Y-23853833D01*
X100708666Y-23187166D02*
X100708666Y-23120500D01*
X100742000Y-23053833D01*
X100775333Y-23020500D01*
X100842000Y-22987166D01*
X100975333Y-22953833D01*
X101142000Y-22953833D01*
X101275333Y-22987166D01*
X101342000Y-23020500D01*
X101375333Y-23053833D01*
X101408666Y-23120500D01*
X101408666Y-23187166D01*
X101375333Y-23253833D01*
X101342000Y-23287166D01*
X101275333Y-23320500D01*
X101142000Y-23353833D01*
X100975333Y-23353833D01*
X100842000Y-23320500D01*
X100775333Y-23287166D01*
X100742000Y-23253833D01*
X100708666Y-23187166D01*
X100942000Y-22653833D02*
X101408666Y-22653833D01*
X101008666Y-22653833D02*
X100975333Y-22620500D01*
X100942000Y-22553833D01*
X100942000Y-22453833D01*
X100975333Y-22387166D01*
X101042000Y-22353833D01*
X101408666Y-22353833D01*
X107184000Y-29319500D02*
X107217333Y-29352833D01*
X107250666Y-29452833D01*
X107250666Y-29519500D01*
X107217333Y-29619500D01*
X107150666Y-29686166D01*
X107084000Y-29719500D01*
X106950666Y-29752833D01*
X106850666Y-29752833D01*
X106717333Y-29719500D01*
X106650666Y-29686166D01*
X106584000Y-29619500D01*
X106550666Y-29519500D01*
X106550666Y-29452833D01*
X106584000Y-29352833D01*
X106617333Y-29319500D01*
X106550666Y-29086166D02*
X106550666Y-28652833D01*
X106817333Y-28886166D01*
X106817333Y-28786166D01*
X106850666Y-28719500D01*
X106884000Y-28686166D01*
X106950666Y-28652833D01*
X107117333Y-28652833D01*
X107184000Y-28686166D01*
X107217333Y-28719500D01*
X107250666Y-28786166D01*
X107250666Y-28986166D01*
X107217333Y-29052833D01*
X107184000Y-29086166D01*
X107250666Y-24287166D02*
X107250666Y-24687166D01*
X107250666Y-24487166D02*
X106550666Y-24487166D01*
X106650666Y-24553833D01*
X106717333Y-24620500D01*
X106750666Y-24687166D01*
X106550666Y-23853833D02*
X106550666Y-23787166D01*
X106584000Y-23720500D01*
X106617333Y-23687166D01*
X106684000Y-23653833D01*
X106817333Y-23620500D01*
X106984000Y-23620500D01*
X107117333Y-23653833D01*
X107184000Y-23687166D01*
X107217333Y-23720500D01*
X107250666Y-23787166D01*
X107250666Y-23853833D01*
X107217333Y-23920500D01*
X107184000Y-23953833D01*
X107117333Y-23987166D01*
X106984000Y-24020500D01*
X106817333Y-24020500D01*
X106684000Y-23987166D01*
X106617333Y-23953833D01*
X106584000Y-23920500D01*
X106550666Y-23853833D01*
X106550666Y-23187166D02*
X106550666Y-23120500D01*
X106584000Y-23053833D01*
X106617333Y-23020500D01*
X106684000Y-22987166D01*
X106817333Y-22953833D01*
X106984000Y-22953833D01*
X107117333Y-22987166D01*
X107184000Y-23020500D01*
X107217333Y-23053833D01*
X107250666Y-23120500D01*
X107250666Y-23187166D01*
X107217333Y-23253833D01*
X107184000Y-23287166D01*
X107117333Y-23320500D01*
X106984000Y-23353833D01*
X106817333Y-23353833D01*
X106684000Y-23320500D01*
X106617333Y-23287166D01*
X106584000Y-23253833D01*
X106550666Y-23187166D01*
X106784000Y-22653833D02*
X107250666Y-22653833D01*
X106850666Y-22653833D02*
X106817333Y-22620500D01*
X106784000Y-22553833D01*
X106784000Y-22453833D01*
X106817333Y-22387166D01*
X106884000Y-22353833D01*
X107250666Y-22353833D01*
X93101333Y-19300000D02*
X93068000Y-19333333D01*
X92968000Y-19366666D01*
X92901333Y-19366666D01*
X92801333Y-19333333D01*
X92734666Y-19266666D01*
X92701333Y-19200000D01*
X92668000Y-19066666D01*
X92668000Y-18966666D01*
X92701333Y-18833333D01*
X92734666Y-18766666D01*
X92801333Y-18700000D01*
X92901333Y-18666666D01*
X92968000Y-18666666D01*
X93068000Y-18700000D01*
X93101333Y-18733333D01*
X93701333Y-18900000D02*
X93701333Y-19366666D01*
X93534666Y-18633333D02*
X93368000Y-19133333D01*
X93801333Y-19133333D01*
X92701333Y-21440000D02*
X92701333Y-21906666D01*
X92534666Y-21173333D02*
X92368000Y-21673333D01*
X92801333Y-21673333D01*
X93368000Y-21440000D02*
X93368000Y-21906666D01*
X93068000Y-21440000D02*
X93068000Y-21806666D01*
X93101333Y-21873333D01*
X93168000Y-21906666D01*
X93268000Y-21906666D01*
X93334666Y-21873333D01*
X93368000Y-21840000D01*
X93634666Y-21206666D02*
X94101333Y-21206666D01*
X93801333Y-21906666D01*
X97510666Y-22476666D02*
X97510666Y-23043333D01*
X97544000Y-23110000D01*
X97577333Y-23143333D01*
X97644000Y-23176666D01*
X97777333Y-23176666D01*
X97844000Y-23143333D01*
X97877333Y-23110000D01*
X97910666Y-23043333D01*
X97910666Y-22476666D01*
X98610666Y-23176666D02*
X98210666Y-23176666D01*
X98410666Y-23176666D02*
X98410666Y-22476666D01*
X98344000Y-22576666D01*
X98277333Y-22643333D01*
X98210666Y-22676666D01*
X95877333Y-23492666D02*
X96277333Y-23492666D01*
X96077333Y-24192666D02*
X96077333Y-23492666D01*
X96844000Y-24192666D02*
X96510666Y-24192666D01*
X96510666Y-23492666D01*
X97077333Y-24192666D02*
X97077333Y-23492666D01*
X97344000Y-23492666D01*
X97410666Y-23526000D01*
X97444000Y-23559333D01*
X97477333Y-23626000D01*
X97477333Y-23726000D01*
X97444000Y-23792666D01*
X97410666Y-23826000D01*
X97344000Y-23859333D01*
X97077333Y-23859333D01*
X97744000Y-23559333D02*
X97777333Y-23526000D01*
X97844000Y-23492666D01*
X98010666Y-23492666D01*
X98077333Y-23526000D01*
X98110666Y-23559333D01*
X98144000Y-23626000D01*
X98144000Y-23692666D01*
X98110666Y-23792666D01*
X97710666Y-24192666D01*
X98144000Y-24192666D01*
X98377333Y-23492666D02*
X98810666Y-23492666D01*
X98577333Y-23759333D01*
X98677333Y-23759333D01*
X98744000Y-23792666D01*
X98777333Y-23826000D01*
X98810666Y-23892666D01*
X98810666Y-24059333D01*
X98777333Y-24126000D01*
X98744000Y-24159333D01*
X98677333Y-24192666D01*
X98477333Y-24192666D01*
X98410666Y-24159333D01*
X98377333Y-24126000D01*
X99410666Y-23492666D02*
X99277333Y-23492666D01*
X99210666Y-23526000D01*
X99177333Y-23559333D01*
X99110666Y-23659333D01*
X99077333Y-23792666D01*
X99077333Y-24059333D01*
X99110666Y-24126000D01*
X99144000Y-24159333D01*
X99210666Y-24192666D01*
X99344000Y-24192666D01*
X99410666Y-24159333D01*
X99444000Y-24126000D01*
X99477333Y-24059333D01*
X99477333Y-23892666D01*
X99444000Y-23826000D01*
X99410666Y-23792666D01*
X99344000Y-23759333D01*
X99210666Y-23759333D01*
X99144000Y-23792666D01*
X99110666Y-23826000D01*
X99077333Y-23892666D01*
X100144000Y-24192666D02*
X99744000Y-24192666D01*
X99944000Y-24192666D02*
X99944000Y-23492666D01*
X99877333Y-23592666D01*
X99810666Y-23659333D01*
X99744000Y-23692666D01*
X103352666Y-22476666D02*
X103352666Y-23043333D01*
X103386000Y-23110000D01*
X103419333Y-23143333D01*
X103486000Y-23176666D01*
X103619333Y-23176666D01*
X103686000Y-23143333D01*
X103719333Y-23110000D01*
X103752666Y-23043333D01*
X103752666Y-22476666D01*
X104052666Y-22543333D02*
X104086000Y-22510000D01*
X104152666Y-22476666D01*
X104319333Y-22476666D01*
X104386000Y-22510000D01*
X104419333Y-22543333D01*
X104452666Y-22610000D01*
X104452666Y-22676666D01*
X104419333Y-22776666D01*
X104019333Y-23176666D01*
X104452666Y-23176666D01*
X101719333Y-23492666D02*
X102119333Y-23492666D01*
X101919333Y-24192666D02*
X101919333Y-23492666D01*
X102686000Y-24192666D02*
X102352666Y-24192666D01*
X102352666Y-23492666D01*
X102919333Y-24192666D02*
X102919333Y-23492666D01*
X103186000Y-23492666D01*
X103252666Y-23526000D01*
X103286000Y-23559333D01*
X103319333Y-23626000D01*
X103319333Y-23726000D01*
X103286000Y-23792666D01*
X103252666Y-23826000D01*
X103186000Y-23859333D01*
X102919333Y-23859333D01*
X103586000Y-23559333D02*
X103619333Y-23526000D01*
X103686000Y-23492666D01*
X103852666Y-23492666D01*
X103919333Y-23526000D01*
X103952666Y-23559333D01*
X103986000Y-23626000D01*
X103986000Y-23692666D01*
X103952666Y-23792666D01*
X103552666Y-24192666D01*
X103986000Y-24192666D01*
X104219333Y-23492666D02*
X104652666Y-23492666D01*
X104419333Y-23759333D01*
X104519333Y-23759333D01*
X104586000Y-23792666D01*
X104619333Y-23826000D01*
X104652666Y-23892666D01*
X104652666Y-24059333D01*
X104619333Y-24126000D01*
X104586000Y-24159333D01*
X104519333Y-24192666D01*
X104319333Y-24192666D01*
X104252666Y-24159333D01*
X104219333Y-24126000D01*
X105252666Y-23492666D02*
X105119333Y-23492666D01*
X105052666Y-23526000D01*
X105019333Y-23559333D01*
X104952666Y-23659333D01*
X104919333Y-23792666D01*
X104919333Y-24059333D01*
X104952666Y-24126000D01*
X104986000Y-24159333D01*
X105052666Y-24192666D01*
X105186000Y-24192666D01*
X105252666Y-24159333D01*
X105286000Y-24126000D01*
X105319333Y-24059333D01*
X105319333Y-23892666D01*
X105286000Y-23826000D01*
X105252666Y-23792666D01*
X105186000Y-23759333D01*
X105052666Y-23759333D01*
X104986000Y-23792666D01*
X104952666Y-23826000D01*
X104919333Y-23892666D01*
X105986000Y-24192666D02*
X105586000Y-24192666D01*
X105786000Y-24192666D02*
X105786000Y-23492666D01*
X105719333Y-23592666D01*
X105652666Y-23659333D01*
X105586000Y-23692666D01*
X109194666Y-22476666D02*
X109194666Y-23043333D01*
X109228000Y-23110000D01*
X109261333Y-23143333D01*
X109328000Y-23176666D01*
X109461333Y-23176666D01*
X109528000Y-23143333D01*
X109561333Y-23110000D01*
X109594666Y-23043333D01*
X109594666Y-22476666D01*
X109861333Y-22476666D02*
X110294666Y-22476666D01*
X110061333Y-22743333D01*
X110161333Y-22743333D01*
X110228000Y-22776666D01*
X110261333Y-22810000D01*
X110294666Y-22876666D01*
X110294666Y-23043333D01*
X110261333Y-23110000D01*
X110228000Y-23143333D01*
X110161333Y-23176666D01*
X109961333Y-23176666D01*
X109894666Y-23143333D01*
X109861333Y-23110000D01*
X107561333Y-23492666D02*
X107961333Y-23492666D01*
X107761333Y-24192666D02*
X107761333Y-23492666D01*
X108528000Y-24192666D02*
X108194666Y-24192666D01*
X108194666Y-23492666D01*
X108761333Y-24192666D02*
X108761333Y-23492666D01*
X109028000Y-23492666D01*
X109094666Y-23526000D01*
X109128000Y-23559333D01*
X109161333Y-23626000D01*
X109161333Y-23726000D01*
X109128000Y-23792666D01*
X109094666Y-23826000D01*
X109028000Y-23859333D01*
X108761333Y-23859333D01*
X109428000Y-23559333D02*
X109461333Y-23526000D01*
X109528000Y-23492666D01*
X109694666Y-23492666D01*
X109761333Y-23526000D01*
X109794666Y-23559333D01*
X109828000Y-23626000D01*
X109828000Y-23692666D01*
X109794666Y-23792666D01*
X109394666Y-24192666D01*
X109828000Y-24192666D01*
X110061333Y-23492666D02*
X110494666Y-23492666D01*
X110261333Y-23759333D01*
X110361333Y-23759333D01*
X110428000Y-23792666D01*
X110461333Y-23826000D01*
X110494666Y-23892666D01*
X110494666Y-24059333D01*
X110461333Y-24126000D01*
X110428000Y-24159333D01*
X110361333Y-24192666D01*
X110161333Y-24192666D01*
X110094666Y-24159333D01*
X110061333Y-24126000D01*
X111094666Y-23492666D02*
X110961333Y-23492666D01*
X110894666Y-23526000D01*
X110861333Y-23559333D01*
X110794666Y-23659333D01*
X110761333Y-23792666D01*
X110761333Y-24059333D01*
X110794666Y-24126000D01*
X110828000Y-24159333D01*
X110894666Y-24192666D01*
X111028000Y-24192666D01*
X111094666Y-24159333D01*
X111128000Y-24126000D01*
X111161333Y-24059333D01*
X111161333Y-23892666D01*
X111128000Y-23826000D01*
X111094666Y-23792666D01*
X111028000Y-23759333D01*
X110894666Y-23759333D01*
X110828000Y-23792666D01*
X110794666Y-23826000D01*
X110761333Y-23892666D01*
X111828000Y-24192666D02*
X111428000Y-24192666D01*
X111628000Y-24192666D02*
X111628000Y-23492666D01*
X111561333Y-23592666D01*
X111494666Y-23659333D01*
X111428000Y-23692666D01*
X89532666Y-29489333D02*
X90099333Y-29489333D01*
X90166000Y-29456000D01*
X90199333Y-29422666D01*
X90232666Y-29356000D01*
X90232666Y-29222666D01*
X90199333Y-29156000D01*
X90166000Y-29122666D01*
X90099333Y-29089333D01*
X89532666Y-29089333D01*
X89766000Y-28456000D02*
X90232666Y-28456000D01*
X89499333Y-28622666D02*
X89999333Y-28789333D01*
X89999333Y-28356000D01*
X90882000Y-31306000D02*
X90882000Y-31539333D01*
X91248666Y-31539333D02*
X90548666Y-31539333D01*
X90548666Y-31206000D01*
X90548666Y-30806000D02*
X90548666Y-30672666D01*
X90582000Y-30606000D01*
X90648666Y-30539333D01*
X90782000Y-30506000D01*
X91015333Y-30506000D01*
X91148666Y-30539333D01*
X91215333Y-30606000D01*
X91248666Y-30672666D01*
X91248666Y-30806000D01*
X91215333Y-30872666D01*
X91148666Y-30939333D01*
X91015333Y-30972666D01*
X90782000Y-30972666D01*
X90648666Y-30939333D01*
X90582000Y-30872666D01*
X90548666Y-30806000D01*
X91248666Y-30206000D02*
X90548666Y-30206000D01*
X90548666Y-30039333D01*
X90582000Y-29939333D01*
X90648666Y-29872666D01*
X90715333Y-29839333D01*
X90848666Y-29806000D01*
X90948666Y-29806000D01*
X91082000Y-29839333D01*
X91148666Y-29872666D01*
X91215333Y-29939333D01*
X91248666Y-30039333D01*
X91248666Y-30206000D01*
X91248666Y-29506000D02*
X90548666Y-29506000D01*
X91048666Y-29272666D01*
X90548666Y-29039333D01*
X91248666Y-29039333D01*
X90848666Y-28606000D02*
X90815333Y-28672666D01*
X90782000Y-28706000D01*
X90715333Y-28739333D01*
X90682000Y-28739333D01*
X90615333Y-28706000D01*
X90582000Y-28672666D01*
X90548666Y-28606000D01*
X90548666Y-28472666D01*
X90582000Y-28406000D01*
X90615333Y-28372666D01*
X90682000Y-28339333D01*
X90715333Y-28339333D01*
X90782000Y-28372666D01*
X90815333Y-28406000D01*
X90848666Y-28472666D01*
X90848666Y-28606000D01*
X90882000Y-28672666D01*
X90915333Y-28706000D01*
X90982000Y-28739333D01*
X91115333Y-28739333D01*
X91182000Y-28706000D01*
X91215333Y-28672666D01*
X91248666Y-28606000D01*
X91248666Y-28472666D01*
X91215333Y-28406000D01*
X91182000Y-28372666D01*
X91115333Y-28339333D01*
X90982000Y-28339333D01*
X90915333Y-28372666D01*
X90882000Y-28406000D01*
X90848666Y-28472666D01*
X90848666Y-27939333D02*
X90815333Y-28006000D01*
X90782000Y-28039333D01*
X90715333Y-28072666D01*
X90682000Y-28072666D01*
X90615333Y-28039333D01*
X90582000Y-28006000D01*
X90548666Y-27939333D01*
X90548666Y-27806000D01*
X90582000Y-27739333D01*
X90615333Y-27706000D01*
X90682000Y-27672666D01*
X90715333Y-27672666D01*
X90782000Y-27706000D01*
X90815333Y-27739333D01*
X90848666Y-27806000D01*
X90848666Y-27939333D01*
X90882000Y-28006000D01*
X90915333Y-28039333D01*
X90982000Y-28072666D01*
X91115333Y-28072666D01*
X91182000Y-28039333D01*
X91215333Y-28006000D01*
X91248666Y-27939333D01*
X91248666Y-27806000D01*
X91215333Y-27739333D01*
X91182000Y-27706000D01*
X91115333Y-27672666D01*
X90982000Y-27672666D01*
X90915333Y-27706000D01*
X90882000Y-27739333D01*
X90848666Y-27806000D01*
X90548666Y-27239333D02*
X90548666Y-27172666D01*
X90582000Y-27106000D01*
X90615333Y-27072666D01*
X90682000Y-27039333D01*
X90815333Y-27006000D01*
X90982000Y-27006000D01*
X91115333Y-27039333D01*
X91182000Y-27072666D01*
X91215333Y-27106000D01*
X91248666Y-27172666D01*
X91248666Y-27239333D01*
X91215333Y-27306000D01*
X91182000Y-27339333D01*
X91115333Y-27372666D01*
X90982000Y-27406000D01*
X90815333Y-27406000D01*
X90682000Y-27372666D01*
X90615333Y-27339333D01*
X90582000Y-27306000D01*
X90548666Y-27239333D01*
X91248666Y-26339333D02*
X91248666Y-26739333D01*
X91248666Y-26539333D02*
X90548666Y-26539333D01*
X90648666Y-26606000D01*
X90715333Y-26672666D01*
X90748666Y-26739333D01*
M02*
