G04 #@! TF.GenerationSoftware,KiCad,Pcbnew,5.1.2-f72e74a~84~ubuntu16.04.1*
G04 #@! TF.CreationDate,2019-07-19T18:17:23+01:00*
G04 #@! TF.ProjectId,DigitalPot_OptoIsolator,44696769-7461-46c5-906f-745f4f70746f,rev?*
G04 #@! TF.SameCoordinates,Original*
G04 #@! TF.FileFunction,Copper,L2,Bot*
G04 #@! TF.FilePolarity,Positive*
%FSLAX46Y46*%
G04 Gerber Fmt 4.6, Leading zero omitted, Abs format (unit mm)*
G04 Created by KiCad (PCBNEW 5.1.2-f72e74a~84~ubuntu16.04.1) date 2019-07-19 18:17:23*
%MOMM*%
%LPD*%
G04 APERTURE LIST*
%ADD10O,2.500000X2.500000*%
%ADD11R,1.700000X1.700000*%
%ADD12O,1.700000X1.700000*%
%ADD13C,1.200000*%
%ADD14C,0.508000*%
%ADD15C,0.254000*%
G04 APERTURE END LIST*
D10*
X101854000Y-40228000D03*
X106096640Y-41985360D03*
X107854000Y-46228000D03*
X101854000Y-50128000D03*
X95854000Y-46228000D03*
X97611360Y-41985360D03*
D11*
X96520000Y-20320000D03*
D12*
X99060000Y-20320000D03*
X101600000Y-20320000D03*
X104140000Y-20320000D03*
X106680000Y-20320000D03*
D13*
X95250000Y-25400000D03*
X101092000Y-25400000D03*
X106934000Y-25400000D03*
X94488000Y-23622000D03*
X105097000Y-27373000D03*
X99255000Y-27373000D03*
X91694000Y-20320000D03*
X101854000Y-46228000D03*
X101092000Y-34544000D03*
X106934000Y-34544000D03*
X96012000Y-34544000D03*
D14*
X96520000Y-24130000D02*
X95250000Y-25400000D01*
X96520000Y-20320000D02*
X96520000Y-24130000D01*
X97790000Y-25400000D02*
X96520000Y-24130000D01*
X101092000Y-25400000D02*
X97790000Y-25400000D01*
X101092000Y-25400000D02*
X106934000Y-25400000D01*
X105097000Y-27373000D02*
X99255000Y-27373000D01*
X93888001Y-24221999D02*
X94488000Y-23622000D01*
X93888001Y-25597923D02*
X93888001Y-24221999D01*
X95663078Y-27373000D02*
X93888001Y-25597923D01*
X99255000Y-27373000D02*
X95663078Y-27373000D01*
X91694000Y-20828000D02*
X94488000Y-23622000D01*
X91694000Y-20320000D02*
X91694000Y-20828000D01*
X101092000Y-34544000D02*
X106934000Y-34544000D01*
X107600000Y-45222234D02*
X107600000Y-46990000D01*
X96012000Y-34544000D02*
X101092000Y-34544000D01*
X106934000Y-34544000D02*
X106934000Y-39624000D01*
X106934000Y-39624000D02*
X108458000Y-41148000D01*
X108458000Y-41148000D02*
X108458000Y-43434000D01*
X107854000Y-44038000D02*
X107854000Y-46228000D01*
X108458000Y-43434000D02*
X107854000Y-44038000D01*
D15*
G36*
X114910001Y-27813000D02*
G01*
X88290000Y-27813000D01*
X88290000Y-25278363D01*
X94015000Y-25278363D01*
X94015000Y-25521637D01*
X94062460Y-25760236D01*
X94155557Y-25984992D01*
X94290713Y-26187267D01*
X94462733Y-26359287D01*
X94665008Y-26494443D01*
X94889764Y-26587540D01*
X95128363Y-26635000D01*
X95371637Y-26635000D01*
X95610236Y-26587540D01*
X95834992Y-26494443D01*
X96037267Y-26359287D01*
X96209287Y-26187267D01*
X96344443Y-25984992D01*
X96437540Y-25760236D01*
X96485000Y-25521637D01*
X96485000Y-25422235D01*
X96520000Y-25387236D01*
X97130506Y-25997741D01*
X97158341Y-26031659D01*
X97293709Y-26142753D01*
X97448149Y-26225303D01*
X97514058Y-26245296D01*
X97615724Y-26276136D01*
X97648924Y-26279406D01*
X97746333Y-26289000D01*
X97746339Y-26289000D01*
X97789999Y-26293300D01*
X97833659Y-26289000D01*
X100234446Y-26289000D01*
X100304733Y-26359287D01*
X100507008Y-26494443D01*
X100731764Y-26587540D01*
X100970363Y-26635000D01*
X101213637Y-26635000D01*
X101452236Y-26587540D01*
X101676992Y-26494443D01*
X101879267Y-26359287D01*
X101949554Y-26289000D01*
X106076446Y-26289000D01*
X106146733Y-26359287D01*
X106349008Y-26494443D01*
X106573764Y-26587540D01*
X106812363Y-26635000D01*
X107055637Y-26635000D01*
X107294236Y-26587540D01*
X107518992Y-26494443D01*
X107721267Y-26359287D01*
X107893287Y-26187267D01*
X108028443Y-25984992D01*
X108121540Y-25760236D01*
X108169000Y-25521637D01*
X108169000Y-25278363D01*
X108121540Y-25039764D01*
X108028443Y-24815008D01*
X107893287Y-24612733D01*
X107721267Y-24440713D01*
X107518992Y-24305557D01*
X107294236Y-24212460D01*
X107055637Y-24165000D01*
X106812363Y-24165000D01*
X106573764Y-24212460D01*
X106349008Y-24305557D01*
X106146733Y-24440713D01*
X106076446Y-24511000D01*
X101949554Y-24511000D01*
X101879267Y-24440713D01*
X101676992Y-24305557D01*
X101452236Y-24212460D01*
X101213637Y-24165000D01*
X100970363Y-24165000D01*
X100731764Y-24212460D01*
X100507008Y-24305557D01*
X100304733Y-24440713D01*
X100234446Y-24511000D01*
X98158236Y-24511000D01*
X97409000Y-23761765D01*
X97409000Y-21804231D01*
X97494482Y-21795812D01*
X97614180Y-21759502D01*
X97724494Y-21700537D01*
X97821185Y-21621185D01*
X97900537Y-21524494D01*
X97959502Y-21414180D01*
X97980393Y-21345313D01*
X98004866Y-21375134D01*
X98230986Y-21560706D01*
X98488966Y-21698599D01*
X98768889Y-21783513D01*
X98987050Y-21805000D01*
X99132950Y-21805000D01*
X99351111Y-21783513D01*
X99631034Y-21698599D01*
X99889014Y-21560706D01*
X100115134Y-21375134D01*
X100300706Y-21149014D01*
X100330000Y-21094209D01*
X100359294Y-21149014D01*
X100544866Y-21375134D01*
X100770986Y-21560706D01*
X101028966Y-21698599D01*
X101308889Y-21783513D01*
X101527050Y-21805000D01*
X101672950Y-21805000D01*
X101891111Y-21783513D01*
X102171034Y-21698599D01*
X102429014Y-21560706D01*
X102655134Y-21375134D01*
X102840706Y-21149014D01*
X102870000Y-21094209D01*
X102899294Y-21149014D01*
X103084866Y-21375134D01*
X103310986Y-21560706D01*
X103568966Y-21698599D01*
X103848889Y-21783513D01*
X104067050Y-21805000D01*
X104212950Y-21805000D01*
X104431111Y-21783513D01*
X104711034Y-21698599D01*
X104969014Y-21560706D01*
X105195134Y-21375134D01*
X105380706Y-21149014D01*
X105415201Y-21084477D01*
X105484822Y-21201355D01*
X105679731Y-21417588D01*
X105913080Y-21591641D01*
X106175901Y-21716825D01*
X106323110Y-21761476D01*
X106553000Y-21640155D01*
X106553000Y-20447000D01*
X106807000Y-20447000D01*
X106807000Y-21640155D01*
X107036890Y-21761476D01*
X107184099Y-21716825D01*
X107446920Y-21591641D01*
X107680269Y-21417588D01*
X107875178Y-21201355D01*
X108024157Y-20951252D01*
X108121481Y-20676891D01*
X108000814Y-20447000D01*
X106807000Y-20447000D01*
X106553000Y-20447000D01*
X106533000Y-20447000D01*
X106533000Y-20193000D01*
X106553000Y-20193000D01*
X106553000Y-18999845D01*
X106807000Y-18999845D01*
X106807000Y-20193000D01*
X108000814Y-20193000D01*
X108121481Y-19963109D01*
X108024157Y-19688748D01*
X107875178Y-19438645D01*
X107680269Y-19222412D01*
X107446920Y-19048359D01*
X107184099Y-18923175D01*
X107036890Y-18878524D01*
X106807000Y-18999845D01*
X106553000Y-18999845D01*
X106323110Y-18878524D01*
X106175901Y-18923175D01*
X105913080Y-19048359D01*
X105679731Y-19222412D01*
X105484822Y-19438645D01*
X105415201Y-19555523D01*
X105380706Y-19490986D01*
X105195134Y-19264866D01*
X104969014Y-19079294D01*
X104711034Y-18941401D01*
X104431111Y-18856487D01*
X104212950Y-18835000D01*
X104067050Y-18835000D01*
X103848889Y-18856487D01*
X103568966Y-18941401D01*
X103310986Y-19079294D01*
X103084866Y-19264866D01*
X102899294Y-19490986D01*
X102870000Y-19545791D01*
X102840706Y-19490986D01*
X102655134Y-19264866D01*
X102429014Y-19079294D01*
X102171034Y-18941401D01*
X101891111Y-18856487D01*
X101672950Y-18835000D01*
X101527050Y-18835000D01*
X101308889Y-18856487D01*
X101028966Y-18941401D01*
X100770986Y-19079294D01*
X100544866Y-19264866D01*
X100359294Y-19490986D01*
X100330000Y-19545791D01*
X100300706Y-19490986D01*
X100115134Y-19264866D01*
X99889014Y-19079294D01*
X99631034Y-18941401D01*
X99351111Y-18856487D01*
X99132950Y-18835000D01*
X98987050Y-18835000D01*
X98768889Y-18856487D01*
X98488966Y-18941401D01*
X98230986Y-19079294D01*
X98004866Y-19264866D01*
X97980393Y-19294687D01*
X97959502Y-19225820D01*
X97900537Y-19115506D01*
X97821185Y-19018815D01*
X97724494Y-18939463D01*
X97614180Y-18880498D01*
X97494482Y-18844188D01*
X97370000Y-18831928D01*
X95670000Y-18831928D01*
X95545518Y-18844188D01*
X95425820Y-18880498D01*
X95315506Y-18939463D01*
X95218815Y-19018815D01*
X95139463Y-19115506D01*
X95080498Y-19225820D01*
X95044188Y-19345518D01*
X95031928Y-19470000D01*
X95031928Y-21170000D01*
X95044188Y-21294482D01*
X95080498Y-21414180D01*
X95139463Y-21524494D01*
X95218815Y-21621185D01*
X95315506Y-21700537D01*
X95425820Y-21759502D01*
X95545518Y-21795812D01*
X95631000Y-21804231D01*
X95631001Y-23761763D01*
X95227765Y-24165000D01*
X95128363Y-24165000D01*
X94889764Y-24212460D01*
X94665008Y-24305557D01*
X94462733Y-24440713D01*
X94290713Y-24612733D01*
X94155557Y-24815008D01*
X94062460Y-25039764D01*
X94015000Y-25278363D01*
X88290000Y-25278363D01*
X88290000Y-18440000D01*
X114910001Y-18440000D01*
X114910001Y-27813000D01*
X114910001Y-27813000D01*
G37*
X114910001Y-27813000D02*
X88290000Y-27813000D01*
X88290000Y-25278363D01*
X94015000Y-25278363D01*
X94015000Y-25521637D01*
X94062460Y-25760236D01*
X94155557Y-25984992D01*
X94290713Y-26187267D01*
X94462733Y-26359287D01*
X94665008Y-26494443D01*
X94889764Y-26587540D01*
X95128363Y-26635000D01*
X95371637Y-26635000D01*
X95610236Y-26587540D01*
X95834992Y-26494443D01*
X96037267Y-26359287D01*
X96209287Y-26187267D01*
X96344443Y-25984992D01*
X96437540Y-25760236D01*
X96485000Y-25521637D01*
X96485000Y-25422235D01*
X96520000Y-25387236D01*
X97130506Y-25997741D01*
X97158341Y-26031659D01*
X97293709Y-26142753D01*
X97448149Y-26225303D01*
X97514058Y-26245296D01*
X97615724Y-26276136D01*
X97648924Y-26279406D01*
X97746333Y-26289000D01*
X97746339Y-26289000D01*
X97789999Y-26293300D01*
X97833659Y-26289000D01*
X100234446Y-26289000D01*
X100304733Y-26359287D01*
X100507008Y-26494443D01*
X100731764Y-26587540D01*
X100970363Y-26635000D01*
X101213637Y-26635000D01*
X101452236Y-26587540D01*
X101676992Y-26494443D01*
X101879267Y-26359287D01*
X101949554Y-26289000D01*
X106076446Y-26289000D01*
X106146733Y-26359287D01*
X106349008Y-26494443D01*
X106573764Y-26587540D01*
X106812363Y-26635000D01*
X107055637Y-26635000D01*
X107294236Y-26587540D01*
X107518992Y-26494443D01*
X107721267Y-26359287D01*
X107893287Y-26187267D01*
X108028443Y-25984992D01*
X108121540Y-25760236D01*
X108169000Y-25521637D01*
X108169000Y-25278363D01*
X108121540Y-25039764D01*
X108028443Y-24815008D01*
X107893287Y-24612733D01*
X107721267Y-24440713D01*
X107518992Y-24305557D01*
X107294236Y-24212460D01*
X107055637Y-24165000D01*
X106812363Y-24165000D01*
X106573764Y-24212460D01*
X106349008Y-24305557D01*
X106146733Y-24440713D01*
X106076446Y-24511000D01*
X101949554Y-24511000D01*
X101879267Y-24440713D01*
X101676992Y-24305557D01*
X101452236Y-24212460D01*
X101213637Y-24165000D01*
X100970363Y-24165000D01*
X100731764Y-24212460D01*
X100507008Y-24305557D01*
X100304733Y-24440713D01*
X100234446Y-24511000D01*
X98158236Y-24511000D01*
X97409000Y-23761765D01*
X97409000Y-21804231D01*
X97494482Y-21795812D01*
X97614180Y-21759502D01*
X97724494Y-21700537D01*
X97821185Y-21621185D01*
X97900537Y-21524494D01*
X97959502Y-21414180D01*
X97980393Y-21345313D01*
X98004866Y-21375134D01*
X98230986Y-21560706D01*
X98488966Y-21698599D01*
X98768889Y-21783513D01*
X98987050Y-21805000D01*
X99132950Y-21805000D01*
X99351111Y-21783513D01*
X99631034Y-21698599D01*
X99889014Y-21560706D01*
X100115134Y-21375134D01*
X100300706Y-21149014D01*
X100330000Y-21094209D01*
X100359294Y-21149014D01*
X100544866Y-21375134D01*
X100770986Y-21560706D01*
X101028966Y-21698599D01*
X101308889Y-21783513D01*
X101527050Y-21805000D01*
X101672950Y-21805000D01*
X101891111Y-21783513D01*
X102171034Y-21698599D01*
X102429014Y-21560706D01*
X102655134Y-21375134D01*
X102840706Y-21149014D01*
X102870000Y-21094209D01*
X102899294Y-21149014D01*
X103084866Y-21375134D01*
X103310986Y-21560706D01*
X103568966Y-21698599D01*
X103848889Y-21783513D01*
X104067050Y-21805000D01*
X104212950Y-21805000D01*
X104431111Y-21783513D01*
X104711034Y-21698599D01*
X104969014Y-21560706D01*
X105195134Y-21375134D01*
X105380706Y-21149014D01*
X105415201Y-21084477D01*
X105484822Y-21201355D01*
X105679731Y-21417588D01*
X105913080Y-21591641D01*
X106175901Y-21716825D01*
X106323110Y-21761476D01*
X106553000Y-21640155D01*
X106553000Y-20447000D01*
X106807000Y-20447000D01*
X106807000Y-21640155D01*
X107036890Y-21761476D01*
X107184099Y-21716825D01*
X107446920Y-21591641D01*
X107680269Y-21417588D01*
X107875178Y-21201355D01*
X108024157Y-20951252D01*
X108121481Y-20676891D01*
X108000814Y-20447000D01*
X106807000Y-20447000D01*
X106553000Y-20447000D01*
X106533000Y-20447000D01*
X106533000Y-20193000D01*
X106553000Y-20193000D01*
X106553000Y-18999845D01*
X106807000Y-18999845D01*
X106807000Y-20193000D01*
X108000814Y-20193000D01*
X108121481Y-19963109D01*
X108024157Y-19688748D01*
X107875178Y-19438645D01*
X107680269Y-19222412D01*
X107446920Y-19048359D01*
X107184099Y-18923175D01*
X107036890Y-18878524D01*
X106807000Y-18999845D01*
X106553000Y-18999845D01*
X106323110Y-18878524D01*
X106175901Y-18923175D01*
X105913080Y-19048359D01*
X105679731Y-19222412D01*
X105484822Y-19438645D01*
X105415201Y-19555523D01*
X105380706Y-19490986D01*
X105195134Y-19264866D01*
X104969014Y-19079294D01*
X104711034Y-18941401D01*
X104431111Y-18856487D01*
X104212950Y-18835000D01*
X104067050Y-18835000D01*
X103848889Y-18856487D01*
X103568966Y-18941401D01*
X103310986Y-19079294D01*
X103084866Y-19264866D01*
X102899294Y-19490986D01*
X102870000Y-19545791D01*
X102840706Y-19490986D01*
X102655134Y-19264866D01*
X102429014Y-19079294D01*
X102171034Y-18941401D01*
X101891111Y-18856487D01*
X101672950Y-18835000D01*
X101527050Y-18835000D01*
X101308889Y-18856487D01*
X101028966Y-18941401D01*
X100770986Y-19079294D01*
X100544866Y-19264866D01*
X100359294Y-19490986D01*
X100330000Y-19545791D01*
X100300706Y-19490986D01*
X100115134Y-19264866D01*
X99889014Y-19079294D01*
X99631034Y-18941401D01*
X99351111Y-18856487D01*
X99132950Y-18835000D01*
X98987050Y-18835000D01*
X98768889Y-18856487D01*
X98488966Y-18941401D01*
X98230986Y-19079294D01*
X98004866Y-19264866D01*
X97980393Y-19294687D01*
X97959502Y-19225820D01*
X97900537Y-19115506D01*
X97821185Y-19018815D01*
X97724494Y-18939463D01*
X97614180Y-18880498D01*
X97494482Y-18844188D01*
X97370000Y-18831928D01*
X95670000Y-18831928D01*
X95545518Y-18844188D01*
X95425820Y-18880498D01*
X95315506Y-18939463D01*
X95218815Y-19018815D01*
X95139463Y-19115506D01*
X95080498Y-19225820D01*
X95044188Y-19345518D01*
X95031928Y-19470000D01*
X95031928Y-21170000D01*
X95044188Y-21294482D01*
X95080498Y-21414180D01*
X95139463Y-21524494D01*
X95218815Y-21621185D01*
X95315506Y-21700537D01*
X95425820Y-21759502D01*
X95545518Y-21795812D01*
X95631000Y-21804231D01*
X95631001Y-23761763D01*
X95227765Y-24165000D01*
X95128363Y-24165000D01*
X94889764Y-24212460D01*
X94665008Y-24305557D01*
X94462733Y-24440713D01*
X94290713Y-24612733D01*
X94155557Y-24815008D01*
X94062460Y-25039764D01*
X94015000Y-25278363D01*
X88290000Y-25278363D01*
X88290000Y-18440000D01*
X114910001Y-18440000D01*
X114910001Y-27813000D01*
G36*
X114910001Y-33909000D02*
G01*
X109982000Y-33909000D01*
X109957224Y-33911440D01*
X109933399Y-33918667D01*
X109911443Y-33930403D01*
X109892197Y-33946197D01*
X107606197Y-36232197D01*
X107590403Y-36251443D01*
X107578667Y-36273399D01*
X107571440Y-36297224D01*
X107569000Y-36322000D01*
X107569000Y-39878000D01*
X107571440Y-39902776D01*
X107578667Y-39926601D01*
X107590403Y-39948557D01*
X107606197Y-39967803D01*
X109892197Y-42253803D01*
X109911443Y-42269597D01*
X109933399Y-42281333D01*
X109957224Y-42288560D01*
X109982000Y-42291000D01*
X114910000Y-42291000D01*
X114910000Y-51689000D01*
X109982000Y-51689000D01*
X109957224Y-51691440D01*
X109933399Y-51698667D01*
X109911443Y-51710403D01*
X109892197Y-51726197D01*
X107606197Y-54012197D01*
X107590403Y-54031443D01*
X107578667Y-54053399D01*
X107571440Y-54077224D01*
X107569000Y-54102000D01*
X107569000Y-59030000D01*
X95631000Y-59030000D01*
X95631000Y-54102000D01*
X95628560Y-54077224D01*
X95621333Y-54053399D01*
X95609597Y-54031443D01*
X95593803Y-54012197D01*
X93307803Y-51726197D01*
X93288557Y-51710403D01*
X93266601Y-51698667D01*
X93242776Y-51691440D01*
X93218000Y-51689000D01*
X88290000Y-51689000D01*
X88290000Y-49022000D01*
X99187000Y-49022000D01*
X99187000Y-51054000D01*
X99189440Y-51078776D01*
X99196667Y-51102601D01*
X99208403Y-51124557D01*
X99224197Y-51143803D01*
X100748197Y-52667803D01*
X100767443Y-52683597D01*
X100789399Y-52695333D01*
X100813224Y-52702560D01*
X100838000Y-52705000D01*
X102870000Y-52705000D01*
X102894776Y-52702560D01*
X102918601Y-52695333D01*
X102940557Y-52683597D01*
X102959803Y-52667803D01*
X104483803Y-51143803D01*
X104499597Y-51124557D01*
X104511333Y-51102601D01*
X104518560Y-51078776D01*
X104521000Y-51054000D01*
X104521000Y-49022000D01*
X104518560Y-48997224D01*
X104511333Y-48973399D01*
X104499597Y-48951443D01*
X104483803Y-48932197D01*
X102959803Y-47408197D01*
X102940557Y-47392403D01*
X102918601Y-47380667D01*
X102894776Y-47373440D01*
X102870000Y-47371000D01*
X100838000Y-47371000D01*
X100813224Y-47373440D01*
X100789399Y-47380667D01*
X100767443Y-47392403D01*
X100748197Y-47408197D01*
X99224197Y-48932197D01*
X99208403Y-48951443D01*
X99196667Y-48973399D01*
X99189440Y-48997224D01*
X99187000Y-49022000D01*
X88290000Y-49022000D01*
X88290000Y-46228000D01*
X93959880Y-46228000D01*
X93996275Y-46597524D01*
X94104061Y-46952848D01*
X94279097Y-47280317D01*
X94514655Y-47567345D01*
X94801683Y-47802903D01*
X95129152Y-47977939D01*
X95484476Y-48085725D01*
X95761403Y-48113000D01*
X95946597Y-48113000D01*
X96223524Y-48085725D01*
X96578848Y-47977939D01*
X96906317Y-47802903D01*
X97193345Y-47567345D01*
X97428903Y-47280317D01*
X97603939Y-46952848D01*
X97696521Y-46647645D01*
X106016305Y-46647645D01*
X106092867Y-46900048D01*
X106257817Y-47230715D01*
X106484107Y-47522848D01*
X106763041Y-47765221D01*
X107083900Y-47948519D01*
X107434354Y-48065699D01*
X107727000Y-47949971D01*
X107727000Y-46355000D01*
X107981000Y-46355000D01*
X107981000Y-47949971D01*
X108273646Y-48065699D01*
X108624100Y-47948519D01*
X108944959Y-47765221D01*
X109223893Y-47522848D01*
X109450183Y-47230715D01*
X109615133Y-46900048D01*
X109691695Y-46647645D01*
X109575572Y-46355000D01*
X107981000Y-46355000D01*
X107727000Y-46355000D01*
X106132428Y-46355000D01*
X106016305Y-46647645D01*
X97696521Y-46647645D01*
X97711725Y-46597524D01*
X97748120Y-46228000D01*
X97711725Y-45858476D01*
X97696522Y-45808355D01*
X106016305Y-45808355D01*
X106132428Y-46101000D01*
X107727000Y-46101000D01*
X107727000Y-44506029D01*
X107981000Y-44506029D01*
X107981000Y-46101000D01*
X109575572Y-46101000D01*
X109691695Y-45808355D01*
X109615133Y-45555952D01*
X109450183Y-45225285D01*
X109223893Y-44933152D01*
X108944959Y-44690779D01*
X108624100Y-44507481D01*
X108273646Y-44390301D01*
X107981000Y-44506029D01*
X107727000Y-44506029D01*
X107434354Y-44390301D01*
X107083900Y-44507481D01*
X106763041Y-44690779D01*
X106484107Y-44933152D01*
X106257817Y-45225285D01*
X106092867Y-45555952D01*
X106016305Y-45808355D01*
X97696522Y-45808355D01*
X97603939Y-45503152D01*
X97428903Y-45175683D01*
X97193345Y-44888655D01*
X96906317Y-44653097D01*
X96578848Y-44478061D01*
X96223524Y-44370275D01*
X95946597Y-44343000D01*
X95761403Y-44343000D01*
X95484476Y-44370275D01*
X95129152Y-44478061D01*
X94801683Y-44653097D01*
X94514655Y-44888655D01*
X94279097Y-45175683D01*
X94104061Y-45503152D01*
X93996275Y-45858476D01*
X93959880Y-46228000D01*
X88290000Y-46228000D01*
X88290000Y-42291000D01*
X93218000Y-42291000D01*
X93242776Y-42288560D01*
X93266601Y-42281333D01*
X93288557Y-42269597D01*
X93307803Y-42253803D01*
X93576246Y-41985360D01*
X95717240Y-41985360D01*
X95753635Y-42354884D01*
X95861421Y-42710208D01*
X96036457Y-43037677D01*
X96272015Y-43324705D01*
X96559043Y-43560263D01*
X96886512Y-43735299D01*
X97241836Y-43843085D01*
X97518763Y-43870360D01*
X97703957Y-43870360D01*
X97980884Y-43843085D01*
X98336208Y-43735299D01*
X98663677Y-43560263D01*
X98950705Y-43324705D01*
X99186263Y-43037677D01*
X99361299Y-42710208D01*
X99469085Y-42354884D01*
X99505480Y-41985360D01*
X99469085Y-41615836D01*
X99361299Y-41260512D01*
X99186263Y-40933043D01*
X98950705Y-40646015D01*
X98663677Y-40410457D01*
X98336208Y-40235421D01*
X98311745Y-40228000D01*
X99959880Y-40228000D01*
X99996275Y-40597524D01*
X100104061Y-40952848D01*
X100279097Y-41280317D01*
X100514655Y-41567345D01*
X100801683Y-41802903D01*
X101129152Y-41977939D01*
X101484476Y-42085725D01*
X101761403Y-42113000D01*
X101946597Y-42113000D01*
X102223524Y-42085725D01*
X102554384Y-41985360D01*
X104202520Y-41985360D01*
X104238915Y-42354884D01*
X104346701Y-42710208D01*
X104521737Y-43037677D01*
X104757295Y-43324705D01*
X105044323Y-43560263D01*
X105371792Y-43735299D01*
X105727116Y-43843085D01*
X106004043Y-43870360D01*
X106189237Y-43870360D01*
X106466164Y-43843085D01*
X106821488Y-43735299D01*
X107148957Y-43560263D01*
X107435985Y-43324705D01*
X107671543Y-43037677D01*
X107846579Y-42710208D01*
X107954365Y-42354884D01*
X107990760Y-41985360D01*
X107954365Y-41615836D01*
X107846579Y-41260512D01*
X107671543Y-40933043D01*
X107435985Y-40646015D01*
X107148957Y-40410457D01*
X106821488Y-40235421D01*
X106466164Y-40127635D01*
X106189237Y-40100360D01*
X106004043Y-40100360D01*
X105727116Y-40127635D01*
X105371792Y-40235421D01*
X105044323Y-40410457D01*
X104757295Y-40646015D01*
X104521737Y-40933043D01*
X104346701Y-41260512D01*
X104238915Y-41615836D01*
X104202520Y-41985360D01*
X102554384Y-41985360D01*
X102578848Y-41977939D01*
X102906317Y-41802903D01*
X103193345Y-41567345D01*
X103428903Y-41280317D01*
X103603939Y-40952848D01*
X103711725Y-40597524D01*
X103748120Y-40228000D01*
X103711725Y-39858476D01*
X103603939Y-39503152D01*
X103428903Y-39175683D01*
X103193345Y-38888655D01*
X102906317Y-38653097D01*
X102578848Y-38478061D01*
X102223524Y-38370275D01*
X101946597Y-38343000D01*
X101761403Y-38343000D01*
X101484476Y-38370275D01*
X101129152Y-38478061D01*
X100801683Y-38653097D01*
X100514655Y-38888655D01*
X100279097Y-39175683D01*
X100104061Y-39503152D01*
X99996275Y-39858476D01*
X99959880Y-40228000D01*
X98311745Y-40228000D01*
X97980884Y-40127635D01*
X97703957Y-40100360D01*
X97518763Y-40100360D01*
X97241836Y-40127635D01*
X96886512Y-40235421D01*
X96559043Y-40410457D01*
X96272015Y-40646015D01*
X96036457Y-40933043D01*
X95861421Y-41260512D01*
X95753635Y-41615836D01*
X95717240Y-41985360D01*
X93576246Y-41985360D01*
X95593803Y-39967803D01*
X95609597Y-39948557D01*
X95621333Y-39926601D01*
X95628560Y-39902776D01*
X95631000Y-39878000D01*
X95631000Y-36322000D01*
X95628560Y-36297224D01*
X95621333Y-36273399D01*
X95609597Y-36251443D01*
X95593803Y-36232197D01*
X93307803Y-33946197D01*
X93288557Y-33930403D01*
X93266601Y-33918667D01*
X93242776Y-33911440D01*
X93218000Y-33909000D01*
X88290000Y-33909000D01*
X88290000Y-31115000D01*
X114910001Y-31115000D01*
X114910001Y-33909000D01*
X114910001Y-33909000D01*
G37*
X114910001Y-33909000D02*
X109982000Y-33909000D01*
X109957224Y-33911440D01*
X109933399Y-33918667D01*
X109911443Y-33930403D01*
X109892197Y-33946197D01*
X107606197Y-36232197D01*
X107590403Y-36251443D01*
X107578667Y-36273399D01*
X107571440Y-36297224D01*
X107569000Y-36322000D01*
X107569000Y-39878000D01*
X107571440Y-39902776D01*
X107578667Y-39926601D01*
X107590403Y-39948557D01*
X107606197Y-39967803D01*
X109892197Y-42253803D01*
X109911443Y-42269597D01*
X109933399Y-42281333D01*
X109957224Y-42288560D01*
X109982000Y-42291000D01*
X114910000Y-42291000D01*
X114910000Y-51689000D01*
X109982000Y-51689000D01*
X109957224Y-51691440D01*
X109933399Y-51698667D01*
X109911443Y-51710403D01*
X109892197Y-51726197D01*
X107606197Y-54012197D01*
X107590403Y-54031443D01*
X107578667Y-54053399D01*
X107571440Y-54077224D01*
X107569000Y-54102000D01*
X107569000Y-59030000D01*
X95631000Y-59030000D01*
X95631000Y-54102000D01*
X95628560Y-54077224D01*
X95621333Y-54053399D01*
X95609597Y-54031443D01*
X95593803Y-54012197D01*
X93307803Y-51726197D01*
X93288557Y-51710403D01*
X93266601Y-51698667D01*
X93242776Y-51691440D01*
X93218000Y-51689000D01*
X88290000Y-51689000D01*
X88290000Y-49022000D01*
X99187000Y-49022000D01*
X99187000Y-51054000D01*
X99189440Y-51078776D01*
X99196667Y-51102601D01*
X99208403Y-51124557D01*
X99224197Y-51143803D01*
X100748197Y-52667803D01*
X100767443Y-52683597D01*
X100789399Y-52695333D01*
X100813224Y-52702560D01*
X100838000Y-52705000D01*
X102870000Y-52705000D01*
X102894776Y-52702560D01*
X102918601Y-52695333D01*
X102940557Y-52683597D01*
X102959803Y-52667803D01*
X104483803Y-51143803D01*
X104499597Y-51124557D01*
X104511333Y-51102601D01*
X104518560Y-51078776D01*
X104521000Y-51054000D01*
X104521000Y-49022000D01*
X104518560Y-48997224D01*
X104511333Y-48973399D01*
X104499597Y-48951443D01*
X104483803Y-48932197D01*
X102959803Y-47408197D01*
X102940557Y-47392403D01*
X102918601Y-47380667D01*
X102894776Y-47373440D01*
X102870000Y-47371000D01*
X100838000Y-47371000D01*
X100813224Y-47373440D01*
X100789399Y-47380667D01*
X100767443Y-47392403D01*
X100748197Y-47408197D01*
X99224197Y-48932197D01*
X99208403Y-48951443D01*
X99196667Y-48973399D01*
X99189440Y-48997224D01*
X99187000Y-49022000D01*
X88290000Y-49022000D01*
X88290000Y-46228000D01*
X93959880Y-46228000D01*
X93996275Y-46597524D01*
X94104061Y-46952848D01*
X94279097Y-47280317D01*
X94514655Y-47567345D01*
X94801683Y-47802903D01*
X95129152Y-47977939D01*
X95484476Y-48085725D01*
X95761403Y-48113000D01*
X95946597Y-48113000D01*
X96223524Y-48085725D01*
X96578848Y-47977939D01*
X96906317Y-47802903D01*
X97193345Y-47567345D01*
X97428903Y-47280317D01*
X97603939Y-46952848D01*
X97696521Y-46647645D01*
X106016305Y-46647645D01*
X106092867Y-46900048D01*
X106257817Y-47230715D01*
X106484107Y-47522848D01*
X106763041Y-47765221D01*
X107083900Y-47948519D01*
X107434354Y-48065699D01*
X107727000Y-47949971D01*
X107727000Y-46355000D01*
X107981000Y-46355000D01*
X107981000Y-47949971D01*
X108273646Y-48065699D01*
X108624100Y-47948519D01*
X108944959Y-47765221D01*
X109223893Y-47522848D01*
X109450183Y-47230715D01*
X109615133Y-46900048D01*
X109691695Y-46647645D01*
X109575572Y-46355000D01*
X107981000Y-46355000D01*
X107727000Y-46355000D01*
X106132428Y-46355000D01*
X106016305Y-46647645D01*
X97696521Y-46647645D01*
X97711725Y-46597524D01*
X97748120Y-46228000D01*
X97711725Y-45858476D01*
X97696522Y-45808355D01*
X106016305Y-45808355D01*
X106132428Y-46101000D01*
X107727000Y-46101000D01*
X107727000Y-44506029D01*
X107981000Y-44506029D01*
X107981000Y-46101000D01*
X109575572Y-46101000D01*
X109691695Y-45808355D01*
X109615133Y-45555952D01*
X109450183Y-45225285D01*
X109223893Y-44933152D01*
X108944959Y-44690779D01*
X108624100Y-44507481D01*
X108273646Y-44390301D01*
X107981000Y-44506029D01*
X107727000Y-44506029D01*
X107434354Y-44390301D01*
X107083900Y-44507481D01*
X106763041Y-44690779D01*
X106484107Y-44933152D01*
X106257817Y-45225285D01*
X106092867Y-45555952D01*
X106016305Y-45808355D01*
X97696522Y-45808355D01*
X97603939Y-45503152D01*
X97428903Y-45175683D01*
X97193345Y-44888655D01*
X96906317Y-44653097D01*
X96578848Y-44478061D01*
X96223524Y-44370275D01*
X95946597Y-44343000D01*
X95761403Y-44343000D01*
X95484476Y-44370275D01*
X95129152Y-44478061D01*
X94801683Y-44653097D01*
X94514655Y-44888655D01*
X94279097Y-45175683D01*
X94104061Y-45503152D01*
X93996275Y-45858476D01*
X93959880Y-46228000D01*
X88290000Y-46228000D01*
X88290000Y-42291000D01*
X93218000Y-42291000D01*
X93242776Y-42288560D01*
X93266601Y-42281333D01*
X93288557Y-42269597D01*
X93307803Y-42253803D01*
X93576246Y-41985360D01*
X95717240Y-41985360D01*
X95753635Y-42354884D01*
X95861421Y-42710208D01*
X96036457Y-43037677D01*
X96272015Y-43324705D01*
X96559043Y-43560263D01*
X96886512Y-43735299D01*
X97241836Y-43843085D01*
X97518763Y-43870360D01*
X97703957Y-43870360D01*
X97980884Y-43843085D01*
X98336208Y-43735299D01*
X98663677Y-43560263D01*
X98950705Y-43324705D01*
X99186263Y-43037677D01*
X99361299Y-42710208D01*
X99469085Y-42354884D01*
X99505480Y-41985360D01*
X99469085Y-41615836D01*
X99361299Y-41260512D01*
X99186263Y-40933043D01*
X98950705Y-40646015D01*
X98663677Y-40410457D01*
X98336208Y-40235421D01*
X98311745Y-40228000D01*
X99959880Y-40228000D01*
X99996275Y-40597524D01*
X100104061Y-40952848D01*
X100279097Y-41280317D01*
X100514655Y-41567345D01*
X100801683Y-41802903D01*
X101129152Y-41977939D01*
X101484476Y-42085725D01*
X101761403Y-42113000D01*
X101946597Y-42113000D01*
X102223524Y-42085725D01*
X102554384Y-41985360D01*
X104202520Y-41985360D01*
X104238915Y-42354884D01*
X104346701Y-42710208D01*
X104521737Y-43037677D01*
X104757295Y-43324705D01*
X105044323Y-43560263D01*
X105371792Y-43735299D01*
X105727116Y-43843085D01*
X106004043Y-43870360D01*
X106189237Y-43870360D01*
X106466164Y-43843085D01*
X106821488Y-43735299D01*
X107148957Y-43560263D01*
X107435985Y-43324705D01*
X107671543Y-43037677D01*
X107846579Y-42710208D01*
X107954365Y-42354884D01*
X107990760Y-41985360D01*
X107954365Y-41615836D01*
X107846579Y-41260512D01*
X107671543Y-40933043D01*
X107435985Y-40646015D01*
X107148957Y-40410457D01*
X106821488Y-40235421D01*
X106466164Y-40127635D01*
X106189237Y-40100360D01*
X106004043Y-40100360D01*
X105727116Y-40127635D01*
X105371792Y-40235421D01*
X105044323Y-40410457D01*
X104757295Y-40646015D01*
X104521737Y-40933043D01*
X104346701Y-41260512D01*
X104238915Y-41615836D01*
X104202520Y-41985360D01*
X102554384Y-41985360D01*
X102578848Y-41977939D01*
X102906317Y-41802903D01*
X103193345Y-41567345D01*
X103428903Y-41280317D01*
X103603939Y-40952848D01*
X103711725Y-40597524D01*
X103748120Y-40228000D01*
X103711725Y-39858476D01*
X103603939Y-39503152D01*
X103428903Y-39175683D01*
X103193345Y-38888655D01*
X102906317Y-38653097D01*
X102578848Y-38478061D01*
X102223524Y-38370275D01*
X101946597Y-38343000D01*
X101761403Y-38343000D01*
X101484476Y-38370275D01*
X101129152Y-38478061D01*
X100801683Y-38653097D01*
X100514655Y-38888655D01*
X100279097Y-39175683D01*
X100104061Y-39503152D01*
X99996275Y-39858476D01*
X99959880Y-40228000D01*
X98311745Y-40228000D01*
X97980884Y-40127635D01*
X97703957Y-40100360D01*
X97518763Y-40100360D01*
X97241836Y-40127635D01*
X96886512Y-40235421D01*
X96559043Y-40410457D01*
X96272015Y-40646015D01*
X96036457Y-40933043D01*
X95861421Y-41260512D01*
X95753635Y-41615836D01*
X95717240Y-41985360D01*
X93576246Y-41985360D01*
X95593803Y-39967803D01*
X95609597Y-39948557D01*
X95621333Y-39926601D01*
X95628560Y-39902776D01*
X95631000Y-39878000D01*
X95631000Y-36322000D01*
X95628560Y-36297224D01*
X95621333Y-36273399D01*
X95609597Y-36251443D01*
X95593803Y-36232197D01*
X93307803Y-33946197D01*
X93288557Y-33930403D01*
X93266601Y-33918667D01*
X93242776Y-33911440D01*
X93218000Y-33909000D01*
X88290000Y-33909000D01*
X88290000Y-31115000D01*
X114910001Y-31115000D01*
X114910001Y-33909000D01*
M02*
